<?xml version="1.0" standalone="no"?>
<!DOCTYPE svg PUBLIC "-//W3C//DTD SVG 20010904//EN"
 "http://www.w3.org/TR/2001/REC-SVG-20010904/DTD/svg10.dtd">
<svg version="1.0" xmlns="http://www.w3.org/2000/svg"
 width="1280.000000pt" height="1280.000000pt" viewBox="0 0 1280.000000 1280.000000"
 preserveAspectRatio="xMidYMid meet">
<metadata>
Created by potrace 1.15, written by Peter Selinger 2001-2017
</metadata>
<g transform="translate(0.000000,1280.000000) scale(0.100000,-0.100000)"
fill="#03a9f4" stroke="none">
<path d="M1130 12746 c0 -60 1 -59 -80 -71 -195 -31 -457 -173 -612 -332 -153
-158 -284 -406 -313 -593 -12 -81 -11 -80 -71 -80 -52 0 -54 -1 -54 -26 0 -26
1 -27 53 -21 l52 7 0 -110 0 -110 -52 7 c-52 6 -53 5 -53 -21 0 -25 2 -26 54
-26 60 0 59 1 71 -80 11 -69 60 -210 101 -292 116 -230 302 -416 532 -532 82
-41 223 -90 292 -101 86 -13 80 -4 80 -125 0 -121 6 -112 -80 -125 -195 -31
-457 -173 -612 -332 -153 -158 -284 -406 -313 -593 -12 -81 -11 -80 -71 -80
-52 0 -54 -1 -54 -26 0 -26 1 -27 53 -21 l52 7 0 -110 0 -110 -52 7 c-52 6
-53 5 -53 -21 0 -25 2 -26 54 -26 60 0 59 1 71 -80 11 -69 60 -210 101 -292
116 -230 302 -416 532 -532 82 -41 223 -90 292 -101 86 -13 80 -4 80 -125 0
-121 6 -112 -80 -125 -195 -31 -457 -173 -612 -332 -153 -158 -284 -406 -313
-593 -12 -81 -11 -80 -71 -80 -52 0 -54 -1 -54 -26 0 -26 1 -27 53 -21 l52 7
0 -110 0 -110 -52 7 c-52 6 -53 5 -53 -21 0 -25 2 -26 54 -26 60 0 59 1 71
-80 11 -69 60 -210 101 -292 116 -230 302 -416 532 -532 82 -41 223 -90 292
-101 86 -13 80 -4 80 -125 0 -121 6 -112 -80 -125 -195 -31 -457 -173 -612
-332 -153 -158 -284 -406 -313 -593 -12 -81 -11 -80 -71 -80 -52 0 -54 -1 -54
-26 0 -26 1 -27 53 -21 l52 7 0 -110 0 -110 -52 7 c-52 6 -53 5 -53 -21 0 -25
2 -26 54 -26 60 0 59 1 71 -80 11 -69 60 -210 101 -292 116 -230 302 -416 532
-532 82 -41 223 -90 292 -101 86 -13 80 -4 80 -125 0 -121 6 -112 -80 -125
-195 -31 -457 -173 -612 -332 -153 -158 -284 -406 -313 -593 -12 -81 -11 -80
-71 -80 -52 0 -54 -1 -54 -26 0 -26 1 -27 53 -21 l52 7 0 -110 0 -110 -52 7
c-52 6 -53 5 -53 -21 0 -25 2 -26 54 -26 60 0 59 1 71 -80 11 -69 60 -210 101
-292 116 -230 302 -416 532 -532 82 -41 223 -90 292 -101 81 -12 80 -11 80
-71 0 -52 1 -54 26 -54 26 0 27 1 21 53 l-7 52 110 0 110 0 -7 -52 c-6 -52 -5
-53 21 -53 25 0 26 2 26 54 0 60 -1 59 80 71 69 11 210 60 292 101 230 116
416 302 532 532 41 82 90 223 101 292 13 86 4 80 125 80 121 0 112 6 125 -80
11 -69 60 -210 101 -292 116 -230 302 -416 532 -532 82 -41 223 -90 292 -101
81 -12 80 -11 80 -71 0 -52 1 -54 26 -54 26 0 27 1 21 52 l-7 53 110 0 110 0
-7 -52 c-6 -52 -5 -53 21 -53 25 0 26 2 26 54 0 60 -1 59 80 71 69 11 210 60
292 101 230 116 416 302 532 532 41 82 90 223 101 292 13 86 4 80 125 80 121
0 112 6 125 -80 11 -69 60 -210 101 -292 116 -230 302 -416 532 -532 82 -41
223 -90 292 -101 81 -12 80 -11 80 -71 0 -52 1 -54 26 -54 26 0 27 1 21 53
l-7 52 110 0 110 0 -7 -52 c-6 -52 -5 -53 21 -53 25 0 26 2 26 54 0 60 -1 59
80 71 69 11 210 60 292 101 230 116 416 302 532 532 41 82 90 223 101 292 13
86 4 80 125 80 121 0 112 6 125 -80 11 -69 60 -210 101 -292 116 -230 302
-416 532 -532 82 -41 223 -90 292 -101 81 -12 80 -11 80 -71 0 -52 1 -54 26
-54 26 0 27 1 21 52 l-7 53 110 0 110 0 -7 -52 c-6 -52 -5 -53 21 -53 25 0 26
2 26 54 0 60 -1 59 80 71 69 11 210 60 292 101 230 116 416 302 532 532 41 82
90 223 101 292 13 86 4 80 125 80 121 0 112 6 125 -80 11 -69 60 -210 101
-292 116 -230 302 -416 532 -532 82 -41 223 -90 292 -101 81 -12 80 -11 80
-71 0 -52 1 -54 26 -54 26 0 27 1 21 53 l-7 52 110 0 110 0 -7 -52 c-6 -52 -5
-53 21 -53 25 0 26 2 26 54 0 60 -1 59 80 71 69 11 210 60 292 101 230 116
416 302 532 532 41 82 90 223 101 292 12 81 11 80 71 80 52 0 54 1 54 26 0 26
-1 27 -52 21 l-53 -7 0 110 0 110 53 -7 c51 -6 52 -5 52 21 0 25 -2 26 -54 26
-60 0 -59 -1 -71 80 -12 77 -64 221 -114 315 -115 219 -283 387 -498 498 -96
49 -237 100 -313 112 -86 13 -80 4 -80 125 0 121 -6 112 80 125 69 11 210 60
292 101 230 116 416 302 532 532 41 82 90 223 101 292 12 81 11 80 71 80 52 0
54 1 54 26 0 26 -1 27 -52 21 l-53 -7 0 110 0 110 53 -7 c51 -6 52 -5 52 21 0
25 -2 26 -54 26 -60 0 -59 -1 -71 80 -12 77 -64 221 -114 315 -115 219 -283
387 -498 498 -96 49 -237 100 -313 112 -86 13 -80 4 -80 125 0 121 -6 112 80
125 69 11 210 60 292 101 230 116 416 302 532 532 41 82 90 223 101 292 12 81
11 80 71 80 52 0 54 1 54 26 0 26 -1 27 -52 21 l-53 -7 0 110 0 110 53 -7 c51
-6 52 -5 52 21 0 25 -2 26 -54 26 -60 0 -59 -1 -71 80 -12 77 -64 221 -114
315 -115 219 -283 387 -498 498 -96 49 -237 100 -313 112 -86 13 -80 4 -80
125 0 121 -6 112 80 125 69 11 210 60 292 101 230 116 416 302 532 532 41 82
90 223 101 292 12 81 11 80 71 80 52 0 54 1 54 26 0 26 -1 27 -52 21 l-53 -7
0 110 0 110 53 -7 c51 -6 52 -5 52 21 0 25 -2 26 -54 26 -60 0 -59 -1 -71 80
-12 77 -64 221 -114 315 -115 219 -283 387 -498 498 -96 49 -237 100 -313 112
-86 13 -80 4 -80 125 0 121 -6 112 80 125 69 11 210 60 292 101 230 116 416
302 532 532 41 82 90 223 101 292 12 81 11 80 71 80 52 0 54 1 54 26 0 26 -1
27 -52 21 l-53 -7 0 110 0 110 53 -7 c51 -6 52 -5 52 21 0 25 -2 26 -54 26
-60 0 -59 -1 -71 80 -12 77 -64 221 -114 315 -115 219 -283 387 -498 498 -96
49 -237 100 -313 112 -81 12 -80 11 -80 71 0 52 -1 54 -26 54 -26 0 -27 -1
-21 -52 l7 -53 -110 0 -110 0 7 53 c6 51 5 52 -21 52 -25 0 -26 -2 -26 -54 0
-60 1 -59 -80 -71 -195 -31 -457 -173 -612 -332 -153 -158 -284 -406 -313
-593 -13 -86 -4 -80 -125 -80 -121 0 -112 -6 -125 80 -12 77 -64 221 -114 315
-115 219 -283 387 -498 498 -96 49 -237 100 -313 112 -81 12 -80 11 -80 71 0
52 -1 54 -26 54 -26 0 -27 -1 -21 -52 l7 -53 -110 0 -110 0 7 53 c6 51 5 52
-21 52 -25 0 -26 -2 -26 -54 0 -60 1 -59 -80 -71 -195 -31 -457 -173 -612
-332 -153 -158 -284 -406 -313 -593 -13 -86 -4 -80 -125 -80 -121 0 -112 -6
-125 80 -12 77 -64 221 -114 315 -115 219 -283 387 -498 498 -96 49 -237 100
-313 112 -81 12 -80 11 -80 71 0 52 -1 54 -26 54 -26 0 -27 -1 -21 -52 l7 -53
-110 0 -110 0 7 53 c6 51 5 52 -21 52 -25 0 -26 -2 -26 -54 0 -60 1 -59 -80
-71 -195 -31 -457 -173 -612 -332 -153 -158 -284 -406 -313 -593 -13 -86 -4
-80 -125 -80 -121 0 -112 -6 -125 80 -12 77 -64 221 -114 315 -115 219 -283
387 -498 498 -96 49 -237 100 -313 112 -81 12 -80 11 -80 71 0 52 -1 54 -26
54 -26 0 -27 -1 -21 -52 l7 -53 -110 0 -110 0 7 53 c6 51 5 52 -21 52 -25 0
-26 -2 -26 -54 0 -60 1 -59 -80 -71 -195 -31 -457 -173 -612 -332 -153 -158
-284 -406 -313 -593 -13 -86 -4 -80 -125 -80 -121 0 -112 -6 -125 80 -12 77
-64 221 -114 315 -115 219 -283 387 -498 498 -96 49 -237 100 -313 112 -81 12
-80 11 -80 71 0 52 -1 54 -26 54 -26 0 -27 -1 -21 -52 l7 -53 -110 0 -110 0 7
53 c6 51 5 52 -21 52 -25 0 -26 -2 -26 -54z m264 -113 c2 -10 8 -38 11 -63 11
-69 60 -210 101 -292 116 -230 302 -416 532 -532 82 -41 223 -90 292 -101 86
-13 80 -4 80 -125 0 -121 6 -112 -80 -125 -195 -31 -457 -173 -612 -332 -153
-158 -284 -406 -313 -593 -13 -86 -4 -80 -125 -80 -121 0 -112 -6 -125 80 -12
77 -64 221 -114 315 -115 219 -283 387 -498 498 -96 49 -237 100 -313 112 -86
13 -80 4 -80 125 0 121 -6 112 80 125 69 11 210 60 292 101 230 116 416 302
532 532 41 82 90 223 101 292 13 86 4 80 125 80 95 0 109 -2 114 -17z m2560 0
c2 -10 8 -38 11 -63 11 -69 60 -210 101 -292 116 -230 302 -416 532 -532 82
-41 223 -90 292 -101 86 -13 80 -4 80 -125 0 -121 6 -112 -80 -125 -195 -31
-457 -173 -612 -332 -153 -158 -284 -406 -313 -593 -13 -86 -4 -80 -125 -80
-121 0 -112 -6 -125 80 -12 77 -64 221 -114 315 -115 219 -283 387 -498 498
-96 49 -237 100 -313 112 -86 13 -80 4 -80 125 0 121 -6 112 80 125 69 11 210
60 292 101 230 116 416 302 532 532 41 82 90 223 101 292 13 86 4 80 125 80
95 0 109 -2 114 -17z m2560 0 c2 -10 8 -38 11 -63 11 -69 60 -210 101 -292
116 -230 302 -416 532 -532 82 -41 223 -90 292 -101 86 -13 80 -4 80 -125 0
-121 6 -112 -80 -125 -195 -31 -457 -173 -612 -332 -153 -158 -284 -406 -313
-593 -13 -86 -4 -80 -125 -80 -121 0 -112 -6 -125 80 -12 77 -64 221 -114 315
-115 219 -283 387 -498 498 -96 49 -237 100 -313 112 -86 13 -80 4 -80 125 0
121 -6 112 80 125 69 11 210 60 292 101 230 116 416 302 532 532 41 82 90 223
101 292 13 86 4 80 125 80 95 0 109 -2 114 -17z m2560 0 c2 -10 8 -38 11 -63
11 -69 60 -210 101 -292 116 -230 302 -416 532 -532 82 -41 223 -90 292 -101
86 -13 80 -4 80 -125 0 -121 6 -112 -80 -125 -195 -31 -457 -173 -612 -332
-153 -158 -284 -406 -313 -593 -13 -86 -4 -80 -125 -80 -121 0 -112 -6 -125
80 -12 77 -64 221 -114 315 -115 219 -283 387 -498 498 -96 49 -237 100 -313
112 -86 13 -80 4 -80 125 0 121 -6 112 80 125 69 11 210 60 292 101 230 116
416 302 532 532 41 82 90 223 101 292 13 86 4 80 125 80 95 0 109 -2 114 -17z
m2560 0 c2 -10 8 -38 11 -63 11 -69 60 -210 101 -292 116 -230 302 -416 532
-532 82 -41 223 -90 292 -101 86 -13 80 -4 80 -125 0 -121 6 -112 -80 -125
-195 -31 -457 -173 -612 -332 -153 -158 -284 -406 -313 -593 -13 -86 -4 -80
-125 -80 -121 0 -112 -6 -125 80 -12 77 -64 221 -114 315 -115 219 -283 387
-498 498 -96 49 -237 100 -313 112 -86 13 -80 4 -80 125 0 121 -6 112 80 125
69 11 210 60 292 101 230 116 416 302 532 532 41 82 90 223 101 292 13 86 4
80 125 80 95 0 109 -2 114 -17z m-10521 -30 c-11 -74 -54 -207 -93 -287 -55
-115 -113 -199 -200 -290 -126 -132 -253 -217 -415 -280 -84 -32 -234 -70
-243 -61 -9 9 50 213 86 294 143 324 445 570 793 646 35 7 67 14 71 14 4 1 4
-16 1 -36z m487 0 c359 -103 660 -404 763 -764 13 -46 27 -101 30 -121 6 -37
6 -37 -26 -32 -177 32 -354 110 -497 219 -76 59 -197 187 -248 265 -83 125
-155 305 -175 432 l-5 36 36 -5 c20 -3 75 -17 122 -30z m2073 0 c-11 -74 -54
-207 -93 -287 -55 -115 -113 -199 -200 -290 -126 -132 -253 -217 -415 -280
-84 -32 -234 -70 -243 -61 -9 9 50 213 86 294 143 324 445 570 793 646 35 7
67 14 71 14 4 1 4 -16 1 -36z m487 0 c359 -103 660 -404 763 -764 13 -46 27
-101 30 -121 6 -37 6 -37 -26 -32 -177 32 -354 110 -497 219 -76 59 -197 187
-248 265 -83 125 -155 305 -175 432 l-5 36 36 -5 c20 -3 75 -17 122 -30z
m2073 0 c-11 -74 -54 -207 -93 -287 -55 -115 -113 -199 -200 -290 -126 -132
-253 -217 -415 -280 -84 -32 -234 -70 -243 -61 -9 9 50 213 86 294 143 324
445 570 793 646 35 7 67 14 71 14 4 1 4 -16 1 -36z m487 0 c359 -103 660 -404
763 -764 13 -46 27 -101 30 -121 6 -37 6 -37 -26 -32 -177 32 -354 110 -497
219 -76 59 -197 187 -248 265 -83 125 -155 305 -175 432 l-5 36 36 -5 c20 -3
75 -17 122 -30z m2073 0 c-11 -74 -54 -207 -93 -287 -55 -115 -113 -199 -200
-290 -126 -132 -253 -217 -415 -280 -84 -32 -234 -70 -243 -61 -9 9 50 213 86
294 143 324 445 570 793 646 35 7 67 14 71 14 4 1 4 -16 1 -36z m487 0 c359
-103 660 -404 763 -764 13 -46 27 -101 30 -121 6 -37 6 -37 -26 -32 -177 32
-354 110 -497 219 -76 59 -197 187 -248 265 -83 125 -155 305 -175 432 l-5 36
36 -5 c20 -3 75 -17 122 -30z m2073 0 c-11 -74 -54 -207 -93 -287 -55 -115
-113 -199 -200 -290 -126 -132 -253 -217 -415 -280 -84 -32 -234 -70 -243 -61
-9 9 50 213 86 294 143 324 445 570 793 646 35 7 67 14 71 14 4 1 4 -16 1 -36z
m487 0 c359 -103 660 -404 763 -764 13 -46 27 -101 30 -121 6 -37 6 -37 -26
-32 -177 32 -354 110 -497 219 -76 59 -197 187 -248 265 -83 125 -155 305
-175 432 l-5 36 36 -5 c20 -3 75 -17 122 -30z m-9175 -1083 l0 -105 -105 0
-105 0 0 105 0 105 105 0 105 0 0 -105z m2560 0 l0 -105 -105 0 -105 0 0 105
0 105 105 0 105 0 0 -105z m2560 0 l0 -105 -105 0 -105 0 0 105 0 105 105 0
105 0 0 -105z m2560 0 l0 -105 -105 0 -105 0 0 105 0 105 105 0 105 0 0 -105z
m-7671 -167 c2 -10 8 -38 11 -63 11 -69 60 -210 101 -292 116 -230 302 -416
532 -532 82 -41 223 -90 292 -101 86 -13 80 -4 80 -125 0 -121 6 -112 -80
-125 -195 -31 -457 -173 -612 -332 -153 -158 -284 -406 -313 -593 -13 -86 -4
-80 -125 -80 -121 0 -112 -6 -125 80 -12 77 -64 221 -114 315 -115 219 -283
387 -498 498 -96 49 -237 100 -313 112 -86 13 -80 4 -80 125 0 121 -6 112 80
125 69 11 210 60 292 101 230 116 416 302 532 532 41 82 90 223 101 292 13 86
4 80 125 80 95 0 109 -2 114 -17z m2560 0 c2 -10 8 -38 11 -63 11 -69 60 -210
101 -292 116 -230 302 -416 532 -532 82 -41 223 -90 292 -101 86 -13 80 -4 80
-125 0 -121 6 -112 -80 -125 -195 -31 -457 -173 -612 -332 -153 -158 -284
-406 -313 -593 -13 -86 -4 -80 -125 -80 -121 0 -112 -6 -125 80 -12 77 -64
221 -114 315 -115 219 -283 387 -498 498 -96 49 -237 100 -313 112 -86 13 -80
4 -80 125 0 121 -6 112 80 125 69 11 210 60 292 101 230 116 416 302 532 532
41 82 90 223 101 292 13 86 4 80 125 80 95 0 109 -2 114 -17z m2560 0 c2 -10
8 -38 11 -63 11 -69 60 -210 101 -292 116 -230 302 -416 532 -532 82 -41 223
-90 292 -101 86 -13 80 -4 80 -125 0 -121 6 -112 -80 -125 -195 -31 -457 -173
-612 -332 -153 -158 -284 -406 -313 -593 -13 -86 -4 -80 -125 -80 -121 0 -112
-6 -125 80 -12 77 -64 221 -114 315 -115 219 -283 387 -498 498 -96 49 -237
100 -313 112 -86 13 -80 4 -80 125 0 121 -6 112 80 125 69 11 210 60 292 101
230 116 416 302 532 532 41 82 90 223 101 292 13 86 4 80 125 80 95 0 109 -2
114 -17z m2560 0 c2 -10 8 -38 11 -63 11 -69 60 -210 101 -292 116 -230 302
-416 532 -532 82 -41 223 -90 292 -101 86 -13 80 -4 80 -125 0 -121 6 -112
-80 -125 -195 -31 -457 -173 -612 -332 -153 -158 -284 -406 -313 -593 -13 -86
-4 -80 -125 -80 -121 0 -112 -6 -125 80 -12 77 -64 221 -114 315 -115 219
-283 387 -498 498 -96 49 -237 100 -313 112 -86 13 -80 4 -80 125 0 121 -6
112 80 125 69 11 210 60 292 101 230 116 416 302 532 532 41 82 90 223 101
292 13 86 4 80 125 80 95 0 109 -2 114 -17z m-10034 -30 c359 -103 660 -404
763 -764 13 -46 27 -101 30 -121 6 -37 6 -37 -26 -32 -177 32 -354 110 -497
219 -76 59 -197 187 -248 265 -83 125 -155 305 -175 432 l-5 36 36 -5 c20 -3
75 -17 122 -30z m2073 0 c-11 -74 -54 -207 -93 -287 -55 -115 -113 -199 -200
-290 -126 -132 -253 -217 -415 -280 -84 -32 -234 -70 -243 -61 -9 9 50 213 86
294 143 324 445 570 793 646 35 7 67 14 71 14 4 1 4 -16 1 -36z m487 0 c359
-103 660 -404 763 -764 13 -46 27 -101 30 -121 6 -37 6 -37 -26 -32 -177 32
-354 110 -497 219 -76 59 -197 187 -248 265 -83 125 -155 305 -175 432 l-5 36
36 -5 c20 -3 75 -17 122 -30z m2073 0 c-11 -74 -54 -207 -93 -287 -55 -115
-113 -199 -200 -290 -126 -132 -253 -217 -415 -280 -84 -32 -234 -70 -243 -61
-9 9 50 213 86 294 143 324 445 570 793 646 35 7 67 14 71 14 4 1 4 -16 1 -36z
m487 0 c359 -103 660 -404 763 -764 13 -46 27 -101 30 -121 6 -37 6 -37 -26
-32 -177 32 -354 110 -497 219 -76 59 -197 187 -248 265 -83 125 -155 305
-175 432 l-5 36 36 -5 c20 -3 75 -17 122 -30z m2073 0 c-11 -74 -54 -207 -93
-287 -55 -115 -113 -199 -200 -290 -126 -132 -253 -217 -415 -280 -84 -32
-234 -70 -243 -61 -9 9 50 213 86 294 143 324 445 570 793 646 35 7 67 14 71
14 4 1 4 -16 1 -36z m487 0 c359 -103 660 -404 763 -764 13 -46 27 -101 30
-121 6 -37 6 -37 -26 -32 -177 32 -354 110 -497 219 -76 59 -197 187 -248 265
-83 125 -155 305 -175 432 l-5 36 36 -5 c20 -3 75 -17 122 -30z m2073 0 c-11
-74 -54 -207 -93 -287 -55 -115 -113 -199 -200 -290 -126 -132 -253 -217 -415
-280 -84 -32 -234 -70 -243 -61 -9 9 50 213 86 294 143 324 445 570 793 646
35 7 67 14 71 14 4 1 4 -16 1 -36z m487 0 c359 -103 660 -404 763 -764 13 -46
27 -101 30 -121 6 -37 6 -37 -26 -32 -177 32 -354 110 -497 219 -76 59 -197
187 -248 265 -83 125 -155 305 -175 432 l-5 36 36 -5 c20 -3 75 -17 122 -30z
m2073 0 c-11 -74 -54 -207 -93 -287 -55 -115 -113 -199 -200 -290 -126 -132
-253 -217 -415 -280 -84 -32 -234 -70 -243 -61 -9 9 50 213 86 294 143 324
445 570 793 646 35 7 67 14 71 14 4 1 4 -16 1 -36z m-11248 -1083 l0 -105
-105 0 -105 0 0 105 0 105 105 0 105 0 0 -105z m2560 0 l0 -105 -105 0 -105 0
0 105 0 105 105 0 105 0 0 -105z m2560 0 l0 -105 -105 0 -105 0 0 105 0 105
105 0 105 0 0 -105z m2560 0 l0 -105 -105 0 -105 0 0 105 0 105 105 0 105 0 0
-105z m2560 0 l0 -105 -105 0 -105 0 0 105 0 105 105 0 105 0 0 -105z m-10231
-167 c2 -10 8 -38 11 -63 11 -69 60 -210 101 -292 116 -230 302 -416 532 -532
82 -41 223 -90 292 -101 86 -13 80 -4 80 -125 0 -121 6 -112 -80 -125 -195
-31 -457 -173 -612 -332 -153 -158 -284 -406 -313 -593 -13 -86 -4 -80 -125
-80 -121 0 -112 -6 -125 80 -12 77 -64 221 -114 315 -115 219 -283 387 -498
498 -96 49 -237 100 -313 112 -86 13 -80 4 -80 125 0 121 -6 112 80 125 69 11
210 60 292 101 230 116 416 302 532 532 41 82 90 223 101 292 13 86 4 80 125
80 95 0 109 -2 114 -17z m2560 0 c2 -10 8 -38 11 -63 11 -69 60 -210 101 -292
116 -230 302 -416 532 -532 82 -41 223 -90 292 -101 86 -13 80 -4 80 -125 0
-121 6 -112 -80 -125 -195 -31 -457 -173 -612 -332 -153 -158 -284 -406 -313
-593 -13 -86 -4 -80 -125 -80 -121 0 -112 -6 -125 80 -12 77 -64 221 -114 315
-115 219 -283 387 -498 498 -96 49 -237 100 -313 112 -86 13 -80 4 -80 125 0
121 -6 112 80 125 69 11 210 60 292 101 230 116 416 302 532 532 41 82 90 223
101 292 13 86 4 80 125 80 95 0 109 -2 114 -17z m2560 0 c2 -10 8 -38 11 -63
11 -69 60 -210 101 -292 116 -230 302 -416 532 -532 82 -41 223 -90 292 -101
86 -13 80 -4 80 -125 0 -121 6 -112 -80 -125 -195 -31 -457 -173 -612 -332
-153 -158 -284 -406 -313 -593 -13 -86 -4 -80 -125 -80 -121 0 -112 -6 -125
80 -12 77 -64 221 -114 315 -115 219 -283 387 -498 498 -96 49 -237 100 -313
112 -86 13 -80 4 -80 125 0 121 -6 112 80 125 69 11 210 60 292 101 230 116
416 302 532 532 41 82 90 223 101 292 13 86 4 80 125 80 95 0 109 -2 114 -17z
m2560 0 c2 -10 8 -38 11 -63 11 -69 60 -210 101 -292 116 -230 302 -416 532
-532 82 -41 223 -90 292 -101 86 -13 80 -4 80 -125 0 -121 6 -112 -80 -125
-195 -31 -457 -173 -612 -332 -153 -158 -284 -406 -313 -593 -13 -86 -4 -80
-125 -80 -121 0 -112 -6 -125 80 -12 77 -64 221 -114 315 -115 219 -283 387
-498 498 -96 49 -237 100 -313 112 -86 13 -80 4 -80 125 0 121 -6 112 80 125
69 11 210 60 292 101 230 116 416 302 532 532 41 82 90 223 101 292 13 86 4
80 125 80 95 0 109 -2 114 -17z m2560 0 c2 -10 8 -38 11 -63 11 -69 60 -210
101 -292 116 -230 302 -416 532 -532 82 -41 223 -90 292 -101 86 -13 80 -4 80
-125 0 -121 6 -112 -80 -125 -195 -31 -457 -173 -612 -332 -153 -158 -284
-406 -313 -593 -13 -86 -4 -80 -125 -80 -121 0 -112 -6 -125 80 -12 77 -64
221 -114 315 -115 219 -283 387 -498 498 -96 49 -237 100 -313 112 -86 13 -80
4 -80 125 0 121 -6 112 80 125 69 11 210 60 292 101 230 116 416 302 532 532
41 82 90 223 101 292 13 86 4 80 125 80 95 0 109 -2 114 -17z m-10521 -30
c-11 -74 -54 -207 -93 -287 -55 -115 -113 -199 -200 -290 -126 -132 -253 -217
-415 -280 -84 -32 -234 -70 -243 -61 -9 9 50 213 86 294 143 324 445 570 793
646 35 7 67 14 71 14 4 1 4 -16 1 -36z m487 0 c359 -103 660 -404 763 -764 13
-46 27 -101 30 -121 6 -37 6 -37 -26 -32 -177 32 -354 110 -497 219 -76 59
-197 187 -248 265 -83 125 -155 305 -175 432 l-5 36 36 -5 c20 -3 75 -17 122
-30z m2073 0 c-11 -74 -54 -207 -93 -287 -55 -115 -113 -199 -200 -290 -126
-132 -253 -217 -415 -280 -84 -32 -234 -70 -243 -61 -9 9 50 213 86 294 143
324 445 570 793 646 35 7 67 14 71 14 4 1 4 -16 1 -36z m487 0 c359 -103 660
-404 763 -764 13 -46 27 -101 30 -121 6 -37 6 -37 -26 -32 -177 32 -354 110
-497 219 -76 59 -197 187 -248 265 -83 125 -155 305 -175 432 l-5 36 36 -5
c20 -3 75 -17 122 -30z m2073 0 c-11 -74 -54 -207 -93 -287 -55 -115 -113
-199 -200 -290 -126 -132 -253 -217 -415 -280 -84 -32 -234 -70 -243 -61 -9 9
50 213 86 294 143 324 445 570 793 646 35 7 67 14 71 14 4 1 4 -16 1 -36z
m487 0 c359 -103 660 -404 763 -764 13 -46 27 -101 30 -121 6 -37 6 -37 -26
-32 -177 32 -354 110 -497 219 -76 59 -197 187 -248 265 -83 125 -155 305
-175 432 l-5 36 36 -5 c20 -3 75 -17 122 -30z m2073 0 c-11 -74 -54 -207 -93
-287 -55 -115 -113 -199 -200 -290 -126 -132 -253 -217 -415 -280 -84 -32
-234 -70 -243 -61 -9 9 50 213 86 294 143 324 445 570 793 646 35 7 67 14 71
14 4 1 4 -16 1 -36z m487 0 c359 -103 660 -404 763 -764 13 -46 27 -101 30
-121 6 -37 6 -37 -26 -32 -177 32 -354 110 -497 219 -76 59 -197 187 -248 265
-83 125 -155 305 -175 432 l-5 36 36 -5 c20 -3 75 -17 122 -30z m2073 0 c-11
-74 -54 -207 -93 -287 -55 -115 -113 -199 -200 -290 -126 -132 -253 -217 -415
-280 -84 -32 -234 -70 -243 -61 -9 9 50 213 86 294 143 324 445 570 793 646
35 7 67 14 71 14 4 1 4 -16 1 -36z m487 0 c359 -103 660 -404 763 -764 13 -46
27 -101 30 -121 6 -37 6 -37 -26 -32 -177 32 -354 110 -497 219 -76 59 -197
187 -248 265 -83 125 -155 305 -175 432 l-5 36 36 -5 c20 -3 75 -17 122 -30z
m-9175 -1083 l0 -105 -105 0 -105 0 0 105 0 105 105 0 105 0 0 -105z m2560 0
l0 -105 -105 0 -105 0 0 105 0 105 105 0 105 0 0 -105z m2560 0 l0 -105 -105
0 -105 0 0 105 0 105 105 0 105 0 0 -105z m2560 0 l0 -105 -105 0 -105 0 0
105 0 105 105 0 105 0 0 -105z m-7671 -167 c2 -10 8 -38 11 -63 11 -69 60
-210 101 -292 116 -230 302 -416 532 -532 82 -41 223 -90 292 -101 86 -13 80
-4 80 -125 0 -121 6 -112 -80 -125 -195 -31 -457 -173 -612 -332 -153 -158
-284 -406 -313 -593 -13 -86 -4 -80 -125 -80 -121 0 -112 -6 -125 80 -12 77
-64 221 -114 315 -115 219 -283 387 -498 498 -96 49 -237 100 -313 112 -86 13
-80 4 -80 125 0 121 -6 112 80 125 69 11 210 60 292 101 230 116 416 302 532
532 41 82 90 223 101 292 13 86 4 80 125 80 95 0 109 -2 114 -17z m2560 0 c2
-10 8 -38 11 -63 11 -69 60 -210 101 -292 116 -230 302 -416 532 -532 82 -41
223 -90 292 -101 86 -13 80 -4 80 -125 0 -121 6 -112 -80 -125 -195 -31 -457
-173 -612 -332 -153 -158 -284 -406 -313 -593 -13 -86 -4 -80 -125 -80 -121 0
-112 -6 -125 80 -12 77 -64 221 -114 315 -115 219 -283 387 -498 498 -96 49
-237 100 -313 112 -86 13 -80 4 -80 125 0 121 -6 112 80 125 69 11 210 60 292
101 230 116 416 302 532 532 41 82 90 223 101 292 13 86 4 80 125 80 95 0 109
-2 114 -17z m2560 0 c2 -10 8 -38 11 -63 11 -69 60 -210 101 -292 116 -230
302 -416 532 -532 82 -41 223 -90 292 -101 86 -13 80 -4 80 -125 0 -121 6
-112 -80 -125 -195 -31 -457 -173 -612 -332 -153 -158 -284 -406 -313 -593
-13 -86 -4 -80 -125 -80 -121 0 -112 -6 -125 80 -12 77 -64 221 -114 315 -115
219 -283 387 -498 498 -96 49 -237 100 -313 112 -86 13 -80 4 -80 125 0 121
-6 112 80 125 69 11 210 60 292 101 230 116 416 302 532 532 41 82 90 223 101
292 13 86 4 80 125 80 95 0 109 -2 114 -17z m2560 0 c2 -10 8 -38 11 -63 11
-69 60 -210 101 -292 116 -230 302 -416 532 -532 82 -41 223 -90 292 -101 86
-13 80 -4 80 -125 0 -121 6 -112 -80 -125 -195 -31 -457 -173 -612 -332 -153
-158 -284 -406 -313 -593 -13 -86 -4 -80 -125 -80 -121 0 -112 -6 -125 80 -12
77 -64 221 -114 315 -115 219 -283 387 -498 498 -96 49 -237 100 -313 112 -86
13 -80 4 -80 125 0 121 -6 112 80 125 69 11 210 60 292 101 230 116 416 302
532 532 41 82 90 223 101 292 13 86 4 80 125 80 95 0 109 -2 114 -17z m-10034
-30 c359 -103 660 -404 763 -764 13 -46 27 -101 30 -121 6 -37 6 -37 -26 -32
-177 32 -354 110 -497 219 -76 59 -197 187 -248 265 -83 125 -155 305 -175
432 l-5 36 36 -5 c20 -3 75 -17 122 -30z m2073 0 c-11 -74 -54 -207 -93 -287
-55 -115 -113 -199 -200 -290 -126 -132 -253 -217 -415 -280 -84 -32 -234 -70
-243 -61 -9 9 50 213 86 294 143 324 445 570 793 646 35 7 67 14 71 14 4 1 4
-16 1 -36z m487 0 c359 -103 660 -404 763 -764 13 -46 27 -101 30 -121 6 -37
6 -37 -26 -32 -177 32 -354 110 -497 219 -76 59 -197 187 -248 265 -83 125
-155 305 -175 432 l-5 36 36 -5 c20 -3 75 -17 122 -30z m2073 0 c-11 -74 -54
-207 -93 -287 -55 -115 -113 -199 -200 -290 -126 -132 -253 -217 -415 -280
-84 -32 -234 -70 -243 -61 -9 9 50 213 86 294 143 324 445 570 793 646 35 7
67 14 71 14 4 1 4 -16 1 -36z m487 0 c359 -103 660 -404 763 -764 13 -46 27
-101 30 -121 6 -37 6 -37 -26 -32 -177 32 -354 110 -497 219 -76 59 -197 187
-248 265 -83 125 -155 305 -175 432 l-5 36 36 -5 c20 -3 75 -17 122 -30z
m2073 0 c-11 -74 -54 -207 -93 -287 -55 -115 -113 -199 -200 -290 -126 -132
-253 -217 -415 -280 -84 -32 -234 -70 -243 -61 -9 9 50 213 86 294 143 324
445 570 793 646 35 7 67 14 71 14 4 1 4 -16 1 -36z m487 0 c359 -103 660 -404
763 -764 13 -46 27 -101 30 -121 6 -37 6 -37 -26 -32 -177 32 -354 110 -497
219 -76 59 -197 187 -248 265 -83 125 -155 305 -175 432 l-5 36 36 -5 c20 -3
75 -17 122 -30z m2073 0 c-11 -74 -54 -207 -93 -287 -55 -115 -113 -199 -200
-290 -126 -132 -253 -217 -415 -280 -84 -32 -234 -70 -243 -61 -9 9 50 213 86
294 143 324 445 570 793 646 35 7 67 14 71 14 4 1 4 -16 1 -36z m487 0 c359
-103 660 -404 763 -764 13 -46 27 -101 30 -121 6 -37 6 -37 -26 -32 -177 32
-354 110 -497 219 -76 59 -197 187 -248 265 -83 125 -155 305 -175 432 l-5 36
36 -5 c20 -3 75 -17 122 -30z m2073 0 c-11 -74 -54 -207 -93 -287 -55 -115
-113 -199 -200 -290 -126 -132 -253 -217 -415 -280 -84 -32 -234 -70 -243 -61
-9 9 50 213 86 294 143 324 445 570 793 646 35 7 67 14 71 14 4 1 4 -16 1 -36z
m-11248 -1083 l0 -105 -105 0 -105 0 0 105 0 105 105 0 105 0 0 -105z m2560 0
l0 -105 -105 0 -105 0 0 105 0 105 105 0 105 0 0 -105z m2560 0 l0 -105 -105
0 -105 0 0 105 0 105 105 0 105 0 0 -105z m2560 0 l0 -105 -105 0 -105 0 0
105 0 105 105 0 105 0 0 -105z m2560 0 l0 -105 -105 0 -105 0 0 105 0 105 105
0 105 0 0 -105z m-10231 -167 c2 -10 8 -38 11 -63 11 -69 60 -210 101 -292
116 -230 302 -416 532 -532 82 -41 223 -90 292 -101 86 -13 80 -4 80 -125 0
-121 6 -112 -80 -125 -195 -31 -457 -173 -612 -332 -153 -158 -284 -406 -313
-593 -13 -86 -4 -80 -125 -80 -121 0 -112 -6 -125 80 -12 77 -64 221 -114 315
-115 219 -283 387 -498 498 -96 49 -237 100 -313 112 -86 13 -80 4 -80 125 0
121 -6 112 80 125 69 11 210 60 292 101 230 116 416 302 532 532 41 82 90 223
101 292 13 86 4 80 125 80 95 0 109 -2 114 -17z m2560 0 c2 -10 8 -38 11 -63
11 -69 60 -210 101 -292 116 -230 302 -416 532 -532 82 -41 223 -90 292 -101
86 -13 80 -4 80 -125 0 -121 6 -112 -80 -125 -195 -31 -457 -173 -612 -332
-153 -158 -284 -406 -313 -593 -13 -86 -4 -80 -125 -80 -121 0 -112 -6 -125
80 -12 77 -64 221 -114 315 -115 219 -283 387 -498 498 -96 49 -237 100 -313
112 -86 13 -80 4 -80 125 0 121 -6 112 80 125 69 11 210 60 292 101 230 116
416 302 532 532 41 82 90 223 101 292 13 86 4 80 125 80 95 0 109 -2 114 -17z
m2560 0 c2 -10 8 -38 11 -63 11 -69 60 -210 101 -292 116 -230 302 -416 532
-532 82 -41 223 -90 292 -101 86 -13 80 -4 80 -125 0 -121 6 -112 -80 -125
-195 -31 -457 -173 -612 -332 -153 -158 -284 -406 -313 -593 -13 -86 -4 -80
-125 -80 -121 0 -112 -6 -125 80 -12 77 -64 221 -114 315 -115 219 -283 387
-498 498 -96 49 -237 100 -313 112 -86 13 -80 4 -80 125 0 121 -6 112 80 125
69 11 210 60 292 101 230 116 416 302 532 532 41 82 90 223 101 292 13 86 4
80 125 80 95 0 109 -2 114 -17z m2560 0 c2 -10 8 -38 11 -63 11 -69 60 -210
101 -292 116 -230 302 -416 532 -532 82 -41 223 -90 292 -101 86 -13 80 -4 80
-125 0 -121 6 -112 -80 -125 -195 -31 -457 -173 -612 -332 -153 -158 -284
-406 -313 -593 -13 -86 -4 -80 -125 -80 -121 0 -112 -6 -125 80 -12 77 -64
221 -114 315 -115 219 -283 387 -498 498 -96 49 -237 100 -313 112 -86 13 -80
4 -80 125 0 121 -6 112 80 125 69 11 210 60 292 101 230 116 416 302 532 532
41 82 90 223 101 292 13 86 4 80 125 80 95 0 109 -2 114 -17z m2560 0 c2 -10
8 -38 11 -63 11 -69 60 -210 101 -292 116 -230 302 -416 532 -532 82 -41 223
-90 292 -101 86 -13 80 -4 80 -125 0 -121 6 -112 -80 -125 -195 -31 -457 -173
-612 -332 -153 -158 -284 -406 -313 -593 -13 -86 -4 -80 -125 -80 -121 0 -112
-6 -125 80 -12 77 -64 221 -114 315 -115 219 -283 387 -498 498 -96 49 -237
100 -313 112 -86 13 -80 4 -80 125 0 121 -6 112 80 125 69 11 210 60 292 101
230 116 416 302 532 532 41 82 90 223 101 292 13 86 4 80 125 80 95 0 109 -2
114 -17z m-10521 -30 c-11 -74 -54 -207 -93 -287 -55 -115 -113 -199 -200
-290 -126 -132 -253 -217 -415 -280 -84 -32 -234 -70 -243 -61 -9 9 50 213 86
294 143 324 445 570 793 646 35 7 67 14 71 14 4 1 4 -16 1 -36z m487 0 c359
-103 660 -404 763 -764 13 -46 27 -101 30 -121 6 -37 6 -37 -26 -32 -177 32
-354 110 -497 219 -76 59 -197 187 -248 265 -83 125 -155 305 -175 432 l-5 36
36 -5 c20 -3 75 -17 122 -30z m2073 0 c-11 -74 -54 -207 -93 -287 -55 -115
-113 -199 -200 -290 -126 -132 -253 -217 -415 -280 -84 -32 -234 -70 -243 -61
-9 9 50 213 86 294 143 324 445 570 793 646 35 7 67 14 71 14 4 1 4 -16 1 -36z
m487 0 c359 -103 660 -404 763 -764 13 -46 27 -101 30 -121 6 -37 6 -37 -26
-32 -177 32 -354 110 -497 219 -76 59 -197 187 -248 265 -83 125 -155 305
-175 432 l-5 36 36 -5 c20 -3 75 -17 122 -30z m2073 0 c-11 -74 -54 -207 -93
-287 -55 -115 -113 -199 -200 -290 -126 -132 -253 -217 -415 -280 -84 -32
-234 -70 -243 -61 -9 9 50 213 86 294 143 324 445 570 793 646 35 7 67 14 71
14 4 1 4 -16 1 -36z m487 0 c359 -103 660 -404 763 -764 13 -46 27 -101 30
-121 6 -37 6 -37 -26 -32 -177 32 -354 110 -497 219 -76 59 -197 187 -248 265
-83 125 -155 305 -175 432 l-5 36 36 -5 c20 -3 75 -17 122 -30z m2073 0 c-11
-74 -54 -207 -93 -287 -55 -115 -113 -199 -200 -290 -126 -132 -253 -217 -415
-280 -84 -32 -234 -70 -243 -61 -9 9 50 213 86 294 143 324 445 570 793 646
35 7 67 14 71 14 4 1 4 -16 1 -36z m487 0 c359 -103 660 -404 763 -764 13 -46
27 -101 30 -121 6 -37 6 -37 -26 -32 -177 32 -354 110 -497 219 -76 59 -197
187 -248 265 -83 125 -155 305 -175 432 l-5 36 36 -5 c20 -3 75 -17 122 -30z
m2073 0 c-11 -74 -54 -207 -93 -287 -55 -115 -113 -199 -200 -290 -126 -132
-253 -217 -415 -280 -84 -32 -234 -70 -243 -61 -9 9 50 213 86 294 143 324
445 570 793 646 35 7 67 14 71 14 4 1 4 -16 1 -36z m487 0 c359 -103 660 -404
763 -764 13 -46 27 -101 30 -121 6 -37 6 -37 -26 -32 -177 32 -354 110 -497
219 -76 59 -197 187 -248 265 -83 125 -155 305 -175 432 l-5 36 36 -5 c20 -3
75 -17 122 -30z m-9175 -1083 l0 -105 -105 0 -105 0 0 105 0 105 105 0 105 0
0 -105z m2560 0 l0 -105 -105 0 -105 0 0 105 0 105 105 0 105 0 0 -105z m2560
0 l0 -105 -105 0 -105 0 0 105 0 105 105 0 105 0 0 -105z m2560 0 l0 -105
-105 0 -105 0 0 105 0 105 105 0 105 0 0 -105z m-7671 -167 c2 -10 8 -38 11
-63 11 -69 60 -210 101 -292 116 -230 302 -416 532 -532 82 -41 223 -90 292
-101 86 -13 80 -4 80 -125 0 -121 6 -112 -80 -125 -195 -31 -457 -173 -612
-332 -153 -158 -284 -406 -313 -593 -13 -86 -4 -80 -125 -80 -121 0 -112 -6
-125 80 -12 77 -64 221 -114 315 -115 219 -283 387 -498 498 -96 49 -237 100
-313 112 -86 13 -80 4 -80 125 0 121 -6 112 80 125 69 11 210 60 292 101 230
116 416 302 532 532 41 82 90 223 101 292 13 86 4 80 125 80 95 0 109 -2 114
-17z m2560 0 c2 -10 8 -38 11 -63 11 -69 60 -210 101 -292 116 -230 302 -416
532 -532 82 -41 223 -90 292 -101 86 -13 80 -4 80 -125 0 -121 6 -112 -80
-125 -195 -31 -457 -173 -612 -332 -153 -158 -284 -406 -313 -593 -13 -86 -4
-80 -125 -80 -121 0 -112 -6 -125 80 -12 77 -64 221 -114 315 -115 219 -283
387 -498 498 -96 49 -237 100 -313 112 -86 13 -80 4 -80 125 0 121 -6 112 80
125 69 11 210 60 292 101 230 116 416 302 532 532 41 82 90 223 101 292 13 86
4 80 125 80 95 0 109 -2 114 -17z m2560 0 c2 -10 8 -38 11 -63 11 -69 60 -210
101 -292 116 -230 302 -416 532 -532 82 -41 223 -90 292 -101 86 -13 80 -4 80
-125 0 -121 6 -112 -80 -125 -195 -31 -457 -173 -612 -332 -153 -158 -284
-406 -313 -593 -13 -86 -4 -80 -125 -80 -121 0 -112 -6 -125 80 -12 77 -64
221 -114 315 -115 219 -283 387 -498 498 -96 49 -237 100 -313 112 -86 13 -80
4 -80 125 0 121 -6 112 80 125 69 11 210 60 292 101 230 116 416 302 532 532
41 82 90 223 101 292 13 86 4 80 125 80 95 0 109 -2 114 -17z m2560 0 c2 -10
8 -38 11 -63 11 -69 60 -210 101 -292 116 -230 302 -416 532 -532 82 -41 223
-90 292 -101 86 -13 80 -4 80 -125 0 -121 6 -112 -80 -125 -195 -31 -457 -173
-612 -332 -153 -158 -284 -406 -313 -593 -13 -86 -4 -80 -125 -80 -121 0 -112
-6 -125 80 -12 77 -64 221 -114 315 -115 219 -283 387 -498 498 -96 49 -237
100 -313 112 -86 13 -80 4 -80 125 0 121 -6 112 80 125 69 11 210 60 292 101
230 116 416 302 532 532 41 82 90 223 101 292 13 86 4 80 125 80 95 0 109 -2
114 -17z m-10034 -30 c359 -103 660 -404 763 -764 13 -46 27 -101 30 -121 6
-37 6 -37 -26 -32 -177 32 -354 110 -497 219 -76 59 -197 187 -248 265 -83
125 -155 305 -175 432 l-5 36 36 -5 c20 -3 75 -17 122 -30z m2073 0 c-11 -74
-54 -207 -93 -287 -55 -115 -113 -199 -200 -290 -126 -132 -253 -217 -415
-280 -84 -32 -234 -70 -243 -61 -9 9 50 213 86 294 143 324 445 570 793 646
35 7 67 14 71 14 4 1 4 -16 1 -36z m487 0 c359 -103 660 -404 763 -764 13 -46
27 -101 30 -121 6 -37 6 -37 -26 -32 -177 32 -354 110 -497 219 -76 59 -197
187 -248 265 -83 125 -155 305 -175 432 l-5 36 36 -5 c20 -3 75 -17 122 -30z
m2073 0 c-11 -74 -54 -207 -93 -287 -55 -115 -113 -199 -200 -290 -126 -132
-253 -217 -415 -280 -84 -32 -234 -70 -243 -61 -9 9 50 213 86 294 143 324
445 570 793 646 35 7 67 14 71 14 4 1 4 -16 1 -36z m487 0 c359 -103 660 -404
763 -764 13 -46 27 -101 30 -121 6 -37 6 -37 -26 -32 -177 32 -354 110 -497
219 -76 59 -197 187 -248 265 -83 125 -155 305 -175 432 l-5 36 36 -5 c20 -3
75 -17 122 -30z m2073 0 c-11 -74 -54 -207 -93 -287 -55 -115 -113 -199 -200
-290 -126 -132 -253 -217 -415 -280 -84 -32 -234 -70 -243 -61 -9 9 50 213 86
294 143 324 445 570 793 646 35 7 67 14 71 14 4 1 4 -16 1 -36z m487 0 c359
-103 660 -404 763 -764 13 -46 27 -101 30 -121 6 -37 6 -37 -26 -32 -177 32
-354 110 -497 219 -76 59 -197 187 -248 265 -83 125 -155 305 -175 432 l-5 36
36 -5 c20 -3 75 -17 122 -30z m2073 0 c-11 -74 -54 -207 -93 -287 -55 -115
-113 -199 -200 -290 -126 -132 -253 -217 -415 -280 -84 -32 -234 -70 -243 -61
-9 9 50 213 86 294 143 324 445 570 793 646 35 7 67 14 71 14 4 1 4 -16 1 -36z
m487 0 c359 -103 660 -404 763 -764 13 -46 27 -101 30 -121 6 -37 6 -37 -26
-32 -177 32 -354 110 -497 219 -76 59 -197 187 -248 265 -83 125 -155 305
-175 432 l-5 36 36 -5 c20 -3 75 -17 122 -30z m2073 0 c-11 -74 -54 -207 -93
-287 -55 -115 -113 -199 -200 -290 -126 -132 -253 -217 -415 -280 -84 -32
-234 -70 -243 -61 -9 9 50 213 86 294 143 324 445 570 793 646 35 7 67 14 71
14 4 1 4 -16 1 -36z m-11248 -1083 l0 -105 -105 0 -105 0 0 105 0 105 105 0
105 0 0 -105z m2560 0 l0 -105 -105 0 -105 0 0 105 0 105 105 0 105 0 0 -105z
m2560 0 l0 -105 -105 0 -105 0 0 105 0 105 105 0 105 0 0 -105z m2560 0 l0
-105 -105 0 -105 0 0 105 0 105 105 0 105 0 0 -105z m2560 0 l0 -105 -105 0
-105 0 0 105 0 105 105 0 105 0 0 -105z m-10231 -167 c2 -10 8 -38 11 -63 11
-69 60 -210 101 -292 116 -230 302 -416 532 -532 82 -41 223 -90 292 -101 86
-13 80 -4 80 -125 0 -121 6 -112 -80 -125 -195 -31 -457 -173 -612 -332 -153
-158 -284 -406 -313 -593 -13 -86 -4 -80 -125 -80 -121 0 -112 -6 -125 80 -12
77 -64 221 -114 315 -115 219 -283 387 -498 498 -96 49 -237 100 -313 112 -86
13 -80 4 -80 125 0 121 -6 112 80 125 69 11 210 60 292 101 230 116 416 302
532 532 41 82 90 223 101 292 13 86 4 80 125 80 95 0 109 -2 114 -17z m2560 0
c2 -10 8 -38 11 -63 11 -69 60 -210 101 -292 116 -230 302 -416 532 -532 82
-41 223 -90 292 -101 86 -13 80 -4 80 -125 0 -121 6 -112 -80 -125 -195 -31
-457 -173 -612 -332 -153 -158 -284 -406 -313 -593 -13 -86 -4 -80 -125 -80
-121 0 -112 -6 -125 80 -12 77 -64 221 -114 315 -115 219 -283 387 -498 498
-96 49 -237 100 -313 112 -86 13 -80 4 -80 125 0 121 -6 112 80 125 69 11 210
60 292 101 230 116 416 302 532 532 41 82 90 223 101 292 13 86 4 80 125 80
95 0 109 -2 114 -17z m2560 0 c2 -10 8 -38 11 -63 11 -69 60 -210 101 -292
116 -230 302 -416 532 -532 82 -41 223 -90 292 -101 86 -13 80 -4 80 -125 0
-121 6 -112 -80 -125 -195 -31 -457 -173 -612 -332 -153 -158 -284 -406 -313
-593 -13 -86 -4 -80 -125 -80 -121 0 -112 -6 -125 80 -12 77 -64 221 -114 315
-115 219 -283 387 -498 498 -96 49 -237 100 -313 112 -86 13 -80 4 -80 125 0
121 -6 112 80 125 69 11 210 60 292 101 230 116 416 302 532 532 41 82 90 223
101 292 13 86 4 80 125 80 95 0 109 -2 114 -17z m2560 0 c2 -10 8 -38 11 -63
11 -69 60 -210 101 -292 116 -230 302 -416 532 -532 82 -41 223 -90 292 -101
86 -13 80 -4 80 -125 0 -121 6 -112 -80 -125 -195 -31 -457 -173 -612 -332
-153 -158 -284 -406 -313 -593 -13 -86 -4 -80 -125 -80 -121 0 -112 -6 -125
80 -12 77 -64 221 -114 315 -115 219 -283 387 -498 498 -96 49 -237 100 -313
112 -86 13 -80 4 -80 125 0 121 -6 112 80 125 69 11 210 60 292 101 230 116
416 302 532 532 41 82 90 223 101 292 13 86 4 80 125 80 95 0 109 -2 114 -17z
m2560 0 c2 -10 8 -38 11 -63 11 -69 60 -210 101 -292 116 -230 302 -416 532
-532 82 -41 223 -90 292 -101 86 -13 80 -4 80 -125 0 -121 6 -112 -80 -125
-195 -31 -457 -173 -612 -332 -153 -158 -284 -406 -313 -593 -13 -86 -4 -80
-125 -80 -121 0 -112 -6 -125 80 -12 77 -64 221 -114 315 -115 219 -283 387
-498 498 -96 49 -237 100 -313 112 -86 13 -80 4 -80 125 0 121 -6 112 80 125
69 11 210 60 292 101 230 116 416 302 532 532 41 82 90 223 101 292 13 86 4
80 125 80 95 0 109 -2 114 -17z m-10521 -30 c-11 -74 -54 -207 -93 -287 -55
-115 -113 -199 -200 -290 -126 -132 -253 -217 -415 -280 -84 -32 -234 -70
-243 -61 -9 9 50 213 86 294 143 324 445 570 793 646 35 7 67 14 71 14 4 1 4
-16 1 -36z m487 0 c359 -103 660 -404 763 -764 13 -46 27 -101 30 -121 6 -37
6 -37 -26 -32 -177 32 -354 110 -497 219 -76 59 -197 187 -248 265 -83 125
-155 305 -175 432 l-5 36 36 -5 c20 -3 75 -17 122 -30z m2073 0 c-11 -74 -54
-207 -93 -287 -55 -115 -113 -199 -200 -290 -126 -132 -253 -217 -415 -280
-84 -32 -234 -70 -243 -61 -9 9 50 213 86 294 143 324 445 570 793 646 35 7
67 14 71 14 4 1 4 -16 1 -36z m487 0 c359 -103 660 -404 763 -764 13 -46 27
-101 30 -121 6 -37 6 -37 -26 -32 -177 32 -354 110 -497 219 -76 59 -197 187
-248 265 -83 125 -155 305 -175 432 l-5 36 36 -5 c20 -3 75 -17 122 -30z
m2073 0 c-11 -74 -54 -207 -93 -287 -55 -115 -113 -199 -200 -290 -126 -132
-253 -217 -415 -280 -84 -32 -234 -70 -243 -61 -9 9 50 213 86 294 143 324
445 570 793 646 35 7 67 14 71 14 4 1 4 -16 1 -36z m487 0 c359 -103 660 -404
763 -764 13 -46 27 -101 30 -121 6 -37 6 -37 -26 -32 -177 32 -354 110 -497
219 -76 59 -197 187 -248 265 -83 125 -155 305 -175 432 l-5 36 36 -5 c20 -3
75 -17 122 -30z m2073 0 c-11 -74 -54 -207 -93 -287 -55 -115 -113 -199 -200
-290 -126 -132 -253 -217 -415 -280 -84 -32 -234 -70 -243 -61 -9 9 50 213 86
294 143 324 445 570 793 646 35 7 67 14 71 14 4 1 4 -16 1 -36z m487 0 c359
-103 660 -404 763 -764 13 -46 27 -101 30 -121 6 -37 6 -37 -26 -32 -177 32
-354 110 -497 219 -76 59 -197 187 -248 265 -83 125 -155 305 -175 432 l-5 36
36 -5 c20 -3 75 -17 122 -30z m2073 0 c-11 -74 -54 -207 -93 -287 -55 -115
-113 -199 -200 -290 -126 -132 -253 -217 -415 -280 -84 -32 -234 -70 -243 -61
-9 9 50 213 86 294 143 324 445 570 793 646 35 7 67 14 71 14 4 1 4 -16 1 -36z
m487 0 c359 -103 660 -404 763 -764 13 -46 27 -101 30 -121 6 -37 6 -37 -26
-32 -177 32 -354 110 -497 219 -76 59 -197 187 -248 265 -83 125 -155 305
-175 432 l-5 36 36 -5 c20 -3 75 -17 122 -30z m-9175 -1083 l0 -105 -105 0
-105 0 0 105 0 105 105 0 105 0 0 -105z m2560 0 l0 -105 -105 0 -105 0 0 105
0 105 105 0 105 0 0 -105z m2560 0 l0 -105 -105 0 -105 0 0 105 0 105 105 0
105 0 0 -105z m2560 0 l0 -105 -105 0 -105 0 0 105 0 105 105 0 105 0 0 -105z
m-7671 -167 c2 -10 8 -38 11 -63 11 -69 60 -210 101 -292 116 -230 302 -416
532 -532 82 -41 223 -90 292 -101 86 -13 80 -4 80 -125 0 -121 6 -112 -80
-125 -195 -31 -457 -173 -612 -332 -153 -158 -284 -406 -313 -593 -13 -86 -4
-80 -125 -80 -121 0 -112 -6 -125 80 -12 77 -64 221 -114 315 -115 219 -283
387 -498 498 -96 49 -237 100 -313 112 -86 13 -80 4 -80 125 0 121 -6 112 80
125 69 11 210 60 292 101 284 143 500 393 597 692 16 48 32 107 36 132 13 86
4 80 125 80 95 0 109 -2 114 -17z m2560 0 c2 -10 8 -38 11 -63 11 -69 60 -210
101 -292 116 -230 302 -416 532 -532 82 -41 223 -90 292 -101 86 -13 80 -4 80
-125 0 -121 6 -112 -80 -125 -195 -31 -457 -173 -612 -332 -153 -158 -284
-406 -313 -593 -13 -86 -4 -80 -125 -80 -121 0 -112 -6 -125 80 -12 77 -64
221 -114 315 -115 219 -283 387 -498 498 -96 49 -237 100 -313 112 -86 13 -80
4 -80 125 0 121 -6 112 80 125 69 11 210 60 292 101 230 116 416 302 532 532
41 82 90 223 101 292 13 86 4 80 125 80 95 0 109 -2 114 -17z m2560 0 c2 -10
8 -38 11 -63 11 -69 60 -210 101 -292 116 -230 302 -416 532 -532 82 -41 223
-90 292 -101 86 -13 80 -4 80 -125 0 -121 6 -112 -80 -125 -195 -31 -457 -173
-612 -332 -153 -158 -284 -406 -313 -593 -13 -86 -4 -80 -125 -80 -121 0 -112
-6 -125 80 -12 77 -64 221 -114 315 -115 219 -283 387 -498 498 -96 49 -237
100 -313 112 -86 13 -80 4 -80 125 0 121 -6 112 80 125 69 11 210 60 292 101
230 116 416 302 532 532 41 82 90 223 101 292 13 86 4 80 125 80 95 0 109 -2
114 -17z m2560 0 c2 -10 8 -38 11 -63 11 -69 60 -210 101 -292 116 -230 302
-416 532 -532 82 -41 223 -90 292 -101 86 -13 80 -4 80 -125 0 -121 6 -112
-80 -125 -195 -31 -457 -173 -612 -332 -153 -158 -284 -406 -313 -593 -13 -86
-4 -80 -125 -80 -121 0 -112 -6 -125 80 -12 77 -64 221 -114 315 -115 219
-283 387 -498 498 -96 49 -237 100 -313 112 -86 13 -80 4 -80 125 0 121 -6
112 80 125 69 11 210 60 292 101 230 116 416 302 532 532 41 82 90 223 101
292 13 86 4 80 125 80 95 0 109 -2 114 -17z m-10034 -30 c359 -103 660 -404
763 -764 13 -46 27 -101 30 -121 6 -37 6 -37 -26 -32 -177 32 -354 110 -497
219 -76 59 -197 187 -248 265 -83 125 -155 305 -175 432 l-5 36 36 -5 c20 -3
75 -17 122 -30z m2073 0 c-11 -74 -54 -207 -93 -287 -55 -115 -113 -199 -200
-290 -126 -132 -253 -217 -415 -280 -84 -32 -234 -70 -243 -61 -9 9 50 213 86
294 143 324 445 570 793 646 35 7 67 14 71 14 4 1 4 -16 1 -36z m487 0 c359
-103 660 -404 763 -764 13 -46 27 -101 30 -121 6 -37 6 -37 -26 -32 -177 32
-354 110 -497 219 -76 59 -197 187 -248 265 -83 125 -155 305 -175 432 l-5 36
36 -5 c20 -3 75 -17 122 -30z m2073 0 c-11 -74 -54 -207 -93 -287 -55 -115
-113 -199 -200 -290 -126 -132 -253 -217 -415 -280 -84 -32 -234 -70 -243 -61
-9 9 50 213 86 294 143 324 445 570 793 646 35 7 67 14 71 14 4 1 4 -16 1 -36z
m487 0 c359 -103 660 -404 763 -764 13 -46 27 -101 30 -121 6 -37 6 -37 -26
-32 -177 32 -354 110 -497 219 -76 59 -197 187 -248 265 -83 125 -155 305
-175 432 l-5 36 36 -5 c20 -3 75 -17 122 -30z m2073 0 c-11 -74 -54 -207 -93
-287 -55 -115 -113 -199 -200 -290 -126 -132 -253 -217 -415 -280 -84 -32
-234 -70 -243 -61 -9 9 50 213 86 294 143 324 445 570 793 646 35 7 67 14 71
14 4 1 4 -16 1 -36z m487 0 c359 -103 660 -404 763 -764 13 -46 27 -101 30
-121 6 -37 6 -37 -26 -32 -177 32 -354 110 -497 219 -76 59 -197 187 -248 265
-83 125 -155 305 -175 432 l-5 36 36 -5 c20 -3 75 -17 122 -30z m2073 0 c-11
-74 -54 -207 -93 -287 -55 -115 -113 -199 -200 -290 -126 -132 -253 -217 -415
-280 -84 -32 -234 -70 -243 -61 -9 9 50 213 86 294 143 324 445 570 793 646
35 7 67 14 71 14 4 1 4 -16 1 -36z m487 0 c359 -103 660 -404 763 -764 13 -46
27 -101 30 -121 6 -37 6 -37 -26 -32 -177 32 -354 110 -497 219 -76 59 -197
187 -248 265 -83 125 -155 305 -175 432 l-5 36 36 -5 c20 -3 75 -17 122 -30z
m2073 0 c-11 -74 -54 -207 -93 -287 -55 -115 -113 -199 -200 -290 -126 -132
-253 -217 -415 -280 -84 -32 -234 -70 -243 -61 -9 9 50 213 86 294 143 324
445 570 793 646 35 7 67 14 71 14 4 1 4 -16 1 -36z m-11248 -1083 l0 -105
-105 0 -105 0 0 105 0 105 105 0 105 0 0 -105z m2560 0 l0 -105 -105 0 -105 0
0 105 0 105 105 0 105 0 0 -105z m2560 0 l0 -105 -105 0 -105 0 0 105 0 105
105 0 105 0 0 -105z m2560 0 l0 -105 -105 0 -105 0 0 105 0 105 105 0 105 0 0
-105z m2560 0 l0 -105 -105 0 -105 0 0 105 0 105 105 0 105 0 0 -105z m-10231
-167 c2 -10 8 -38 11 -63 11 -69 60 -210 101 -292 116 -230 302 -416 532 -532
82 -41 223 -90 292 -101 86 -13 80 -4 80 -125 0 -121 6 -112 -80 -125 -195
-31 -457 -173 -612 -332 -153 -158 -284 -406 -313 -593 -13 -86 -4 -80 -125
-80 -121 0 -112 -6 -125 80 -12 77 -64 221 -114 315 -115 219 -283 387 -498
498 -96 49 -237 100 -313 112 -86 13 -80 4 -80 125 0 121 -6 112 80 125 69 11
210 60 292 101 230 116 416 302 532 532 41 82 90 223 101 292 13 86 4 80 125
80 95 0 109 -2 114 -17z m2560 0 c2 -10 8 -38 11 -63 11 -69 60 -210 101 -292
116 -230 302 -416 532 -532 82 -41 223 -90 292 -101 86 -13 80 -4 80 -125 0
-121 6 -112 -80 -125 -195 -31 -457 -173 -612 -332 -153 -158 -284 -406 -313
-593 -13 -86 -4 -80 -125 -80 -121 0 -112 -6 -125 80 -12 77 -64 221 -114 315
-115 219 -283 387 -498 498 -96 49 -237 100 -313 112 -86 13 -80 4 -80 125 0
121 -6 112 80 125 69 11 210 60 292 101 230 116 416 302 532 532 41 82 90 223
101 292 13 86 4 80 125 80 95 0 109 -2 114 -17z m2560 0 c2 -10 8 -38 11 -63
11 -69 60 -210 101 -292 116 -230 302 -416 532 -532 82 -41 223 -90 292 -101
86 -13 80 -4 80 -125 0 -121 6 -112 -80 -125 -195 -31 -457 -173 -612 -332
-153 -158 -284 -406 -313 -593 -13 -86 -4 -80 -125 -80 -121 0 -112 -6 -125
80 -12 77 -64 221 -114 315 -115 219 -283 387 -498 498 -96 49 -237 100 -313
112 -86 13 -80 4 -80 125 0 121 -6 112 80 125 69 11 210 60 292 101 230 116
416 302 532 532 41 82 90 223 101 292 13 86 4 80 125 80 95 0 109 -2 114 -17z
m2560 0 c2 -10 8 -38 11 -63 11 -69 60 -210 101 -292 116 -230 302 -416 532
-532 82 -41 223 -90 292 -101 86 -13 80 -4 80 -125 0 -121 6 -112 -80 -125
-195 -31 -457 -173 -612 -332 -153 -158 -284 -406 -313 -593 -13 -86 -4 -80
-125 -80 -121 0 -112 -6 -125 80 -12 77 -64 221 -114 315 -115 219 -283 387
-498 498 -96 49 -237 100 -313 112 -86 13 -80 4 -80 125 0 121 -6 112 80 125
69 11 210 60 292 101 230 116 416 302 532 532 41 82 90 223 101 292 13 86 4
80 125 80 95 0 109 -2 114 -17z m2560 0 c2 -10 8 -38 11 -63 11 -69 60 -210
101 -292 143 -284 393 -500 692 -597 48 -16 107 -32 132 -36 86 -13 80 -4 80
-125 0 -121 6 -112 -80 -125 -195 -31 -457 -173 -612 -332 -153 -158 -284
-406 -313 -593 -13 -86 -4 -80 -125 -80 -121 0 -112 -6 -125 80 -12 77 -64
221 -114 315 -115 219 -283 387 -498 498 -96 49 -237 100 -313 112 -86 13 -80
4 -80 125 0 121 -6 112 80 125 69 11 210 60 292 101 230 116 416 302 532 532
41 82 90 223 101 292 13 86 4 80 125 80 95 0 109 -2 114 -17z m-10521 -30
c-11 -74 -54 -207 -93 -287 -55 -115 -113 -199 -200 -290 -126 -132 -253 -217
-415 -280 -84 -32 -234 -70 -243 -61 -9 9 50 213 86 294 143 324 445 570 793
646 35 7 67 14 71 14 4 1 4 -16 1 -36z m487 0 c359 -103 660 -404 763 -764 13
-46 27 -101 30 -121 6 -37 6 -37 -26 -32 -177 32 -354 110 -497 219 -76 59
-197 187 -248 265 -83 125 -155 305 -175 432 l-5 36 36 -5 c20 -3 75 -17 122
-30z m2073 0 c-11 -74 -54 -207 -93 -287 -55 -115 -113 -199 -200 -290 -126
-132 -253 -217 -415 -280 -84 -32 -234 -70 -243 -61 -9 9 50 213 86 294 143
324 445 570 793 646 35 7 67 14 71 14 4 1 4 -16 1 -36z m487 0 c359 -103 660
-404 763 -764 13 -46 27 -101 30 -121 6 -37 6 -37 -26 -32 -177 32 -354 110
-497 219 -76 59 -197 187 -248 265 -83 125 -155 305 -175 432 l-5 36 36 -5
c20 -3 75 -17 122 -30z m2073 0 c-11 -74 -54 -207 -93 -287 -55 -115 -113
-199 -200 -290 -126 -132 -253 -217 -415 -280 -84 -32 -234 -70 -243 -61 -9 9
50 213 86 294 143 324 445 570 793 646 35 7 67 14 71 14 4 1 4 -16 1 -36z
m487 0 c359 -103 660 -404 763 -764 13 -46 27 -101 30 -121 6 -37 6 -37 -26
-32 -177 32 -354 110 -497 219 -76 59 -197 187 -248 265 -83 125 -155 305
-175 432 l-5 36 36 -5 c20 -3 75 -17 122 -30z m2073 0 c-11 -74 -54 -207 -93
-287 -55 -115 -113 -199 -200 -290 -126 -132 -253 -217 -415 -280 -84 -32
-234 -70 -243 -61 -9 9 50 213 86 294 143 324 445 570 793 646 35 7 67 14 71
14 4 1 4 -16 1 -36z m487 0 c359 -103 660 -404 763 -764 13 -46 27 -101 30
-121 6 -37 6 -37 -26 -32 -177 32 -354 110 -497 219 -76 59 -197 187 -248 265
-83 125 -155 305 -175 432 l-5 36 36 -5 c20 -3 75 -17 122 -30z m2073 0 c-11
-74 -54 -207 -93 -287 -55 -115 -113 -199 -200 -290 -126 -132 -253 -217 -415
-280 -84 -32 -234 -70 -243 -61 -9 9 50 213 86 294 143 324 445 570 793 646
35 7 67 14 71 14 4 1 4 -16 1 -36z m487 0 c359 -103 660 -404 763 -764 13 -46
27 -101 30 -121 6 -37 6 -37 -26 -32 -177 32 -354 110 -497 219 -76 59 -197
187 -248 265 -83 125 -155 305 -175 432 l-5 36 36 -5 c20 -3 75 -17 122 -30z
m-9175 -1083 l0 -105 -105 0 -105 0 0 105 0 105 105 0 105 0 0 -105z m2560 0
l0 -105 -105 0 -105 0 0 105 0 105 105 0 105 0 0 -105z m2560 0 l0 -105 -105
0 -105 0 0 105 0 105 105 0 105 0 0 -105z m2560 0 l0 -105 -105 0 -105 0 0
105 0 105 105 0 105 0 0 -105z m-10025 -197 c359 -103 660 -404 763 -764 13
-46 27 -101 30 -121 6 -37 6 -37 -26 -32 -177 32 -354 110 -497 219 -76 59
-197 187 -248 265 -83 125 -155 305 -175 432 l-5 36 36 -5 c20 -3 75 -17 122
-30z m2073 0 c-11 -74 -54 -207 -93 -287 -55 -115 -113 -199 -200 -290 -126
-132 -253 -217 -415 -280 -84 -32 -234 -70 -243 -61 -9 9 50 213 86 294 143
324 445 570 793 646 35 7 67 14 71 14 4 1 4 -16 1 -36z m487 0 c359 -103 660
-404 763 -764 13 -46 27 -101 30 -121 6 -37 6 -37 -26 -32 -177 32 -354 110
-497 219 -76 59 -197 187 -248 265 -83 125 -155 305 -175 432 l-5 36 36 -5
c20 -3 75 -17 122 -30z m2073 0 c-11 -74 -54 -207 -93 -287 -55 -115 -113
-199 -200 -290 -126 -132 -253 -217 -415 -280 -84 -32 -234 -70 -243 -61 -9 9
50 213 86 294 143 324 445 570 793 646 35 7 67 14 71 14 4 1 4 -16 1 -36z
m487 0 c359 -103 660 -404 763 -764 13 -46 27 -101 30 -121 6 -37 6 -37 -26
-32 -177 32 -354 110 -497 219 -76 59 -197 187 -248 265 -83 125 -155 305
-175 432 l-5 36 36 -5 c20 -3 75 -17 122 -30z m2073 0 c-11 -74 -54 -207 -93
-287 -55 -115 -113 -199 -200 -290 -126 -132 -253 -217 -415 -280 -84 -32
-234 -70 -243 -61 -9 9 50 213 86 294 143 324 445 570 793 646 35 7 67 14 71
14 4 1 4 -16 1 -36z m487 0 c359 -103 660 -404 763 -764 13 -46 27 -101 30
-121 6 -37 6 -37 -26 -32 -177 32 -354 110 -497 219 -76 59 -197 187 -248 265
-83 125 -155 305 -175 432 l-5 36 36 -5 c20 -3 75 -17 122 -30z m2073 0 c-11
-74 -54 -207 -93 -287 -55 -115 -113 -199 -200 -290 -126 -132 -253 -217 -415
-280 -84 -32 -234 -70 -243 -61 -9 9 50 213 86 294 143 324 445 570 793 646
35 7 67 14 71 14 4 1 4 -16 1 -36z m487 0 c359 -103 660 -404 763 -764 13 -46
27 -101 30 -121 6 -37 6 -37 -26 -32 -177 32 -354 110 -497 219 -76 59 -197
187 -248 265 -83 125 -155 305 -175 432 l-5 36 36 -5 c20 -3 75 -17 122 -30z
m2073 0 c-11 -74 -54 -207 -93 -287 -55 -115 -113 -199 -200 -290 -126 -132
-253 -217 -415 -280 -84 -32 -234 -70 -243 -61 -9 9 50 213 86 294 143 324
445 570 793 646 35 7 67 14 71 14 4 1 4 -16 1 -36z"/>
</g>
</svg>
