<svg width="1080" height="1080" xmlns="http://www.w3.org/2000/svg" version="1.0" preserveAspectRatio="xMidYMid meet">
 <g id="Layer_1">
  <title>Layer 1</title>
  <path id="svg_3" d="m48.83602,307.79242c16.08923,-0.1294 32.17844,-0.25882 48.26767,-0.38822c0.10593,-20.46804 0.21185,-40.93608 0.31777,-61.40409c16.01236,0 32.02473,0 48.0371,0c0,-20.59361 0,-41.18723 0,-61.78083c16.42241,0 32.84481,0 49.26723,0c0,-20.09132 0,-40.18265 0,-60.27397c16.21965,0 32.4393,0 48.65897,0c0,-20.09131 0,-40.18265 0,-60.27397c24.12675,0 48.2535,0 72.38024,0c0,10.04566 0,20.09132 0,30.13699c-16.01694,0 -32.03383,0 -48.05077,0c0,20.34246 0,40.68493 0,61.0274c-16.21964,0 -32.4393,0 -48.65897,0c0,20.34247 0,40.68494 0,61.0274c-16.21967,0 -32.4393,0 -48.65897,0c0,20.34246 0,40.68494 0,61.02737c-16.42241,0 -32.84482,0 -49.26722,0c0,20.59363 0,41.18723 0,61.78082c-24.3295,0 -48.65898,0 -72.98848,0c1.08462,-9.98286 -1.84902,-21.23965 0.69543,-30.87888l0,-0.00001z" stroke="#ffffff" fill="#1334db"/>
  <path id="svg_4" d="m377.70213,327.22777c16.50947,-0.13552 33.01892,-0.27106 49.52839,-0.40657c0.1087,-21.43562 0.21738,-42.87124 0.32607,-64.30684c16.43059,0 32.86119,0 49.29179,0c0,-21.56713 0,-43.13426 0,-64.70138c16.85136,0 33.70269,0 50.55405,0c0,-21.0411 0,-42.08219 0,-63.12329c16.6433,0 33.2866,0 49.92991,0c0,-21.04109 0,-42.08219 0,-63.12329c24.75692,0 49.51384,0 74.27076,0c0,10.52055 0,21.0411 0,31.56165c-16.4353,0 -32.87053,0 -49.30582,0c0,21.30411 0,42.60822 0,63.91234c-16.64329,0 -33.28659,0 -49.92991,0c0,21.30412 0,42.60823 0,63.91234c-16.64332,0 -33.2866,0 -49.92991,0c0,21.30411 0,42.60823 0,63.9123c-16.85136,0 -33.7027,0 -50.55404,0c0,21.56714 0,43.13426 0,64.70137c-24.96497,0 -49.92992,0 -74.89488,0c1.11295,-10.45478 -1.89731,-22.24371 0.71359,-32.33861l0,-0.00001z" stroke="#ffffff" fill="#1334db"/>
  <path id="svg_5" d="m730.53883,320.743c18.01033,-0.12517 36.02064,-0.25035 54.03097,-0.37551c0.11858,-19.79818 0.23714,-39.59636 0.35572,-59.39451c17.92428,0 35.84858,0 53.77287,0c0,-19.91964 0,-39.83929 0,-59.75892c18.3833,0 36.76658,0 55.14987,0c0,-19.43379 0,-38.86758 0,-58.30138c18.15633,0 36.31265,0 54.469,0c0,-19.43378 0,-38.86758 0,-58.30138c27.00755,0 54.0151,0 81.02265,0c0,9.7169 0,19.43379 0,29.15069c-17.92941,0 -35.85876,0 -53.78817,0c0,19.67671 0,39.35343 0,59.03015c-18.15632,0 -36.31264,0 -54.469,0c0,19.67672 0,39.35344 0,59.03015c-18.15635,0 -36.31265,0 -54.469,0c0,19.67671 0,39.35344 0,59.03012c-18.3833,0 -36.76659,0 -55.14986,0c0,19.91965 0,39.83929 0,59.75891c-27.23451,0 -54.46901,0 -81.70351,0c1.21412,-9.65615 -2.0698,-20.54454 0.77846,-29.8683l0,-0.00001z" stroke="#ffffff" fill="#1334db"/>
  <path id="svg_6" d="m184.7114,423.30592c9.48544,-0.10399 18.97087,-0.208 28.45631,-0.31198c0.06245,-16.44886 0.1249,-32.89772 0.18734,-49.34656c9.44012,0 18.88025,0 28.32038,0c0,-16.54978 0,-33.09955 0,-49.64932c9.68187,0 19.36373,0 29.0456,0c0,-16.14612 0,-32.29224 0,-48.43835c9.56233,0 19.12467,0 28.68701,0c0,-16.14611 0,-32.29224 0,-48.43835c14.22398,0 28.44796,0 42.67194,0c0,8.07306 0,16.14612 0,24.21918c-9.44283,0 -18.88561,0 -28.32844,0c0,16.34794 0,32.69589 0,49.04384c-9.56233,0 -19.12466,0 -28.68701,0c0,16.34795 0,32.6959 0,49.04384c-9.56234,0 -19.12467,0 -28.68701,0c0,16.34794 0,32.6959 0,49.04381c-9.68187,0 -19.36374,0 -29.0456,0c0,16.54979 0,33.09955 0,49.64931c-14.34351,0 -28.68701,0 -43.03052,0c0.63944,-8.02259 -1.09009,-17.06896 0.40999,-24.81539l0,-0.00001z" stroke="#ffffff" fill="#1334db"/>
  <path id="svg_7" d="m583.09063,436.98019c7.92455,-0.1134 15.84909,-0.22682 23.77363,-0.34022c0.05218,-17.93745 0.10434,-35.87489 0.15651,-53.81232c7.88669,0 15.77338,0 23.66007,0c0,-18.0475 0,-36.09499 0,-54.14248c8.08865,0 16.1773,0 24.26595,0c0,-17.60731 0,-35.21461 0,-52.82192c7.98879,0 15.97757,0 23.96637,0c0,-17.6073 0,-35.21461 0,-52.82192c11.88333,0 23.76665,0 35.64998,0c0,8.80365 0,17.60731 0,26.41096c-7.88894,0 -15.77786,0 -23.6668,0c0,17.8274 0,35.65479 0,53.4822c-7.98878,0 -15.97757,0 -23.96637,0c0,17.82741 0,35.6548 0,53.4822c-7.98879,0 -15.97757,0 -23.96637,0c0,17.8274 0,35.6548 0,53.48217c-8.08865,0 -16.1773,0 -24.26595,0c0,18.04751 0,36.09499 0,54.14247c-11.98319,0 -23.96637,0 -35.94955,0c0.53421,-8.74862 -0.91071,-18.61366 0.34252,-27.06113l0,-0.00001z" stroke="#ffffff" fill="#1334db"/>
  <path id="svg_8" d="m934.80956,433.68949c7.5043,-0.10634 15.00859,-0.21271 22.51289,-0.31904c0.04941,-16.82101 0.09881,-33.64202 0.14821,-50.46301c7.46845,0 14.9369,0 22.40535,0c0,-16.92421 0,-33.84842 0,-50.77262c7.6597,0 15.3194,0 22.9791,0c0,-16.51142 0,-33.02284 0,-49.53425c7.56513,0 15.13026,0 22.6954,0c0,-16.51141 0,-33.02284 0,-49.53425c11.25314,0 22.50628,0 33.75942,0c0,8.25571 0,16.51142 0,24.76713c-7.47059,0 -14.94114,0 -22.41173,0c0,16.71781 0,33.43562 0,50.15344c-7.56513,0 -15.13026,0 -22.6954,0c0,16.71782 0,33.43563 0,50.15344c-7.56514,0 -15.13026,0 -22.6954,0c0,16.71781 0,33.43563 0,50.15341c-7.6597,0 -15.3194,0 -22.9791,0c0,16.92422 0,33.84842 0,50.77261c-11.34771,0 -22.69541,0 -34.04311,0c0.50588,-8.2041 -0.86242,-17.45513 0.32436,-25.37683l0,-0.00001z" stroke="#ffffff" fill="#1334db"/>
  <path id="svg_9" d="m400.31075,147.3009c4.74272,-0.05976 9.48544,-0.11953 14.22816,-0.17928c0.03123,-9.45251 0.06245,-18.90503 0.09367,-28.35753c4.72006,0 9.44013,0 14.16019,0c0,-9.51051 0,-19.02101 0,-28.53151c4.84094,0 9.68187,0 14.5228,0c0,-9.27854 0,-18.55708 0,-27.83562c4.78117,0 9.56233,0 14.34351,0c0,-9.27853 0,-18.55708 0,-27.83562c7.11199,0 14.22398,0 21.33597,0c0,4.63927 0,9.27854 0,13.91781c-4.72141,0 -9.44281,0 -14.16422,0c0,9.39452 0,18.78904 0,28.18357c-4.78116,0 -9.56233,0 -14.34351,0c0,9.39453 0,18.78905 0,28.18357c-4.78117,0 -9.56233,0 -14.34351,0c0,9.39452 0,18.78905 0,28.18355c-4.84094,0 -9.68187,0 -14.5228,0c0,9.51051 0,19.02101 0,28.53151c-7.17176,0 -14.34351,0 -21.51526,0c0.31972,-4.61027 -0.54505,-9.80886 0.205,-14.26043l0,-0.00001z" stroke="#ffffff" fill="#1334db"/>
  <path id="svg_10" d="m733.69163,131.94233c5.5832,-0.05741 11.1664,-0.11482 16.7496,-0.17223c0.03676,-9.08037 0.07351,-18.16074 0.11027,-27.24109c5.55653,0 11.11306,0 16.66959,0c0,-9.13608 0,-18.27216 0,-27.40823c5.69882,0 11.39764,0 17.09646,0c0,-8.91324 0,-17.82649 0,-26.73973c5.62846,0 11.25692,0 16.88539,0c0,-8.91324 0,-17.82649 0,-26.73973c8.37234,0 16.74468,0 25.11702,0c0,4.45662 0,8.91324 0,13.36987c-5.55812,0 -11.11621,0 -16.67433,0c0,9.02466 0,18.04932 0,27.07398c-5.62846,0 -11.25692,0 -16.88539,0c0,9.02466 0,18.04932 0,27.07398c-5.62847,0 -11.25692,0 -16.88539,0c0,9.02466 0,18.04932 0,27.07396c-5.69882,0 -11.39764,0 -17.09645,0c0,9.13608 0,18.27216 0,27.40822c-8.4427,0 -16.88539,0 -25.32808,0c0.37638,-4.42876 -0.64164,-9.42268 0.24132,-13.699l0,0z" stroke="#ffffff" fill="#1334db"/>
  <path id="svg_11" d="m779.55764,459.81943c7.02403,-0.06258 14.04806,-0.12518 21.07209,-0.18775c0.04625,-9.89909 0.09249,-19.79817 0.13873,-29.69725c6.99047,0 13.98095,0 20.97143,0c0,-9.95982 0,-19.91964 0,-29.87945c7.16949,0 14.33897,0 21.50846,0c0,-9.71689 0,-19.43379 0,-29.15068c7.08097,0 14.16194,0 21.24292,0c0,-9.71689 0,-19.43379 0,-29.15068c10.53295,0 21.0659,0 31.59885,0c0,4.85845 0,9.71689 0,14.57534c-6.99247,0 -13.98492,0 -20.9774,0c0,9.83835 0,19.67671 0,29.51507c-7.08097,0 -14.16194,0 -21.24292,0c0,9.83836 0,19.67671 0,29.51507c-7.08098,0 -14.16194,0 -21.24292,0c0,9.83835 0,19.67671 0,29.51505c-7.16949,0 -14.33898,0 -21.50846,0c0,9.95982 0,19.91964 0,29.87945c-10.62147,0 -21.24292,0 -31.86438,0c0.47351,-4.82807 -0.80722,-10.27227 0.3036,-14.93415l0,-0.00001z" stroke="#ffffff" fill="#1334db"/>
  <path id="svg_12" d="m28.26863,137.70336c6.06348,-0.05411 12.12695,-0.10824 18.19043,-0.16234c0.03992,-8.55936 0.07984,-17.11872 0.11976,-25.67807c6.03451,0 12.06902,0 18.10353,0c0,-8.61187 0,-17.22375 0,-25.83562c6.18904,0 12.37808,0 18.56713,0c0,-8.40183 0,-16.80365 0,-25.20548c6.11263,0 12.22526,0 18.3379,0c0,-8.40182 0,-16.80365 0,-25.20548c9.09254,0 18.18509,0 27.27763,0c0,4.20091 0,8.40183 0,12.60274c-6.03624,0 -12.07245,0 -18.10868,0c0,8.50685 0,17.0137 0,25.52055c-6.11263,0 -12.22526,0 -18.3379,0c0,8.50685 0,17.0137 0,25.52055c-6.11264,0 -12.22526,0 -18.3379,0c0,8.50685 0,17.0137 0,25.52053c-6.18904,0 -12.37808,0 -18.56712,0c0,8.61188 0,17.22375 0,25.83561c-9.16895,0 -18.3379,0 -27.50685,0c0.40875,-4.17465 -0.69683,-8.88204 0.26208,-12.91299l0,0z" stroke="#ffffff" fill="#1334db"/>
  <path id="svg_13" d="m329.56176,460.00968c3.18182,-0.04094 6.36364,-0.08188 9.54547,-0.12282c0.02095,-6.47534 0.0419,-12.95069 0.06284,-19.42602c3.16662,0 6.33325,0 9.49987,0c0,-6.51507 0,-13.03014 0,-19.54521c3.24771,0 6.49543,0 9.74314,0c0,-6.35616 0,-12.71233 0,-19.06849c3.20762,0 6.41523,0 9.62285,0c0,-6.35616 0,-12.71233 0,-19.06849c4.77133,0 9.54266,0 14.31399,0c0,3.17808 0,6.35616 0,9.53425c-3.16753,0 -6.33504,0 -9.50257,0c0,6.43562 0,12.87123 0,19.30685c-3.20761,0 -6.41523,0 -9.62285,0c0,6.43562 0,12.87124 0,19.30685c-3.20762,0 -6.41523,0 -9.62285,0c0,6.43562 0,12.87124 0,19.30684c-3.24771,0 -6.49543,0 -9.74314,0c0,6.51507 0,13.03014 0,19.54521c-4.81143,0 -9.62285,0 -14.43428,0c0.21449,-3.15821 -0.36566,-6.71945 0.13753,-9.76896l0,0z" stroke="#ffffff" fill="#1334db"/>
  <path id="svg_14" d="m468.11457,468.68914c6.90396,-0.08893 13.80791,-0.17788 20.71187,-0.26681c0.04546,-14.06713 0.0909,-28.13426 0.13636,-42.20137c6.87098,0 13.74195,0 20.61293,0c0,-14.15343 0,-28.30687 0,-42.46029c7.04693,0 14.09385,0 21.14079,0c0,-13.80822 0,-27.61644 0,-41.42467c6.95992,0 13.91985,0 20.87978,0c0,-13.80821 0,-27.61644 0,-41.42467c10.35289,0 20.70579,0 31.05868,0c0,6.90411 0,13.80822 0,20.71233c-6.87294,0 -13.74586,0 -20.6188,0c0,13.98082 0,27.96165 0,41.94248c-6.95992,0 -13.91985,0 -20.87978,0c0,13.98083 0,27.96166 0,41.94248c-6.95993,0 -13.91985,0 -20.87978,0c0,13.98082 0,27.96166 0,41.94246c-7.04693,0 -14.09386,0 -21.14078,0c0,14.15344 0,28.30687 0,42.46028c-10.4399,0 -20.87979,0 -31.31968,0c0.46541,-6.86095 -0.79342,-14.59744 0.29841,-21.22222l0,-0.00001z" stroke="#ffffff" fill="#1334db"/>
  <path id="svg_15" d="m704.13798,83.312c2.70155,-0.02353 5.40309,-0.04706 8.10464,-0.07058c0.01779,-3.72146 0.03557,-7.44292 0.05336,-11.16438c2.68864,0 5.37728,0 8.06593,0c0,-3.74429 0,-7.48859 0,-11.23288c2.75749,0 5.51498,0 8.27248,0c0,-3.65297 0,-7.30594 0,-10.95891c2.72345,0 5.4469,0 8.17035,0c0,-3.65297 0,-7.30594 0,-10.95891c4.05113,0 8.10226,0 12.15339,0c0,1.82648 0,3.65297 0,5.47945c-2.68941,0 -5.37881,0 -8.06822,0c0,3.69863 0,7.39726 0,11.09589c-2.72345,0 -5.44689,0 -8.17035,0c0,3.69863 0,7.39726 0,11.09589c-2.72345,0 -5.4469,0 -8.17035,0c0,3.69863 0,7.39726 0,11.09589c-2.75749,0 -5.51499,0 -8.27248,0c0,3.7443 0,7.48859 0,11.23288c-4.08518,0 -8.17035,0 -12.25552,0c0.18212,-1.81507 -0.31047,-3.86176 0.11677,-5.61434l0,0z" stroke="#ffffff" fill="#1334db"/>
  <path id="svg_16" d="m820.29252,143.19306c6.12351,-0.06447 12.24702,-0.12894 18.37053,-0.1934c0.04032,-10.1968 0.08063,-20.39361 0.12094,-30.5904c6.09425,0 12.18851,0 18.28277,0c0,-10.25936 0,-20.51873 0,-30.77809c6.25032,0 12.50063,0 18.75095,0c0,-10.00913 0,-20.01826 0,-30.0274c6.17315,0 12.3463,0 18.51946,0c0,-10.00913 0,-20.01826 0,-30.0274c9.18257,0 18.36513,0 27.5477,0c0,5.00457 0,10.00913 0,15.0137c-6.096,0 -12.19197,0 -18.28797,0c0,10.13425 0,20.26849 0,30.40274c-6.17315,0 -12.3463,0 -18.51946,0c0,10.13425 0,20.2685 0,30.40274c-6.17316,0 -12.3463,0 -18.51946,0c0,10.13425 0,20.2685 0,30.40273c-6.25032,0 -12.50064,0 -18.75095,0c0,10.25937 0,20.51873 0,30.77808c-9.25973,0 -18.51946,0 -27.77919,0c0.4128,-4.97328 -0.70373,-10.58121 0.26468,-15.3833l0,-0.00001z" stroke="#ffffff" fill="#1334db"/>
  <path id="svg_17" d="m923.5968,306.56328c3.482,-0.04282 6.96399,-0.08565 10.44599,-0.12846c0.02293,-6.77306 0.04585,-13.54612 0.06877,-20.31918c3.46536,0 6.93073,0 10.39609,0c0,-6.81462 0,-13.62923 0,-20.44384c3.55411,0 7.10821,0 10.66231,0c0,-6.6484 0,-13.29681 0,-19.94521c3.51022,0 7.02045,0 10.53068,0c0,-6.6484 0,-13.29681 0,-19.94521c5.22146,0 10.44292,0 15.66438,0c0,3.3242 0,6.6484 0,9.9726c-3.46635,0 -6.93269,0 -10.39905,0c0,6.73151 0,13.46302 0,20.19453c-3.51022,0 -7.02045,0 -10.53068,0c0,6.73151 0,13.46302 0,20.19453c-3.51023,0 -7.02045,0 -10.53068,0c0,6.73151 0,13.46302 0,20.19452c-3.55411,0 -7.10821,0 -10.66231,0c0,6.81462 0,13.62923 0,20.44384c-5.26534,0 -10.53068,0 -15.79602,0c0.23473,-3.30342 -0.40016,-7.02839 0.1505,-10.21811l0,0z" stroke="#ffffff" fill="#1334db"/>
  <path id="svg_18" d="m596.36166,225.42239c5.28303,-0.04094 10.56606,-0.08188 15.84909,-0.12282c0.03478,-6.47534 0.06956,-12.95069 0.10434,-19.42603c5.25779,0 10.51558,0 15.77338,0c0,-6.51507 0,-13.03014 0,-19.54521c5.39244,0 10.78487,0 16.1773,0c0,-6.35617 0,-12.71233 0,-19.0685c5.32586,0 10.65171,0 15.97758,0c0,-6.35616 0,-12.71233 0,-19.0685c7.92222,0 15.84443,0 23.76665,0c0,3.17808 0,6.35617 0,9.53425c-5.2593,0 -10.51857,0 -15.77787,0c0,6.43562 0,12.87123 0,19.30686c-5.32585,0 -10.65171,0 -15.97758,0c0,6.43562 0,12.87124 0,19.30686c-5.32586,0 -10.65171,0 -15.97758,0c0,6.43562 0,12.87124 0,19.30684c-5.39244,0 -10.78487,0 -16.1773,0c0,6.51508 0,13.03014 0,19.54521c-7.98879,0 -15.97758,0 -23.96637,0c0.35614,-3.15822 -0.60714,-6.71945 0.22835,-9.76896l0,0z" stroke="#ffffff" fill="#1334db"/>
  <path id="svg_19" d="m294.13346,152.60966c9.0652,-0.05741 18.13039,-0.11482 27.19559,-0.17223c0.05969,-9.08037 0.11936,-18.16073 0.17904,-27.24109c9.02189,0 18.04379,0 27.06568,0c0,-9.13608 0,-18.27215 0,-27.40822c9.25293,0 18.50585,0 27.75878,0c0,-8.91324 0,-17.82648 0,-26.73973c9.13869,0 18.27737,0 27.41607,0c0,-8.91324 0,-17.82648 0,-26.73973c13.5938,0 27.18761,0 40.78141,0c0,4.45662 0,8.91324 0,13.36986c-9.02447,0 -18.04891,0 -27.07338,0c0,9.02466 0,18.04931 0,27.07398c-9.13868,0 -18.27737,0 -27.41607,0c0,9.02466 0,18.04932 0,27.07398c-9.1387,0 -18.27737,0 -27.41607,0c0,9.02466 0,18.04932 0,27.07396c-9.25293,0 -18.50585,0 -27.75877,0c0,9.13608 0,18.27215 0,27.40822c-13.70804,0 -27.41607,0 -41.12411,0c0.61111,-4.42876 -1.0418,-9.42268 0.39183,-13.699l0,0z" stroke="#ffffff" fill="#1334db"/>
  <path id="svg_20" d="m34.35053,458.81382c7.74444,-0.03859 15.48888,-0.07718 23.23332,-0.11576c0.05099,-6.1032 0.10197,-12.2064 0.15296,-18.30959c7.70744,0 15.41489,0 23.12234,0c0,-6.14064 0,-12.28129 0,-18.42193c7.90482,0 15.80963,0 23.71445,0c0,-5.99087 0,-11.98174 0,-17.97261c7.80722,0 15.61444,0 23.42167,0c0,-5.99087 0,-11.98174 0,-17.97261c11.61325,0 23.2265,0 34.83974,0c0,2.99543 0,5.99087 0,8.9863c-7.70965,0 -15.41927,0 -23.12891,0c0,6.06576 0,12.13151 0,18.19727c-7.80722,0 -15.61444,0 -23.42167,0c0,6.06576 0,12.13151 0,18.19727c-7.80723,0 -15.61444,0 -23.42167,0c0,6.06576 0,12.13151 0,18.19726c-7.90482,0 -15.80963,0 -23.71444,0c0,6.14065 0,12.28129 0,18.42192c-11.71084,0 -23.42167,0 -35.13251,0c0.52207,-2.97671 -0.89001,-6.33328 0.33474,-9.20752l0,0z" stroke="#ffffff" fill="#1334db"/>
  <path id="svg_21" d="m641.36047,488.48922c8.64495,-0.056 17.2899,-0.112 25.93486,-0.16799c0.05692,-8.85708 0.11383,-17.71416 0.17074,-26.57123c8.60365,0 17.20731,0 25.81097,0c0,-8.91142 0,-17.82284 0,-26.73426c8.82398,0 17.64795,0 26.47193,0c0,-8.69407 0,-17.38813 0,-26.0822c8.71503,0 17.43007,0 26.14511,0c0,-8.69406 0,-17.38813 0,-26.0822c12.96362,0 25.92724,0 38.89086,0c0,4.34703 0,8.69407 0,13.0411c-8.60612,0 -17.2122,0 -25.81831,0c0,8.80274 0,17.60548 0,26.40823c-8.71503,0 -17.43006,0 -26.14511,0c0,8.80275 0,17.60549 0,26.40823c-8.71504,0 -17.43007,0 -26.14511,0c0,8.80274 0,17.60549 0,26.40821c-8.82398,0 -17.64796,0 -26.47193,0c0,8.91143 0,17.82284 0,26.73425c-13.07256,0 -26.14512,0 -39.21767,0c0.58278,-4.31986 -0.9935,-9.19098 0.37366,-13.36214l0,0z" stroke="#ffffff" fill="#1334db"/>
  <path id="svg_22" d="m1003.12892,42.56375c2.46141,-0.01082 4.92282,-0.02165 7.38423,-0.03247c0.01621,-1.71187 0.03241,-3.42374 0.04861,-5.13562c2.44965,0 4.8993,0 7.34895,0c0,-1.72238 0,-3.44475 0,-5.16712c2.51238,0 5.02476,0 7.53714,0c0,-1.68037 0,-3.36073 0,-5.0411c2.48136,0 4.96272,0 7.44409,0c0,-1.68036 0,-3.36073 0,-5.0411c3.69103,0 7.38206,0 11.07309,0c0,0.84018 0,1.68037 0,2.52055c-2.45035,0 -4.90069,0 -7.35104,0c0,1.70137 0,3.40274 0,5.10411c-2.48136,0 -4.96272,0 -7.44409,0c0,1.70137 0,3.40274 0,5.10411c-2.48136,0 -4.96272,0 -7.44409,0c0,1.70137 0,3.40274 0,5.10411c-2.51238,0 -5.02476,0 -7.53714,0c0,1.72238 0,3.44475 0,5.16712c-3.72205,0 -7.44409,0 -11.16614,0c0.16593,-0.83493 -0.28287,-1.77641 0.10639,-2.5826l0,0z" stroke="#ffffff" fill="#1334db"/>
  <path id="svg_23" d="m1007.61685,188.75084c2.76158,-0.032 5.52317,-0.064 8.28475,-0.096c0.01818,-5.06119 0.03636,-10.12238 0.05454,-15.18356c2.74839,0 5.49678,0 8.24518,0c0,-5.09224 0,-10.18448 0,-15.27672c2.81877,0 5.63754,0 8.45632,0c0,-4.96804 0,-9.93607 0,-14.90411c2.78397,0 5.56794,0 8.35192,0c0,-4.96803 0,-9.93607 0,-14.90411c4.14116,0 8.28232,0 12.42348,0c0,2.48402 0,4.96804 0,7.45206c-2.74918,0 -5.49835,0 -8.24752,0c0,5.03014 0,10.06027 0,15.09041c-2.78397,0 -5.56794,0 -8.35192,0c0,5.03014 0,10.06028 0,15.09041c-2.78397,0 -5.56794,0 -8.35192,0c0,5.03014 0,10.06028 0,15.09041c-2.81877,0 -5.63755,0 -8.45632,0c0,5.09224 0,10.18448 0,15.27671c-4.17596,0 -8.35192,0 -12.52788,0c0.18617,-2.46849 -0.31737,-5.25199 0.11936,-7.63551l0,0z" stroke="#ffffff" fill="#1334db"/>
  <path id="svg_24" d="m46.52631,205.88128c11.28647,-0.09364 22.57294,-0.1873 33.85941,-0.28093c0.07431,-14.81142 0.14861,-29.62284 0.22291,-44.43424c11.23255,0 22.46511,0 33.69767,0c0,-14.90229 0,-29.80458 0,-44.70686c11.5202,0 23.04039,0 34.56059,0c0,-14.53881 0,-29.07763 0,-43.61644c11.37796,0 22.75593,0 34.13391,0c0,-14.53881 0,-29.07763 0,-43.61644c16.92473,0 33.84947,0 50.7742,0c0,7.26941 0,14.53881 0,21.80822c-11.23577,0 -22.47149,0 -33.70726,0c0,14.72055 0,29.4411 0,44.16165c-11.37796,0 -22.75592,0 -34.13391,0c0,14.72056 0,29.44111 0,44.16165c-11.37798,0 -22.75593,0 -34.13391,0c0,14.72055 0,29.44111 0,44.16163c-11.5202,0 -23.0404,0 -34.56058,0c0,14.9023 0,29.80458 0,44.70686c-17.06696,0 -34.13391,0 -51.20087,0c0.76085,-7.22396 -1.29707,-15.36979 0.48784,-22.34509l0,-0.00001z" stroke="#ffffff" fill="#1334db"/>
  <path id="svg_25" d="m735.55378,223.62261c3.6621,-0.01929 7.3242,-0.03859 10.9863,-0.05788c0.02411,-3.0516 0.04822,-6.1032 0.07233,-9.15479c3.64461,0 7.28921,0 10.93382,0c0,-3.07032 0,-6.14064 0,-9.21096c3.73794,0 7.47587,0 11.21381,0c0,-2.99543 0,-5.99087 0,-8.9863c3.69179,0 7.38358,0 11.07537,0c0,-2.99543 0,-5.99087 0,-8.9863c5.49154,0 10.98307,0 16.47461,0c0,1.49772 0,2.99543 0,4.49315c-3.64565,0 -7.29128,0 -10.93693,0c0,3.03288 0,6.06575 0,9.09863c-3.69179,0 -7.38357,0 -11.07537,0c0,3.03288 0,6.06575 0,9.09863c-3.69179,0 -7.38358,0 -11.07537,0c0,3.03288 0,6.06575 0,9.09863c-3.73794,0 -7.47588,0 -11.21381,0c0,3.07032 0,6.14064 0,9.21096c-5.53769,0 -11.07537,0 -16.61305,0c0.24687,-1.48835 -0.42086,-3.16664 0.15829,-4.60376l0,0z" stroke="#ffffff" fill="#1334db"/>
  <path id="svg_26" d="m394.60444,233.41996c8.70499,-0.09082 17.40998,-0.18165 26.11497,-0.27246c0.05731,-14.36484 0.11462,-28.72969 0.17193,-43.09451c8.6634,0 17.32681,0 25.99022,0c0,-14.45297 0,-28.90595 0,-43.35892c8.88526,0 17.77052,0 26.65578,0c0,-14.10046 0,-28.20092 0,-42.30137c8.77556,0 17.55112,0 26.32669,0c0,-14.10045 0,-28.20092 0,-42.30137c13.05365,0 26.1073,0 39.16096,0c0,7.05023 0,14.10046 0,21.15069c-8.66588,0 -17.33174,0 -25.99762,0c0,14.27671 0,28.55342 0,42.83014c-8.77555,0 -17.55111,0 -26.32669,0c0,14.27672 0,28.55343 0,42.83014c-8.77557,0 -17.55112,0 -26.32669,0c0,14.27671 0,28.55343 0,42.83012c-8.88526,0 -17.77052,0 -26.65577,0c0,14.45298 0,28.90595 0,43.35891c-13.16335,0 -26.32669,0 -39.49004,0c0.58683,-7.00616 -1.0004,-14.90637 0.37626,-21.67136l0,-0.00001z" stroke="#ffffff" fill="#1334db"/>
  <path id="svg_27" d="m596.99466,29.35061l92.24078,0l0,0c12.08381,0 21.87964,5.59644 21.87964,12.5c0,6.90356 -9.79584,12.5 -21.87964,12.5l-92.24078,0l0,0c-12.08379,0 -21.87964,-5.59644 -21.87964,-12.5c0,-6.90356 9.79585,-12.5 21.87964,-12.5z" stroke="#ffffff" fill="#1334db"/>
  <path id="svg_28" d="m299.59108,492.02565l101.05787,0l0,0c13.23887,0 23.97107,3.35787 23.97107,7.50001c0,4.14214 -10.7322,7.50001 -23.97107,7.50001l-101.05787,0l0,0c-13.23885,0 -23.97107,-3.35787 -23.97107,-7.50001c0,-4.14214 10.73221,-7.50001 23.97107,-7.50001z" stroke="#ffffff" fill="#1334db"/>
  <path id="svg_29" d="m99.11343,489.53944l99.02314,0l0,0c12.97231,0 23.48843,3.80558 23.48843,8.5c0,4.69442 -10.51612,8.5 -23.48843,8.5l-99.02314,0l0,0c-12.9723,0 -23.48843,-3.80558 -23.48843,-8.5c0,-4.69442 10.51613,-8.5 23.48843,-8.5z" stroke="#ffffff" fill="#1334db"/>
  <path id="svg_30" d="m855.08784,459.53441l152.60417,0l0,0c19.99158,0 36.19792,7.38731 36.19792,16.50001c0,9.1127 -16.20635,16.5 -36.19792,16.5l-152.60417,0l0,0c-19.99156,0 -36.19792,-7.3873 -36.19792,-16.5c0,-9.1127 16.20636,-16.50001 36.19792,-16.50001z" stroke="#ffffff" fill="#1334db"/>
  <path id="svg_31" d="m294.83641,16.41561l93.5972,0l0,0c12.2615,0 22.20139,6.26802 22.20139,14c0,7.73198 -9.93989,14 -22.20139,14l-93.5972,0l0,0c-12.26149,0 -22.20139,-6.26801 -22.20139,-14c0,-7.73199 9.9399,-14 22.20139,-14z" stroke="#ffffff" fill="#1334db"/>
  <path id="svg_32" d="m195.97282,283.07564l29.16435,0l0,0c3.82061,0 6.91782,4.47715 6.91782,9.99999c0,5.52284 -3.09721,9.99999 -6.91782,9.99999l-29.16435,0l0,0c-3.82061,0 -6.91782,-4.47715 -6.91782,-9.99999c0,-5.52284 3.09722,-9.99999 6.91782,-9.99999z" stroke="#ffffff" fill="#1334db"/>
  <path id="svg_33" d="m250.69782,201.48562l29.16436,0l0,0c3.82061,0 6.91783,5.37259 6.91783,12.00001c0,6.62742 -3.09721,12 -6.91783,12l-29.16436,0l0,0c-3.82061,0 -6.91783,-5.37259 -6.91783,-12c0,-6.62742 3.09722,-12.00001 6.91783,-12.00001z" stroke="#ffffff" fill="#1334db"/>
  <path id="svg_34" d="m347.50486,280.59442l34.59028,0l0,0c4.53142,0 8.20486,5.59645 8.20486,12.50001c0,6.90356 -3.67344,12.50001 -8.20486,12.50001l-34.59028,0l0,0c-4.53142,0 -8.20486,-5.59644 -8.20486,-12.50001c0,-6.90357 3.67344,-12.50001 8.20486,-12.50001z" stroke="#ffffff" fill="#1334db"/>
 </g>
</svg>