<svg width="1280" height="640" xmlns="http://www.w3.org/2000/svg" version="1.0" preserveAspectRatio="xMidYMid meet">
 <metadata>Created by potrace 1.15, written by Peter Selinger 2001-2017</metadata>

 <g>
  <title>Layer 1</title>
  <g transform="translate(0 640) scale(0.1 -0.1)" fill="#000000" id="svg_1">
   <path fill="#1334db" d="m-10,6289l0,-109l39,0c179,0 395,-73 567,-191c102,-71 280,-256 271,-283c-2,-5 -45,-27 -95,-48l-92,-38l-67,71c-142,151 -318,242 -516,269c-43,5 -85,10 -93,10c-11,0 -14,-21 -14,-105c0,-118 -9,-107 95,-120c124,-16 273,-93 358,-184c26,-28 47,-54 47,-58c0,-7 -68,-69 -127,-117c-24,-18 -24,-18 -78,33c-64,60 -156,106 -238,119l-57,9l0,-107l0,-108l43,-10c61,-16 108,-51 136,-101c23,-41 23,-45 7,-77l-16,-34l-85,6l-85,7l0,-112l0,-111l39,0c179,0 395,-73 567,-191c102,-71 280,-256 271,-283c-2,-5 -45,-27 -95,-48l-92,-38l-67,71c-142,151 -318,242 -516,269c-43,5 -85,10 -93,10c-11,0 -14,-21 -14,-105c0,-118 -9,-107 95,-120c124,-16 273,-93 358,-184c26,-28 47,-54 47,-58c0,-7 -68,-69 -127,-117c-24,-18 -24,-18 -78,33c-64,60 -156,106 -237,119l-58,9l0,-107l0,-108l43,-10c61,-16 108,-51 136,-101c23,-41 23,-45 7,-77l-16,-34l-85,6l-85,7l0,-112l0,-111l39,0c179,0 395,-73 567,-191c102,-71 280,-256 271,-283c-2,-5 -45,-27 -95,-48l-92,-38l-67,71c-142,151 -318,242 -516,269c-43,5 -85,10 -93,10c-11,0 -14,-21 -14,-105c0,-118 -9,-107 95,-120c124,-16 273,-93 358,-184c26,-28 47,-54 47,-58c0,-7 -68,-69 -127,-117c-24,-18 -24,-18 -78,33c-64,60 -156,106 -237,119l-58,9l0,-107l0,-108l43,-10c61,-16 108,-51 136,-101c23,-41 23,-45 7,-77l-16,-34l-85,6l-85,7l0,-112l0,-111l39,0c179,0 395,-73 567,-191c102,-71 280,-256 271,-283c-2,-5 -45,-27 -95,-48l-92,-38l-67,71c-142,151 -318,242 -516,269c-43,5 -85,10 -93,10c-11,0 -14,-21 -14,-105c0,-118 -9,-107 95,-120c124,-16 273,-93 358,-184c26,-28 47,-54 47,-58c0,-7 -68,-69 -127,-117c-24,-18 -24,-18 -78,33c-64,60 -156,106 -237,119l-58,9l0,-107l0,-108l43,-10c61,-16 108,-51 136,-101c23,-41 23,-45 7,-77l-16,-34l-85,6l-85,7l0,-112l0,-111l39,0c179,0 395,-73 567,-191c102,-71 280,-256 271,-283c-2,-5 -45,-27 -95,-48l-92,-38l-67,71c-142,151 -318,242 -516,269c-43,5 -85,10 -93,10c-11,0 -14,-21 -14,-105c0,-118 -9,-107 95,-120c124,-16 273,-93 358,-184c26,-28 47,-54 47,-58c0,-7 -68,-69 -127,-117c-24,-18 -24,-18 -78,33c-64,60 -156,106 -237,119l-58,9l0,-107l0,-108l43,-10c59,-15 107,-50 134,-97c22,-39 23,-50 8,-87c-7,-17 3,-18 119,-18l126,0l42,47c168,187 349,294 598,355c35,8 114,13 215,12c141,0 172,-3 260,-27c120,-32 276,-107 365,-175c36,-27 100,-86 144,-131l78,-81l124,0c68,0 124,2 124,5c0,2 -5,15 -11,28c-9,19 -7,32 9,63c73,142 280,147 359,9c22,-39 23,-50 8,-87c-7,-17 3,-18 119,-18l126,0l42,47c168,187 349,294 598,355c35,8 114,13 215,12c141,0 172,-3 260,-27c120,-32 276,-107 365,-175c36,-27 100,-86 144,-131l78,-81l124,0c68,0 124,2 124,5c0,2 -5,15 -11,28c-19,41 27,114 91,147c104,53 223,21 277,-75c22,-39 23,-50 8,-87c-7,-17 3,-18 119,-18l126,0l42,47c174,191 348,294 598,355c35,8 114,13 215,12c141,0 172,-3 260,-27c120,-32 276,-107 365,-175c36,-27 100,-86 144,-131l78,-81l125,0c115,0 125,1 118,17c-15,38 -14,49 8,88c53,93 173,128 272,78c44,-22 65,-43 87,-87c16,-31 18,-44 9,-63c-6,-13 -11,-26 -11,-28c0,-3 56,-5 125,-5l125,0l42,47c174,191 348,294 598,355c35,8 114,13 215,12c141,0 172,-3 260,-27c120,-32 276,-107 365,-175c36,-27 100,-86 144,-131l78,-81l124,0c68,0 124,2 124,5c0,2 -5,15 -11,28c-9,19 -7,32 9,63c73,142 280,147 359,9c22,-39 23,-50 8,-87c-7,-17 3,-18 119,-18l126,0l42,47c174,191 348,294 598,355c35,8 114,13 215,12c141,0 172,-3 260,-27c120,-32 276,-107 365,-175c36,-27 100,-86 144,-131l78,-81l125,0c115,0 125,1 118,17c-15,38 -14,49 8,88c27,47 75,82 134,97l43,10l0,108l0,107l-57,-9c-82,-13 -174,-59 -238,-119c-54,-51 -54,-51 -78,-33c-66,53 -127,110 -127,119c0,15 97,107 153,145c66,44 150,77 233,90c38,7 79,14 92,16c21,4 22,8 22,109c0,122 11,115 -133,90c-189,-33 -324,-103 -466,-243l-95,-92l-90,38c-49,22 -92,44 -93,49c-5,13 82,118 151,183c110,105 259,194 396,238c77,25 225,52 286,52l44,0l0,111l0,112l-85,-7l-85,-6l-16,34c-16,32 -16,36 7,77c28,50 75,85 136,101l43,10l0,108l0,107l-57,-9c-82,-13 -174,-59 -238,-119c-54,-51 -54,-51 -78,-33c-66,53 -127,110 -127,119c0,15 97,107 153,145c66,44 150,77 233,90c38,7 79,14 92,16c21,4 22,8 22,109c0,122 11,115 -133,90c-189,-33 -324,-103 -466,-243l-95,-92l-90,38c-49,22 -92,44 -93,49c-5,13 82,118 151,183c110,105 259,194 396,238c77,25 225,52 286,52l44,0l0,111l0,112l-85,-7l-85,-6l-16,34c-16,32 -16,36 7,77c28,50 75,85 136,101l43,10l0,108l0,107l-57,-9c-82,-13 -174,-59 -238,-119c-54,-51 -54,-51 -78,-33c-66,53 -127,110 -127,119c0,15 97,107 153,145c66,44 150,77 233,90c38,7 79,14 92,16c21,4 22,8 22,109c0,122 11,115 -133,90c-189,-33 -324,-103 -466,-243l-95,-92l-90,38c-49,22 -92,44 -93,49c-5,13 82,118 151,183c110,105 259,194 396,238c77,25 225,52 286,52l44,0l0,111l0,112l-85,-7l-85,-6l-16,34c-16,32 -16,36 7,77c28,50 75,85 136,101l43,10l0,108l0,107l-57,-9c-82,-13 -174,-59 -238,-119c-54,-51 -54,-51 -78,-33c-66,53 -127,110 -127,119c0,15 97,107 153,145c66,44 150,77 233,90c38,7 79,14 92,16c21,4 22,8 22,109c0,122 11,115 -133,90c-189,-33 -324,-103 -466,-243l-95,-92l-90,38c-49,22 -92,44 -93,49c-5,13 82,118 151,183c110,105 259,194 396,238c77,25 225,52 286,52l44,0l0,111l0,112l-85,-7l-85,-6l-16,34c-16,32 -16,36 7,77c28,50 75,85 136,101l43,10l0,108l0,107l-57,-9c-82,-13 -174,-59 -238,-119c-54,-51 -54,-51 -78,-33c-66,53 -127,110 -127,119c0,15 97,107 153,145c66,44 150,77 233,90c38,7 79,14 92,16c21,4 22,8 22,109c0,122 11,115 -133,90c-189,-33 -324,-103 -466,-243l-95,-92l-90,38c-49,22 -92,44 -93,49c-5,13 82,118 151,183c110,105 259,194 396,238c77,25 225,52 286,52l44,0l0,109l0,108l-215,2l-215,1l16,-26c21,-31 18,-34 -76,-74c-41,-17 -80,-34 -86,-36c-6,-3 -42,27 -79,66l-69,70l-557,0l-557,0l-66,-71l-67,-70l-87,37c-48,20 -91,40 -96,45c-5,5 -2,18 7,33l16,24l-429,0l-429,0l16,-24c20,-31 17,-34 -77,-74c-41,-17 -80,-34 -87,-36c-6,-3 -42,26 -79,65l-67,71l-557,0l-558,0l-66,-71l-67,-70l-87,37c-48,20 -91,40 -96,45c-5,5 -2,18 7,33l16,24l-429,0l-429,0l16,-24c20,-31 17,-34 -77,-74c-41,-17 -80,-34 -87,-36c-6,-3 -42,26 -79,65l-67,71l-557,0l-558,0l-66,-71l-67,-70l-87,37c-48,20 -91,40 -96,45c-5,5 -2,18 7,33l16,24l-429,0l-429,0l16,-24c20,-31 17,-34 -77,-74c-41,-17 -80,-34 -87,-36c-6,-3 -42,26 -79,65l-67,71l-557,0l-558,0l-66,-71l-67,-70l-87,37c-48,20 -91,40 -96,45c-5,5 -2,18 7,33l16,24l-429,0l-429,0l16,-24c20,-31 17,-34 -77,-74c-41,-17 -80,-34 -87,-36c-6,-3 -42,26 -79,65l-67,71l-557,0l-558,0l-66,-71l-67,-70l-87,37c-48,20 -91,40 -96,45c-5,5 -2,19 8,33l16,26l-215,-1l-215,-2l0,-108zm1480,72c87,-30 196,-99 253,-160c26,-28 47,-54 47,-58c0,-7 -68,-69 -127,-117c-24,-18 -24,-18 -76,31c-102,95 -188,128 -322,121c-102,-5 -191,-44 -270,-118c-62,-59 -52,-61 -149,27c-66,58 -66,61 6,129c72,70 178,129 283,159c77,22 272,14 355,-14zm2560,0c87,-30 196,-99 253,-160c26,-28 47,-54 47,-58c0,-7 -68,-69 -127,-117c-24,-18 -24,-18 -76,31c-102,95 -188,128 -322,121c-102,-5 -191,-44 -270,-118c-62,-59 -52,-61 -149,27c-66,58 -66,61 6,129c72,70 178,129 283,159c77,22 272,14 355,-14zm2560,0c87,-30 196,-99 253,-160c26,-28 47,-54 47,-58c0,-7 -68,-69 -127,-117c-24,-18 -24,-18 -76,31c-102,95 -188,128 -322,121c-102,-5 -191,-44 -270,-118c-62,-59 -52,-61 -149,27c-66,58 -66,61 6,129c72,70 178,129 283,159c77,22 272,14 355,-14zm2560,0c87,-30 196,-99 253,-160c26,-28 47,-54 47,-58c0,-7 -68,-69 -127,-117c-24,-18 -24,-18 -76,31c-102,95 -188,128 -322,121c-102,-5 -191,-44 -270,-118c-62,-59 -52,-61 -149,27c-66,58 -66,61 6,129c72,70 178,129 283,159c77,22 272,14 355,-14zm2560,0c36,-13 92,-39 125,-59c64,-38 175,-138 175,-156c0,-10 -60,-66 -127,-120c-24,-18 -24,-18 -76,31c-102,95 -188,128 -322,121c-102,-5 -191,-44 -270,-118c-62,-59 -52,-61 -149,27c-66,58 -66,61 6,129c72,70 178,129 283,159c77,22 272,14 355,-14zm-9004,-192c154,-21 310,-84 450,-180c102,-71 280,-256 271,-283c-2,-5 -45,-27 -95,-48l-92,-38l-67,71c-150,159 -326,247 -542,271c-260,28 -513,-69 -704,-272l-68,-71l-91,39c-51,21 -94,44 -95,49c-5,13 82,118 151,183c235,223 556,325 882,279zm2560,0c154,-21 310,-84 450,-180c102,-71 280,-256 271,-283c-2,-5 -45,-27 -95,-48l-92,-38l-67,71c-192,203 -465,305 -720,270c-202,-28 -354,-103 -502,-249l-95,-92l-90,38c-49,22 -92,44 -93,49c-5,13 82,118 151,183c235,223 556,325 882,279zm2560,0c154,-21 310,-84 450,-180c102,-71 280,-256 271,-283c-2,-5 -45,-27 -95,-48l-92,-38l-67,71c-192,203 -465,305 -720,270c-202,-28 -354,-103 -502,-249l-95,-92l-90,38c-49,22 -92,44 -93,49c-5,13 82,118 151,183c235,223 556,325 882,279zm2560,0c154,-21 310,-84 450,-180c102,-71 280,-256 271,-283c-2,-5 -45,-27 -95,-48l-92,-38l-67,71c-192,203 -465,305 -720,270c-202,-28 -354,-103 -502,-249l-95,-92l-90,38c-49,22 -92,44 -93,49c-5,13 82,118 151,183c235,223 556,325 882,279zm-9023,-225c46,-23 66,-44 89,-88c19,-38 20,-42 4,-70l-16,-31l-170,0l-170,0l-16,31c-16,30 -16,33 7,74c54,97 173,134 272,84zm2560,0c46,-23 66,-44 89,-88c19,-38 20,-42 4,-70l-16,-31l-170,0l-170,0l-16,31c-16,30 -16,33 7,74c54,97 173,134 272,84zm2560,0c46,-23 66,-44 89,-88c19,-38 20,-42 4,-70l-16,-31l-170,0l-170,0l-16,31c-16,30 -16,33 7,74c54,97 173,134 272,84zm2560,0c46,-23 66,-44 89,-88c19,-38 20,-42 4,-70l-16,-31l-170,0l-170,0l-16,31c-16,30 -16,33 7,74c54,97 173,134 272,84zm2560,0c46,-23 66,-44 89,-88c19,-38 20,-42 4,-70l-16,-31l-170,0l-170,0l-16,31c-16,30 -16,33 7,74c54,97 173,134 272,84zm-8923,-206c75,-14 138,-40 214,-88c59,-37 156,-129 156,-147c0,-7 -68,-69 -127,-117c-24,-18 -24,-18 -78,33c-97,92 -233,138 -352,119c-82,-13 -174,-59 -238,-119c-54,-51 -54,-51 -78,-33c-66,53 -127,110 -127,119c0,18 102,111 167,153c68,43 166,78 258,91c63,9 114,6 205,-11zm2560,0c75,-14 138,-40 214,-88c59,-37 156,-129 156,-147c0,-7 -68,-69 -127,-117c-24,-18 -24,-18 -78,33c-97,92 -233,138 -352,119c-82,-13 -174,-59 -238,-119c-54,-51 -54,-51 -78,-33c-66,53 -127,110 -127,119c0,18 102,111 167,153c68,43 166,78 258,91c63,9 114,6 205,-11zm2560,0c75,-14 138,-40 214,-88c59,-37 156,-129 156,-147c0,-7 -68,-69 -127,-117c-24,-18 -24,-18 -78,33c-64,60 -156,106 -237,119c-120,19 -256,-27 -353,-119c-54,-51 -54,-51 -78,-33c-66,53 -127,110 -127,119c0,18 102,111 167,153c68,43 166,78 258,91c63,9 114,6 205,-11zm2560,0c75,-14 138,-40 214,-88c59,-37 156,-129 156,-147c0,-7 -68,-69 -127,-117c-24,-18 -24,-18 -78,33c-97,92 -233,138 -352,119c-82,-13 -174,-59 -238,-119c-54,-51 -54,-51 -78,-33c-66,53 -127,110 -127,119c0,18 102,111 167,153c68,43 166,78 258,91c63,9 114,6 205,-11zm-8820,-233c183,-49 323,-130 466,-268c101,-96 153,-163 138,-176c-5,-5 -43,-23 -84,-41c-41,-17 -80,-34 -87,-36c-6,-3 -44,29 -85,71c-169,178 -379,269 -618,269c-239,0 -450,-91 -618,-268l-73,-77l-87,37c-48,20 -91,40 -96,45c-23,20 140,198 258,281c148,104 279,156 486,192c14,3 88,3 165,1c110,-3 161,-10 235,-30zm2560,0c183,-49 323,-130 466,-268c101,-96 153,-163 138,-176c-5,-5 -43,-23 -84,-41c-41,-17 -80,-34 -87,-36c-6,-3 -44,29 -85,71c-169,178 -379,269 -618,269c-239,0 -450,-91 -618,-268l-73,-77l-87,37c-48,20 -91,40 -96,45c-23,20 140,198 258,281c148,104 279,156 486,192c14,3 88,3 165,1c110,-3 161,-10 235,-30zm2560,0c183,-49 323,-130 466,-268c101,-96 153,-163 138,-176c-5,-5 -43,-23 -84,-41c-41,-17 -80,-34 -87,-36c-6,-3 -44,29 -85,71c-169,178 -379,269 -618,269c-239,0 -450,-91 -618,-268l-73,-77l-87,37c-48,20 -91,40 -96,45c-22,20 143,200 259,281c147,104 279,156 485,192c14,3 88,3 165,1c110,-3 161,-10 235,-30zm2560,0c183,-49 323,-130 466,-268c101,-96 153,-163 138,-176c-5,-5 -43,-23 -84,-41c-41,-17 -80,-34 -87,-36c-6,-3 -44,29 -85,71c-169,178 -379,269 -618,269c-239,0 -450,-91 -618,-268l-73,-77l-87,37c-48,20 -91,40 -96,45c-22,20 143,200 259,281c147,104 279,156 485,192c14,3 88,3 165,1c110,-3 161,-10 235,-30zm2560,0c183,-49 323,-130 466,-268c101,-96 153,-163 138,-176c-5,-5 -43,-23 -84,-41c-41,-17 -80,-34 -86,-36c-6,-3 -44,30 -85,72c-173,178 -380,268 -619,268c-239,0 -450,-91 -618,-268l-73,-77l-87,37c-48,20 -91,40 -96,45c-22,20 143,200 259,281c147,104 279,156 485,192c14,3 88,3 165,1c110,-3 161,-10 235,-30zm-9131,-205c43,-21 71,-53 90,-99c10,-24 10,-34 -2,-57l-14,-27l-173,-1l-173,-1l-15,31c-14,30 -13,35 9,75c56,99 173,133 278,79zm2560,0c43,-21 71,-53 90,-99c10,-24 10,-34 -2,-57l-14,-27l-173,-1l-173,-1l-15,31c-14,30 -13,35 9,75c56,99 173,133 278,79zm2560,0c43,-21 71,-53 90,-99c10,-24 10,-34 -2,-57l-14,-27l-173,-1l-173,-1l-15,31c-14,30 -13,35 9,75c56,99 173,133 278,79zm2560,0c43,-21 71,-53 90,-99c10,-24 10,-34 -2,-57l-14,-27l-173,-1l-173,-1l-15,31c-14,30 -13,35 9,75c56,99 173,133 278,79zm-8859,-219c87,-30 196,-99 253,-160c26,-28 47,-54 47,-58c0,-7 -68,-69 -127,-117c-24,-18 -24,-18 -76,31c-102,95 -188,128 -322,121c-102,-5 -191,-44 -270,-118c-62,-59 -52,-61 -149,27c-66,58 -66,61 6,129c72,70 178,129 283,159c77,22 272,14 355,-14zm2560,0c87,-30 196,-99 253,-160c26,-28 47,-54 47,-58c0,-7 -68,-69 -127,-117c-24,-18 -24,-18 -76,31c-102,95 -188,128 -322,121c-102,-5 -191,-44 -270,-118c-62,-59 -52,-61 -149,27c-66,58 -66,61 6,129c72,70 178,129 283,159c77,22 272,14 355,-14zm2560,0c87,-30 196,-99 253,-160c26,-28 47,-54 47,-58c0,-7 -68,-69 -127,-117c-24,-18 -24,-18 -76,31c-102,95 -188,128 -322,121c-102,-5 -191,-44 -270,-118c-62,-59 -52,-61 -149,27c-66,58 -66,61 6,129c72,70 178,129 283,159c77,22 272,14 355,-14zm2560,0c87,-30 196,-99 253,-160c26,-28 47,-54 47,-58c0,-7 -68,-69 -127,-117c-24,-18 -24,-18 -76,31c-102,95 -188,128 -322,121c-102,-5 -191,-44 -270,-118c-62,-59 -52,-61 -149,27c-66,58 -66,61 6,129c72,70 178,129 283,159c77,22 272,14 355,-14zm2560,0c36,-13 92,-39 125,-59c64,-38 175,-138 175,-156c0,-10 -60,-66 -127,-120c-24,-18 -24,-18 -76,31c-102,95 -188,128 -322,121c-102,-5 -191,-44 -270,-118c-62,-59 -52,-61 -149,27c-66,58 -66,61 6,129c72,70 178,129 283,159c77,22 272,14 355,-14zm-9004,-192c154,-21 310,-84 450,-180c102,-71 280,-256 271,-283c-2,-5 -45,-27 -95,-48l-92,-38l-67,71c-150,159 -326,247 -542,271c-260,28 -513,-69 -704,-272l-68,-71l-91,39c-51,21 -94,44 -95,49c-5,13 82,118 151,183c235,223 556,325 882,279zm2560,0c154,-21 310,-84 450,-180c102,-71 280,-256 271,-283c-2,-5 -45,-27 -95,-48l-92,-38l-67,71c-192,203 -465,305 -720,270c-202,-28 -354,-103 -502,-249l-95,-92l-90,38c-49,22 -92,44 -93,49c-5,13 82,118 151,183c235,223 556,325 882,279zm2560,0c154,-21 310,-84 450,-180c102,-71 280,-256 271,-283c-2,-5 -45,-27 -95,-48l-92,-38l-67,71c-192,203 -465,305 -720,270c-202,-28 -354,-103 -502,-249l-95,-92l-90,38c-49,22 -92,44 -93,49c-5,13 82,118 151,183c235,223 556,325 882,279zm2560,0c154,-21 310,-84 450,-180c102,-71 280,-256 271,-283c-2,-5 -45,-27 -95,-48l-92,-38l-67,71c-192,203 -465,305 -720,270c-202,-28 -354,-103 -502,-249l-95,-92l-90,38c-49,22 -92,44 -93,49c-5,13 82,118 151,183c235,223 556,325 882,279zm-9023,-225c46,-23 66,-44 89,-88c19,-38 20,-42 4,-70l-16,-31l-170,0l-170,0l-16,31c-16,30 -16,33 7,74c54,97 173,134 272,84zm2560,0c46,-23 66,-44 89,-88c19,-38 20,-42 4,-70l-16,-31l-170,0l-170,0l-16,31c-16,30 -16,33 7,74c54,97 173,134 272,84zm2560,0c46,-23 66,-44 89,-88c19,-38 20,-42 4,-70l-16,-31l-170,0l-170,0l-16,31c-16,30 -16,33 7,74c54,97 173,134 272,84zm2560,0c46,-23 66,-44 89,-88c19,-38 20,-42 4,-70l-16,-31l-170,0l-170,0l-16,31c-16,30 -16,33 7,74c54,97 173,134 272,84zm2560,0c46,-23 66,-44 89,-88c19,-38 20,-42 4,-70l-16,-31l-170,0l-170,0l-16,31c-16,30 -16,33 7,74c54,97 173,134 272,84zm-8923,-206c75,-14 138,-40 214,-88c59,-37 156,-129 156,-147c0,-7 -68,-69 -127,-117c-24,-18 -24,-18 -78,33c-171,162 -419,162 -590,0c-54,-51 -54,-51 -78,-33c-66,53 -127,110 -127,119c0,18 102,111 167,153c68,43 166,78 258,91c63,9 114,6 205,-11zm2560,0c75,-14 138,-40 214,-88c59,-37 156,-129 156,-147c0,-7 -68,-69 -127,-117c-24,-18 -24,-18 -78,33c-171,162 -419,162 -590,0c-54,-51 -54,-51 -78,-33c-66,53 -127,110 -127,119c0,18 102,111 167,153c68,43 166,78 258,91c63,9 114,6 205,-11zm2560,0c75,-14 138,-40 214,-88c59,-37 156,-129 156,-147c0,-7 -68,-69 -127,-117c-24,-18 -24,-18 -78,33c-171,162 -419,162 -590,0c-54,-51 -54,-51 -78,-33c-66,53 -127,110 -127,119c0,18 102,111 167,153c68,43 166,78 258,91c63,9 114,6 205,-11zm2560,0c75,-14 138,-40 214,-88c59,-37 156,-129 156,-147c0,-7 -68,-69 -127,-117c-24,-18 -24,-18 -78,33c-171,162 -419,162 -590,0c-54,-51 -54,-51 -78,-33c-66,53 -127,110 -127,119c0,18 102,111 167,153c68,43 166,78 258,91c63,9 114,6 205,-11zm-8820,-233c183,-49 323,-130 466,-268c101,-96 153,-163 138,-176c-5,-5 -43,-23 -84,-41c-41,-17 -80,-34 -87,-36c-6,-3 -44,29 -85,71c-169,178 -379,269 -618,269c-239,0 -450,-91 -618,-268l-73,-77l-87,37c-48,20 -91,40 -96,45c-23,20 140,198 258,281c148,104 279,156 486,192c14,3 88,3 165,1c110,-3 161,-10 235,-30zm2560,0c183,-49 323,-130 466,-268c101,-96 153,-163 138,-176c-5,-5 -43,-23 -84,-41c-41,-17 -80,-34 -87,-36c-6,-3 -44,29 -85,71c-169,178 -379,269 -618,269c-239,0 -450,-91 -618,-268l-73,-77l-87,37c-48,20 -91,40 -96,45c-23,20 140,198 258,281c148,104 279,156 486,192c14,3 88,3 165,1c110,-3 161,-10 235,-30zm2560,0c183,-49 323,-130 466,-268c101,-96 153,-163 138,-176c-5,-5 -43,-23 -84,-41c-41,-17 -80,-34 -87,-36c-6,-3 -44,29 -85,71c-169,178 -379,269 -618,269c-239,0 -450,-91 -618,-268l-73,-77l-87,37c-48,20 -91,40 -96,45c-22,20 143,200 259,281c147,104 279,156 485,192c14,3 88,3 165,1c110,-3 161,-10 235,-30zm2560,0c183,-49 323,-130 466,-268c101,-96 153,-163 138,-176c-5,-5 -43,-23 -84,-41c-41,-17 -80,-34 -87,-36c-6,-3 -44,29 -85,71c-169,178 -379,269 -618,269c-239,0 -450,-91 -618,-268l-73,-77l-87,37c-48,20 -91,40 -96,45c-22,20 143,200 259,281c147,104 279,156 485,192c14,3 88,3 165,1c110,-3 161,-10 235,-30zm2560,0c183,-49 323,-130 466,-268c101,-96 153,-163 138,-176c-5,-5 -43,-23 -84,-41c-41,-17 -80,-34 -86,-36c-6,-3 -44,30 -85,72c-173,178 -380,268 -619,268c-239,0 -450,-91 -618,-268l-73,-77l-87,37c-48,20 -91,40 -96,45c-22,20 143,200 259,281c147,104 279,156 485,192c14,3 88,3 165,1c110,-3 161,-10 235,-30zm-9131,-205c43,-21 71,-53 90,-99c10,-24 10,-34 -2,-57l-14,-27l-173,-1l-173,-1l-15,31c-14,30 -13,35 9,75c56,99 173,133 278,79zm2560,0c43,-21 71,-53 90,-99c10,-24 10,-34 -2,-57l-14,-27l-173,-1l-173,-1l-15,31c-14,30 -13,35 9,75c56,99 173,133 278,79zm2560,0c43,-21 71,-53 90,-99c10,-24 10,-34 -2,-57l-14,-27l-173,-1l-173,-1l-15,31c-14,30 -13,35 9,75c56,99 173,133 278,79zm2560,0c43,-21 71,-53 90,-99c10,-24 10,-34 -2,-57l-14,-27l-173,-1l-173,-1l-15,31c-14,30 -13,35 9,75c56,99 173,133 278,79zm-8859,-219c87,-30 196,-99 253,-160c26,-28 47,-54 47,-58c0,-7 -68,-69 -127,-117c-24,-18 -24,-18 -76,31c-102,95 -188,128 -322,121c-102,-5 -191,-44 -270,-118c-62,-59 -52,-61 -149,27c-66,58 -66,61 6,129c72,70 178,129 283,159c77,22 272,14 355,-14zm2560,0c87,-30 196,-99 253,-160c26,-28 47,-54 47,-58c0,-7 -68,-69 -127,-117c-24,-18 -24,-18 -76,31c-102,95 -188,128 -322,121c-102,-5 -191,-44 -270,-118c-62,-59 -52,-61 -149,27c-66,58 -66,61 6,129c72,70 178,129 283,159c77,22 272,14 355,-14zm2560,0c87,-30 196,-99 253,-160c26,-28 47,-54 47,-58c0,-7 -68,-69 -127,-117c-24,-18 -24,-18 -76,31c-102,95 -188,128 -322,121c-102,-5 -191,-44 -270,-118c-62,-59 -52,-61 -149,27c-66,58 -66,61 6,129c72,70 178,129 283,159c77,22 272,14 355,-14zm2560,0c87,-30 196,-99 253,-160c26,-28 47,-54 47,-58c0,-7 -68,-69 -127,-117c-24,-18 -24,-18 -76,31c-102,95 -188,128 -322,121c-102,-5 -191,-44 -270,-118c-62,-59 -52,-61 -149,27c-66,58 -66,61 6,129c72,70 178,129 283,159c77,22 272,14 355,-14zm2560,0c36,-13 92,-39 125,-59c64,-38 175,-138 175,-156c0,-10 -60,-66 -127,-120c-24,-18 -24,-18 -76,31c-102,95 -188,128 -322,121c-102,-5 -191,-44 -270,-118c-62,-59 -52,-61 -149,27c-66,58 -66,61 6,129c72,70 178,129 283,159c77,22 272,14 355,-14zm-9004,-192c154,-21 310,-84 450,-180c102,-71 280,-256 271,-283c-2,-5 -45,-27 -95,-48l-92,-38l-67,71c-150,159 -326,247 -542,271c-260,28 -513,-69 -704,-272l-68,-71l-91,39c-51,21 -94,44 -95,49c-5,13 82,118 151,183c235,223 556,325 882,279zm2560,0c154,-21 310,-84 450,-180c102,-71 280,-256 271,-283c-2,-5 -45,-27 -95,-48l-92,-38l-67,71c-192,203 -465,305 -720,270c-202,-28 -354,-103 -502,-249l-95,-92l-90,38c-49,22 -92,44 -93,49c-5,13 82,118 151,183c235,223 556,325 882,279zm2560,0c154,-21 310,-84 450,-180c102,-71 280,-256 271,-283c-2,-5 -45,-27 -95,-48l-92,-38l-67,71c-192,203 -465,305 -720,270c-202,-28 -354,-103 -502,-249l-95,-92l-90,38c-49,22 -92,44 -93,49c-5,13 82,118 151,183c235,223 556,325 882,279zm2560,0c154,-21 310,-84 450,-180c102,-71 280,-256 271,-283c-2,-5 -45,-27 -95,-48l-92,-38l-67,71c-192,203 -465,305 -720,270c-202,-28 -354,-103 -502,-249l-95,-92l-90,38c-49,22 -92,44 -93,49c-5,13 82,118 151,183c235,223 556,325 882,279zm-9023,-225c46,-23 66,-44 89,-88c19,-38 20,-42 4,-70l-16,-31l-170,0l-170,0l-16,31c-16,30 -16,33 7,74c54,97 173,134 272,84zm2560,0c46,-23 66,-44 89,-88c19,-38 20,-42 4,-70l-16,-31l-170,0l-170,0l-16,31c-16,30 -16,33 7,74c54,97 173,134 272,84zm2560,0c46,-23 66,-44 89,-88c19,-38 20,-42 4,-70l-16,-31l-170,0l-170,0l-16,31c-16,30 -16,33 7,74c54,97 173,134 272,84zm2560,0c46,-23 66,-44 89,-88c19,-38 20,-42 4,-70l-16,-31l-170,0l-170,0l-16,31c-16,30 -16,33 7,74c54,97 173,134 272,84zm2560,0c46,-23 66,-44 89,-88c19,-38 20,-42 4,-70l-16,-31l-170,0l-170,0l-16,31c-16,30 -16,33 7,74c54,97 173,134 272,84zm-8923,-206c75,-14 138,-40 214,-88c59,-37 156,-129 156,-147c0,-7 -68,-69 -127,-117c-24,-18 -24,-18 -78,33c-171,162 -419,162 -590,0c-54,-51 -54,-51 -78,-33c-66,53 -127,110 -127,119c0,18 102,111 167,153c68,43 166,78 258,91c63,9 114,6 205,-11zm2560,0c75,-14 138,-40 214,-88c59,-37 156,-129 156,-147c0,-7 -68,-69 -127,-117c-24,-18 -24,-18 -78,33c-171,162 -419,162 -590,0c-54,-51 -54,-51 -78,-33c-66,53 -127,110 -127,119c0,18 102,111 167,153c68,43 166,78 258,91c63,9 114,6 205,-11zm2560,0c75,-14 138,-40 214,-88c59,-37 156,-129 156,-147c0,-7 -68,-69 -127,-117c-24,-18 -24,-18 -78,33c-171,162 -419,162 -590,0c-54,-51 -54,-51 -78,-33c-66,53 -127,110 -127,119c0,18 102,111 167,153c68,43 166,78 258,91c63,9 114,6 205,-11zm2560,0c75,-14 138,-40 214,-88c59,-37 156,-129 156,-147c0,-7 -68,-69 -127,-117c-24,-18 -24,-18 -78,33c-171,162 -419,162 -590,0c-54,-51 -54,-51 -78,-33c-66,53 -127,110 -127,119c0,18 102,111 167,153c68,43 166,78 258,91c63,9 114,6 205,-11zm-8820,-233c183,-49 323,-130 466,-268c101,-96 153,-163 138,-176c-5,-5 -43,-23 -84,-41c-41,-17 -80,-34 -87,-36c-6,-3 -44,29 -85,71c-169,178 -379,269 -618,269c-239,0 -450,-91 -618,-268l-73,-77l-87,37c-48,20 -91,40 -96,45c-23,20 140,198 258,281c148,104 279,156 486,192c14,3 88,3 165,1c110,-3 161,-10 235,-30zm2560,0c183,-49 323,-130 466,-268c101,-96 153,-163 138,-176c-5,-5 -43,-23 -84,-41c-41,-17 -80,-34 -87,-36c-6,-3 -44,29 -85,71c-169,178 -379,269 -618,269c-239,0 -450,-91 -618,-268l-73,-77l-87,37c-48,20 -91,40 -96,45c-23,20 140,198 258,281c148,104 279,156 486,192c14,3 88,3 165,1c110,-3 161,-10 235,-30zm2560,0c183,-49 323,-130 466,-268c101,-96 153,-163 138,-176c-5,-5 -43,-23 -84,-41c-41,-17 -80,-34 -87,-36c-6,-3 -44,29 -85,71c-169,178 -379,269 -618,269c-239,0 -450,-91 -618,-268l-73,-77l-87,37c-48,20 -91,40 -96,45c-22,20 143,200 259,281c147,104 279,156 485,192c14,3 88,3 165,1c110,-3 161,-10 235,-30zm2560,0c183,-49 323,-130 466,-268c101,-96 153,-163 138,-176c-5,-5 -43,-23 -84,-41c-41,-17 -80,-34 -87,-36c-6,-3 -44,29 -85,71c-169,178 -379,269 -618,269c-239,0 -450,-91 -618,-268l-73,-77l-87,37c-48,20 -91,40 -96,45c-22,20 143,200 259,281c147,104 279,156 485,192c14,3 88,3 165,1c110,-3 161,-10 235,-30zm2560,0c183,-49 323,-130 466,-268c101,-96 153,-163 138,-176c-5,-5 -43,-23 -84,-41c-41,-17 -80,-34 -86,-36c-6,-3 -44,30 -85,72c-173,178 -380,268 -619,268c-239,0 -450,-91 -618,-268l-73,-77l-87,37c-48,20 -91,40 -96,45c-22,20 143,200 259,281c147,104 279,156 485,192c14,3 88,3 165,1c110,-3 161,-10 235,-30zm-9131,-205c43,-21 71,-53 90,-99c10,-24 10,-34 -2,-57l-14,-27l-173,-1l-173,-1l-15,31c-14,30 -13,35 9,75c56,99 173,133 278,79zm2560,0c43,-21 71,-53 90,-99c10,-24 10,-34 -2,-57l-14,-27l-173,-1l-173,-1l-15,31c-14,30 -13,35 9,75c56,99 173,133 278,79zm2560,0c43,-21 71,-53 90,-99c10,-24 10,-34 -2,-57l-14,-27l-173,-1l-173,-1l-15,31c-14,30 -13,35 9,75c56,99 173,133 278,79zm2560,0c43,-21 71,-53 90,-99c10,-24 10,-34 -2,-57l-14,-27l-173,-1l-173,-1l-15,31c-14,30 -13,35 9,75c56,99 173,133 278,79zm-8859,-219c87,-30 196,-99 253,-160c26,-28 47,-54 47,-58c0,-7 -68,-69 -127,-117c-24,-18 -24,-18 -76,31c-102,95 -188,128 -322,121c-102,-5 -191,-44 -270,-118c-62,-59 -52,-61 -149,27c-66,58 -66,61 6,129c72,70 178,129 283,159c77,22 272,14 355,-14zm2560,0c87,-30 196,-99 253,-160c26,-28 47,-54 47,-58c0,-7 -68,-69 -127,-117c-24,-18 -24,-18 -76,31c-102,95 -188,128 -322,121c-102,-5 -191,-44 -270,-118c-62,-59 -52,-61 -149,27c-66,58 -66,61 6,129c72,70 178,129 283,159c77,22 272,14 355,-14zm2560,0c87,-30 196,-99 253,-160c26,-28 47,-54 47,-58c0,-7 -68,-69 -127,-117c-24,-18 -24,-18 -76,31c-102,95 -188,128 -322,121c-102,-5 -191,-44 -270,-118c-62,-59 -52,-61 -149,27c-66,58 -66,61 6,129c72,70 178,129 283,159c77,22 272,14 355,-14zm2560,0c87,-30 196,-99 253,-160c26,-28 47,-54 47,-58c0,-7 -68,-69 -127,-117c-24,-18 -24,-18 -76,31c-102,95 -188,128 -322,121c-102,-5 -191,-44 -270,-118c-62,-59 -52,-61 -149,27c-66,58 -66,61 6,129c72,70 178,129 283,159c77,22 272,14 355,-14zm2560,0c36,-13 92,-39 125,-59c64,-38 175,-138 175,-156c0,-10 -60,-66 -127,-120c-24,-18 -24,-18 -76,31c-102,95 -188,128 -322,121c-102,-5 -191,-44 -270,-118c-62,-59 -52,-61 -149,27c-66,58 -66,61 6,129c72,70 178,129 283,159c77,22 272,14 355,-14zm-9004,-192c154,-21 310,-84 450,-180c102,-71 280,-256 271,-283c-2,-5 -45,-27 -95,-48l-92,-38l-67,71c-150,159 -326,247 -542,271c-260,28 -513,-69 -704,-272l-68,-71l-91,39c-51,21 -94,44 -95,49c-5,13 82,118 151,183c235,223 556,325 882,279zm2560,0c154,-21 310,-84 450,-180c102,-71 280,-256 271,-283c-2,-5 -45,-27 -95,-48l-92,-38l-67,71c-192,203 -465,305 -720,270c-202,-28 -354,-103 -502,-249l-95,-92l-90,38c-49,22 -92,44 -93,49c-5,13 82,118 151,183c235,223 556,325 882,279zm2560,0c154,-21 310,-84 450,-180c102,-71 280,-256 271,-283c-2,-5 -45,-27 -95,-48l-92,-38l-67,71c-192,203 -465,305 -720,270c-202,-28 -354,-103 -502,-249l-95,-92l-90,38c-49,22 -92,44 -93,49c-5,13 82,118 151,183c235,223 556,325 882,279zm2560,0c154,-21 310,-84 450,-180c102,-71 280,-256 271,-283c-2,-5 -45,-27 -95,-48l-92,-38l-67,71c-192,203 -465,305 -720,270c-202,-28 -354,-103 -502,-249l-95,-92l-90,38c-49,22 -92,44 -93,49c-5,13 82,118 151,183c235,223 556,325 882,279zm-9023,-225c46,-23 66,-44 89,-88c19,-38 20,-42 4,-70l-16,-31l-170,0l-170,0l-16,31c-16,30 -16,33 7,74c54,97 173,134 272,84zm2560,0c46,-23 66,-44 89,-88c19,-38 20,-42 4,-70l-16,-31l-170,0l-170,0l-16,31c-16,30 -16,33 7,74c54,97 173,134 272,84zm2560,0c46,-23 66,-44 89,-88c19,-38 20,-42 4,-70l-16,-31l-170,0l-170,0l-16,31c-16,30 -16,33 7,74c54,97 173,134 272,84zm2560,0c46,-23 66,-44 89,-88c19,-38 20,-42 4,-70l-16,-31l-170,0l-170,0l-16,31c-16,30 -16,33 7,74c54,97 173,134 272,84zm2560,0c46,-23 66,-44 89,-88c19,-38 20,-42 4,-70l-16,-31l-170,0l-170,0l-16,31c-16,30 -16,33 7,74c54,97 173,134 272,84zm-8923,-206c75,-14 138,-40 214,-88c59,-37 156,-129 156,-147c0,-7 -68,-69 -127,-117c-24,-18 -24,-18 -78,33c-64,60 -156,106 -237,119c-120,19 -256,-27 -353,-119c-54,-51 -54,-51 -78,-33c-66,53 -127,110 -127,119c0,18 102,111 167,153c68,43 166,78 258,91c63,9 114,6 205,-11zm2560,0c75,-14 138,-40 214,-88c59,-37 156,-129 156,-147c0,-7 -68,-69 -127,-117c-24,-18 -24,-18 -78,33c-97,92 -233,138 -352,119c-82,-13 -174,-59 -238,-119c-54,-51 -54,-51 -78,-33c-66,53 -127,110 -127,119c0,18 102,111 167,153c68,43 166,78 258,91c63,9 114,6 205,-11zm2560,0c75,-14 138,-40 214,-88c59,-37 156,-129 156,-147c0,-7 -68,-69 -127,-117c-24,-18 -24,-18 -78,33c-64,60 -156,106 -237,119c-120,19 -256,-27 -353,-119c-54,-51 -54,-51 -78,-33c-66,53 -127,110 -127,119c0,18 102,111 167,153c68,43 166,78 258,91c63,9 114,6 205,-11zm2560,0c75,-14 138,-40 214,-88c59,-37 156,-129 156,-147c0,-7 -68,-69 -127,-117c-24,-18 -24,-18 -78,33c-97,92 -233,138 -352,119c-82,-13 -174,-59 -238,-119c-54,-51 -54,-51 -78,-33c-66,53 -127,110 -127,119c0,18 102,111 167,153c68,43 166,78 258,91c63,9 114,6 205,-11zm-8820,-233c183,-49 323,-130 466,-268c101,-96 153,-163 138,-176c-5,-5 -43,-23 -84,-41c-41,-17 -80,-34 -87,-36c-6,-3 -44,29 -85,71c-169,178 -379,269 -618,269c-239,0 -450,-91 -618,-268l-73,-77l-87,37c-48,20 -91,40 -96,45c-23,20 140,198 258,281c148,104 279,156 486,192c14,3 88,3 165,1c110,-3 161,-10 235,-30zm2560,0c183,-49 323,-130 466,-268c101,-96 153,-163 138,-176c-5,-5 -43,-23 -84,-41c-41,-17 -80,-34 -87,-36c-6,-3 -44,29 -85,71c-169,178 -379,269 -618,269c-239,0 -450,-91 -618,-268l-73,-77l-87,37c-48,20 -91,40 -96,45c-23,20 140,198 258,281c148,104 279,156 486,192c14,3 88,3 165,1c110,-3 161,-10 235,-30zm2560,0c183,-49 323,-130 466,-268c101,-96 153,-163 138,-176c-5,-5 -43,-23 -84,-41c-41,-17 -80,-34 -87,-36c-6,-3 -44,29 -85,71c-169,178 -379,269 -618,269c-239,0 -450,-91 -618,-268l-73,-77l-87,37c-48,20 -91,40 -96,45c-22,20 143,200 259,281c147,104 279,156 485,192c14,3 88,3 165,1c110,-3 161,-10 235,-30zm2560,0c183,-49 323,-130 466,-268c101,-96 153,-163 138,-176c-5,-5 -43,-23 -84,-41c-41,-17 -80,-34 -87,-36c-6,-3 -44,29 -85,71c-169,178 -379,269 -618,269c-239,0 -450,-91 -618,-268l-73,-77l-87,37c-48,20 -91,40 -96,45c-22,20 143,200 259,281c147,104 279,156 485,192c14,3 88,3 165,1c110,-3 161,-10 235,-30zm2560,0c183,-49 323,-130 466,-268c101,-96 153,-163 138,-176c-5,-5 -43,-23 -84,-41c-41,-17 -80,-34 -86,-36c-6,-3 -44,30 -85,72c-173,178 -380,268 -619,268c-239,0 -450,-91 -618,-268l-73,-77l-87,37c-48,20 -91,40 -96,45c-22,20 143,200 259,281c147,104 279,156 485,192c14,3 88,3 165,1c110,-3 161,-10 235,-30zm-9131,-205c43,-21 71,-53 90,-99c10,-24 10,-34 -2,-57l-14,-27l-173,-1l-173,-1l-15,31c-14,30 -13,35 9,75c56,99 173,133 278,79zm2560,0c43,-21 71,-53 90,-99c10,-24 10,-34 -2,-57l-14,-27l-173,-1l-173,-1l-15,31c-14,30 -13,35 9,75c56,99 173,133 278,79zm2560,0c43,-21 71,-53 90,-99c10,-24 10,-34 -2,-57l-14,-27l-173,-1l-173,-1l-15,31c-14,30 -13,35 9,75c56,99 173,133 278,79zm2560,0c43,-21 71,-53 90,-99c10,-24 10,-34 -2,-57l-14,-27l-173,-1l-173,-1l-15,31c-14,30 -13,35 9,75c56,99 173,133 278,79zm-8859,-219c87,-30 196,-99 253,-160c26,-28 47,-54 47,-58c0,-7 -68,-69 -127,-117c-24,-18 -24,-18 -76,31c-102,95 -188,128 -322,121c-102,-5 -191,-44 -270,-118c-62,-59 -52,-61 -149,27c-66,58 -66,61 6,129c72,70 178,129 283,159c77,22 272,14 355,-14zm2560,0c87,-30 196,-99 253,-160c26,-28 47,-54 47,-58c0,-7 -68,-69 -127,-117c-24,-18 -24,-18 -76,31c-102,95 -188,128 -322,121c-102,-5 -191,-44 -270,-118c-62,-59 -52,-61 -149,27c-66,58 -66,61 6,129c72,70 178,129 283,159c77,22 272,14 355,-14zm2560,0c87,-30 196,-99 253,-160c26,-28 47,-54 47,-58c0,-7 -68,-69 -127,-117c-24,-18 -24,-18 -76,31c-102,95 -188,128 -322,121c-102,-5 -191,-44 -270,-118c-62,-59 -52,-61 -149,27c-66,58 -66,61 6,129c72,70 178,129 283,159c77,22 272,14 355,-14zm2560,0c87,-30 196,-99 253,-160c26,-28 47,-54 47,-58c0,-7 -68,-69 -127,-117c-24,-18 -24,-18 -76,31c-102,95 -188,128 -322,121c-102,-5 -191,-44 -270,-118c-62,-59 -52,-61 -149,27c-66,58 -66,61 6,129c72,70 178,129 283,159c77,22 272,14 355,-14zm2560,0c36,-13 92,-39 125,-59c64,-38 175,-138 175,-156c0,-10 -60,-66 -127,-120c-24,-18 -24,-18 -76,31c-102,95 -188,128 -322,121c-102,-5 -191,-44 -270,-118c-62,-59 -52,-61 -149,27c-66,58 -66,61 6,129c72,70 178,129 283,159c77,22 272,14 355,-14zm-9004,-192c154,-21 310,-84 450,-180c102,-71 280,-256 271,-283c-2,-5 -45,-27 -95,-48l-92,-38l-67,71c-150,159 -326,247 -542,271c-260,28 -513,-69 -704,-272l-68,-71l-91,39c-51,21 -94,44 -95,49c-5,13 82,118 151,183c235,223 556,325 882,279zm2560,0c154,-21 310,-84 450,-180c102,-71 280,-256 271,-283c-2,-5 -45,-27 -95,-48l-92,-38l-67,71c-192,203 -465,305 -720,270c-202,-28 -354,-103 -502,-249l-95,-92l-90,38c-49,22 -92,44 -93,49c-5,13 82,118 151,183c235,223 556,325 882,279zm2560,0c154,-21 310,-84 450,-180c102,-71 280,-256 271,-283c-2,-5 -45,-27 -95,-48l-92,-38l-67,71c-192,203 -465,305 -720,270c-202,-28 -354,-103 -502,-249l-95,-92l-90,38c-49,22 -92,44 -93,49c-5,13 82,118 151,183c235,223 556,325 882,279zm2560,0c154,-21 310,-84 450,-180c102,-71 280,-256 271,-283c-2,-5 -45,-27 -95,-48l-92,-38l-67,71c-192,203 -465,305 -720,270c-202,-28 -354,-103 -502,-249l-95,-92l-90,38c-49,22 -92,44 -93,49c-5,13 82,118 151,183c235,223 556,325 882,279zm-9023,-225c46,-23 66,-44 89,-88c19,-38 20,-42 4,-70l-16,-31l-170,0l-170,0l-16,31c-16,30 -16,33 7,74c54,97 173,134 272,84zm2560,0c46,-23 66,-44 89,-88c19,-38 20,-42 4,-70l-16,-31l-170,0l-170,0l-16,31c-16,30 -16,33 7,74c54,97 173,134 272,84zm2560,0c46,-23 66,-44 89,-88c19,-38 20,-42 4,-70l-16,-31l-170,0l-170,0l-16,31c-16,30 -16,33 7,74c54,97 173,134 272,84zm2560,0c46,-23 66,-44 89,-88c19,-38 20,-42 4,-70l-16,-31l-170,0l-170,0l-16,31c-16,30 -16,33 7,74c54,97 173,134 272,84zm2560,0c46,-23 66,-44 89,-88c19,-38 20,-42 4,-70l-16,-31l-170,0l-170,0l-16,31c-16,30 -16,33 7,74c54,97 173,134 272,84zm-8923,-206c75,-14 138,-40 214,-88c59,-37 156,-129 156,-147c0,-7 -68,-69 -127,-117c-24,-18 -24,-18 -78,33c-97,92 -233,138 -352,119c-82,-13 -174,-59 -238,-119c-54,-51 -54,-51 -78,-33c-66,53 -127,110 -127,119c0,18 102,111 167,153c68,43 166,78 258,91c63,9 114,6 205,-11zm2560,0c75,-14 138,-40 214,-88c59,-37 156,-129 156,-147c0,-7 -68,-69 -127,-117c-24,-18 -24,-18 -78,33c-97,92 -233,138 -352,119c-82,-13 -174,-59 -238,-119c-54,-51 -54,-51 -78,-33c-66,53 -127,110 -127,119c0,18 102,111 167,153c68,43 166,78 258,91c63,9 114,6 205,-11zm2560,0c75,-14 138,-40 214,-88c59,-37 156,-129 156,-147c0,-7 -68,-69 -127,-117c-24,-18 -24,-18 -78,33c-171,162 -419,162 -590,0c-54,-51 -54,-51 -78,-33c-66,53 -127,110 -127,119c0,18 102,111 167,153c68,43 166,78 258,91c63,9 114,6 205,-11zm2560,0c75,-14 138,-40 214,-88c59,-37 156,-129 156,-147c0,-7 -68,-69 -127,-117c-24,-18 -24,-18 -78,33c-171,162 -419,162 -590,0c-54,-51 -54,-51 -78,-33c-66,53 -127,110 -127,119c0,18 102,111 167,153c68,43 166,78 258,91c63,9 114,6 205,-11z" id="svg_2"/>
   <path fill="#1334db" d="m1185,204c-154,-23 -287,-73 -406,-155l-64,-44l278,-3c152,-1 402,-1 555,0l277,3l-64,44c-86,59 -211,116 -298,135c-76,17 -226,28 -278,20z" id="svg_3"/>
   <path fill="#1334db" d="m3745,204c-154,-23 -287,-73 -406,-155l-64,-44l278,-3c152,-1 402,-1 555,0l277,3l-64,44c-86,59 -211,116 -298,135c-76,17 -226,28 -278,20z" id="svg_4"/>
   <path fill="#1334db" d="m6305,204c-154,-23 -287,-73 -406,-155l-64,-44l278,-3c152,-1 402,-1 555,0l277,3l-64,44c-86,59 -211,116 -298,135c-76,17 -226,28 -278,20z" id="svg_5"/>
   <path fill="#1334db" d="m8865,204c-154,-23 -287,-73 -406,-155l-64,-44l278,-3c152,-1 402,-1 555,0l277,3l-64,44c-86,59 -211,116 -298,135c-76,17 -226,28 -278,20z" id="svg_6"/>
   <path fill="#1334db" d="m11425,204c-154,-23 -287,-73 -406,-155l-64,-44l278,-3c152,-1 402,-1 555,0l277,3l-64,44c-86,59 -211,116 -298,135c-76,17 -226,28 -278,20z" id="svg_7"/>
  </g>
 </g>
</svg>