<svg width="1280" height="1139" xmlns="http://www.w3.org/2000/svg" style="vector-effect: non-scaling-stroke;" stroke="null" version="1.0" preserveAspectRatio="xMidYMid meet">
 <metadata style="vector-effect: non-scaling-stroke;" stroke="null">Created by potrace 1.15, written by Peter Selinger 2001-2017</metadata>

 <g stroke="null">
  <title stroke="null">Layer 1</title>
  <g stroke="null" transform="translate(0 1139) scale(0.1 -0.1)" fill="#03a9f4" id="svg_1">
   <path stroke="null" d="m1469,6300.80807c-164,-29.99916 -292,-73.33128 -664,-225.54924c-368,-151.10688 -544,-201.10548 -702,-202.21656l-53,0l0,-328.87968l0,-329.99076l77,7.77756c193,19.99944 341,64.44264 728,223.32708c429,175.55064 581,216.6606 795,216.6606c214,0 366,-41.10996 795,-216.6606c448,-183.3282 586,-221.10492 805,-221.10492c219,0 357,37.77672 805,221.10492c429,175.55064 581,216.6606 795,216.6606c214,0 366,-41.10996 795,-216.6606c448,-183.3282 586,-221.10492 805,-221.10492c219,0 357,37.77672 805,221.10492c429,175.55064 581,216.6606 795,216.6606c214,0 366,-41.10996 795,-216.6606c448,-183.3282 586,-221.10492 805,-221.10492c219,0 357,37.77672 805,221.10492c429,175.55064 581,216.6606 795,216.6606c214,0 366,-41.10996 795,-216.6606c387,-158.88444 535,-203.32764 728,-223.32708l77,-7.77756l0,329.99076l0,328.87968l-52,0c-165,1.11108 -327,48.88752 -753,222.216c-462,187.77252 -563,215.54952 -795,215.54952c-232,0 -333,-27.777 -795,-215.54952c-460,-187.77252 -585,-222.216 -805,-222.216c-220,0 -345,34.44348 -805,222.216c-462,187.77252 -563,215.54952 -795,215.54952c-232,0 -333,-27.777 -795,-215.54952c-460,-187.77252 -585,-222.216 -805,-222.216c-220,0 -345,34.44348 -805,222.216c-462,187.77252 -563,215.54952 -795,215.54952c-232,0 -333,-27.777 -795,-215.54952c-460,-187.77252 -585,-222.216 -805,-222.216c-220,0 -345,34.44348 -805,222.216c-298,121.10772 -405,158.88444 -531,188.8836c-130,29.99916 -331,37.77672 -445,16.6662z" id="svg_2" fill="#27bcf7"/>
   <path stroke="null" d="m1535,5155.28458c-212,-34.44348 -314,-66.6648 -705,-226.66032c-387,-157.77336 -569,-211.1052 -721,-211.1052l-59,0l0,-328.87968l0,-328.87968l78,7.77756c192,18.88836 349,66.6648 715,217.77168c432,177.7728 594,222.216 807,222.216c213,0 375,-44.4432 807,-222.216c426,-175.55064 576,-216.6606 793,-216.6606c217,0 367,41.10996 793,216.6606c432,177.7728 594,222.216 807,222.216c213,0 375,-44.4432 807,-222.216c426,-175.55064 576,-216.6606 793,-216.6606c217,0 367,41.10996 793,216.6606c432,177.7728 594,222.216 807,222.216c213,0 375,-44.4432 807,-222.216c426,-175.55064 576,-216.6606 793,-216.6606c217,0 367,41.10996 793,216.6606c432,177.7728 594,222.216 807,222.216c213,0 375,-44.4432 807,-222.216c366,-151.10688 523,-198.88332 716,-217.77168l77,-7.77756l0,328.87968l0,328.87968l-59,0c-152,0 -334,53.33184 -721,211.1052c-480,195.55008 -590,226.66032 -820,226.66032c-230,0 -340,-31.11024 -820,-226.66032c-424,-173.32848 -565,-211.1052 -780,-211.1052c-215,0 -356,37.77672 -780,211.1052c-480,195.55008 -590,226.66032 -820,226.66032c-230,0 -340,-31.11024 -820,-226.66032c-424,-173.32848 -565,-211.1052 -780,-211.1052c-215,0 -356,37.77672 -780,211.1052c-480,195.55008 -590,226.66032 -820,226.66032c-230,0 -340,-31.11024 -820,-226.66032c-424,-173.32848 -565,-211.1052 -780,-211.1052c-215,0 -355,37.77672 -780,211.1052c-335,136.66284 -431,171.10632 -568,201.10548c-93,21.11052 -304,35.55456 -367,25.55484z" id="svg_3" fill="#27bcf7"/>
   <path stroke="null" d="m1505,3994.20597c-169,-24.44376 -301,-68.88696 -770,-259.99272c-247,-101.10828 -441,-157.77336 -580,-168.88416l-100,-8.88864l-3,-326.65752l-2,-325.54644l72,7.77756c194,18.88836 350,65.55372 703,211.1052c307,125.55204 381,153.32904 515,188.8836c261,68.88696 506,51.10968 805,-57.77616c44,-15.55512 193,-74.44236 330,-131.10744c412,-169.99524 560,-209.99412 775,-209.99412c215,0 363,39.99888 775,209.99412c307,125.55204 381,153.32904 515,188.8836c261,68.88696 506,51.10968 805,-57.77616c44,-15.55512 193,-74.44236 330,-131.10744c412,-169.99524 560,-209.99412 775,-209.99412c215,0 363,39.99888 775,209.99412c307,125.55204 381,153.32904 515,188.8836c208,54.44292 412,54.44292 620,0c134,-35.55456 208,-63.33156 515,-188.8836c412,-169.99524 560,-209.99412 775,-209.99412c215,0 363,39.99888 775,209.99412c307,125.55204 381,153.32904 515,188.8836c261,68.88696 506,51.10968 805,-57.77616c44,-15.55512 193,-74.44236 330,-131.10744c353,-145.55148 509,-192.21684 703,-211.1052l72,-7.77756l-2,325.54644l-3,326.65752l-100,8.88864c-139,11.1108 -333,67.77588 -580,168.88416c-380,155.5512 -459,184.43928 -579,217.77168c-175,46.66536 -311,61.1094 -444,45.55428c-199,-24.44376 -311,-61.1094 -807,-263.32596c-567,-231.10464 -803,-231.10464 -1370,0c-380,155.5512 -459,184.43928 -579,217.77168c-175,46.66536 -311,61.1094 -444,45.55428c-199,-24.44376 -311,-61.1094 -807,-263.32596c-567,-231.10464 -803,-231.10464 -1370,0c-380,155.5512 -459,184.43928 -579,217.77168c-175,46.66536 -311,61.1094 -444,45.55428c-199,-24.44376 -311,-61.1094 -807,-263.32596c-115,-46.66536 -271,-102.21936 -345,-123.32988c-332,-92.21964 -567,-63.33156 -1025,123.32988c-383,156.66228 -459,184.43928 -580,216.6606c-198,53.33184 -325,64.44264 -480,43.33212z" id="svg_4" fill="#27bcf7"/>
   <path stroke="null" d="m1550,2844.23816c-161,-16.6662 -335,-71.10912 -673,-208.88304c-399,-163.32876 -508,-198.88332 -667,-218.88276c-52,-6.66648 -110,-14.44404 -127,-16.6662l-33,-5.5554l0,-322.2132l0,-322.2132l63,6.66648c228,24.44376 334,56.66508 732,219.99384c451,184.43928 583,221.10492 805,221.10492c222,0 354,-36.66564 805,-221.10492c440,-181.10604 576,-217.77168 795,-217.77168c219,0 355,36.66564 795,217.77168c451,184.43928 583,221.10492 805,221.10492c222,0 354,-36.66564 805,-221.10492c440,-181.10604 576,-217.77168 795,-217.77168c219,0 355,36.66564 795,217.77168c451,184.43928 583,221.10492 805,221.10492c222,0 354,-36.66564 805,-221.10492c440,-181.10604 576,-217.77168 795,-217.77168c219,0 355,36.66564 795,217.77168c451,184.43928 583,221.10492 805,221.10492c222,0 354,-36.66564 805,-221.10492c398,-163.32876 504,-195.55008 733,-219.99384l62,-6.66648l0,322.2132l0,322.2132l-32,5.5554c-18,2.22216 -76,9.99972 -128,16.6662c-159,19.99944 -268,55.554 -667,218.88276c-415,169.99524 -557,207.77196 -773,207.77196c-211,0 -360,-38.8878 -736,-193.32792c-508,-208.88304 -635,-244.4376 -864,-244.4376c-229,0 -356,35.55456 -864,244.4376c-376,154.44012 -525,193.32792 -736,193.32792c-211,0 -360,-38.8878 -736,-193.32792c-508,-208.88304 -635,-244.4376 -864,-244.4376c-229,0 -356,35.55456 -864,244.4376c-376,154.44012 -525,193.32792 -736,193.32792c-211,0 -360,-38.8878 -736,-193.32792c-508,-208.88304 -635,-244.4376 -864,-244.4376c-229,0 -356,35.55456 -864,244.4376c-235,96.66396 -381,146.66256 -504,172.2174c-84,17.77728 -260,28.88808 -332,22.2216z" id="svg_5" fill="#27bcf7"/>
   <path stroke="null" d="m1540,1683.15955c-172,-17.77728 -303,-57.77616 -680,-212.21628c-306,-124.44096 -370,-147.77364 -495,-181.10604c-81,-21.11052 -256,-49.9986 -305,-49.9986c-7,0 -10,-106.66368 -10,-321.10212l0,-319.99104l73,4.44432c174,12.22188 341,63.33156 712,214.43844c395,162.21768 514,199.9944 708,222.216c126,15.55512 265,2.22216 422,-38.8878c127,-33.3324 203,-61.1094 500,-183.3282c429,-175.55064 568,-213.32736 785,-213.32736c217,0 356,37.77672 785,213.32736c297,122.2188 373,149.9958 500,183.3282c225,58.88724 405,58.88724 630,0c127,-33.3324 203,-61.1094 500,-183.3282c429,-175.55064 568,-213.32736 785,-213.32736c217,0 356,37.77672 785,213.32736c297,122.2188 373,149.9958 500,183.3282c225,58.88724 405,58.88724 630,0c127,-33.3324 203,-61.1094 500,-183.3282c429,-175.55064 568,-213.32736 785,-213.32736c217,0 356,37.77672 785,213.32736c395,162.21768 514,199.9944 708,222.216c126,15.55512 265,2.22216 422,-38.8878c127,-33.3324 203,-61.1094 500,-183.3282c371,-151.10688 538,-202.21656 713,-214.43844l72,-4.44432l0,319.99104c0,214.43844 -3,321.10212 -10,321.10212c-49,0 -224,28.88808 -305,49.9986c-125,33.3324 -189,56.66508 -495,181.10604c-441,179.99496 -570,215.54952 -790,215.54952c-220,0 -349,-35.55456 -790,-215.54952c-306,-124.44096 -370,-147.77364 -495,-181.10604c-225,-58.88724 -405,-58.88724 -630,0c-125,33.3324 -189,56.66508 -495,181.10604c-441,179.99496 -570,215.54952 -790,215.54952c-220,0 -349,-35.55456 -790,-215.54952c-306,-124.44096 -370,-147.77364 -495,-181.10604c-157,-41.10996 -296,-54.44292 -422,-38.8878c-194,22.2216 -303,56.66508 -703,219.99384c-441,179.99496 -570,215.54952 -790,215.54952c-220,0 -349,-35.55456 -790,-215.54952c-306,-124.44096 -370,-147.77364 -495,-181.10604c-225,-58.88724 -405,-58.88724 -630,0c-125,33.3324 -190,56.66508 -497,182.21712c-471,192.21684 -659,236.66004 -898,211.1052z" id="svg_6" fill="#27bcf7"/>
   <path stroke="null" d="m1435,510.97014c-132,-25.55484 -284,-78.88668 -583,-201.10548c-395,-161.1066 -591,-218.88276 -768,-227.7714c-34,-1.11108 -32,-2.22216 16,-8.88864l55,-7.77756l-52,-1.11108l-53,-2.22216l0,-294.4362l0,-294.4362l58,-2.22216l57,-1.11108l-60,-7.77756l-60,-7.77756l61,-1.11108c146,-4.44432 341,52.22076 742,216.6606c330,134.44068 479,184.43928 624,207.77196c274,45.55428 453,7.77756 980,-207.77196c434,-177.7728 583,-218.88276 798,-218.88276c215,0 364,41.10996 798,218.88276c527,215.54952 706,253.32624 980,207.77196c145,-23.33268 294,-73.33128 624,-207.77196c434,-177.7728 583,-218.88276 798,-218.88276c215,0 364,41.10996 798,218.88276c527,215.54952 706,253.32624 980,207.77196c145,-23.33268 294,-73.33128 624,-207.77196c434,-177.7728 583,-218.88276 798,-218.88276c215,0 364,41.10996 798,218.88276c330,134.44068 479,184.43928 624,207.77196c274,45.55428 453,7.77756 980,-207.77196c401,-164.43984 596,-221.10492 742,-216.6606l61,1.11108l-60,7.77756l-60,7.77756l58,1.11108l57,2.22216l0,294.4362l0,294.4362l-52,2.22216l-53,1.11108l55,7.77756c48,6.66648 50,7.77756 16,8.88864c-177,8.88864 -373,66.6648 -768,227.7714c-434,177.7728 -583,218.88276 -798,218.88276c-215,0 -364,-41.10996 -798,-218.88276c-330,-134.44068 -479,-184.43928 -624,-207.77196c-274,-45.55428 -453,-7.77756 -980,207.77196c-434,177.7728 -583,218.88276 -798,218.88276c-215,0 -364,-41.10996 -798,-218.88276c-330,-134.44068 -479,-184.43928 -624,-207.77196c-274,-45.55428 -453,-7.77756 -980,207.77196c-434,177.7728 -583,218.88276 -798,218.88276c-215,0 -364,-41.10996 -798,-218.88276c-330,-134.44068 -479,-184.43928 -624,-207.77196c-274,-45.55428 -453,-7.77756 -980,207.77196c-441,181.10604 -585,219.99384 -807,217.77168c-69,0 -162,-7.77756 -206,-16.6662zm273,-1.11108c-32,-2.22216 -84,-2.22216 -115,0c-32,2.22216 -6,3.33324 57,3.33324c63,0 89,-1.11108 58,-3.33324zm3200,0c-32,-2.22216 -84,-2.22216 -115,0c-32,2.22216 -6,3.33324 57,3.33324c63,0 89,-1.11108 58,-3.33324zm3200,0c-32,-2.22216 -84,-2.22216 -115,0c-32,2.22216 -6,3.33324 57,3.33324c63,0 89,-1.11108 58,-3.33324zm3200,0c-32,-2.22216 -84,-2.22216 -115,0c-32,2.22216 -6,3.33324 57,3.33324c63,0 89,-1.11108 58,-3.33324zm-9795,-11.1108c-13,-2.22216 -33,-2.22216 -45,0c-13,2.22216 -3,4.44432 22,4.44432c25,0 35,-2.22216 23,-4.44432zm320,0c-13,-2.22216 -33,-2.22216 -45,0c-13,2.22216 -3,4.44432 22,4.44432c25,0 35,-2.22216 23,-4.44432zm2880,0c-13,-2.22216 -33,-2.22216 -45,0c-13,2.22216 -3,4.44432 22,4.44432c25,0 35,-2.22216 23,-4.44432zm320,0c-13,-2.22216 -33,-2.22216 -45,0c-13,2.22216 -3,4.44432 22,4.44432c25,0 35,-2.22216 23,-4.44432zm2880,0c-13,-2.22216 -33,-2.22216 -45,0c-13,2.22216 -3,4.44432 22,4.44432c25,0 35,-2.22216 23,-4.44432zm320,0c-13,-2.22216 -33,-2.22216 -45,0c-13,2.22216 -3,4.44432 22,4.44432c25,0 35,-2.22216 23,-4.44432zm2880,0c-13,-2.22216 -33,-2.22216 -45,0c-13,2.22216 -3,4.44432 22,4.44432c25,0 35,-2.22216 23,-4.44432zm320,0c-13,-2.22216 -33,-2.22216 -45,0c-13,2.22216 -3,4.44432 22,4.44432c25,0 35,-2.22216 23,-4.44432zm-9996,-9.99972c-3,-3.33324 -12,-4.44432 -19,-1.11108c-8,3.33324 -5,6.66648 6,6.66648c11,1.11108 17,-2.22216 13,-5.5554zm450,0c-3,-3.33324 -12,-4.44432 -19,-1.11108c-8,3.33324 -5,6.66648 6,6.66648c11,1.11108 17,-2.22216 13,-5.5554zm2750,0c-3,-3.33324 -12,-4.44432 -19,-1.11108c-8,3.33324 -5,6.66648 6,6.66648c11,1.11108 17,-2.22216 13,-5.5554zm450,0c-3,-3.33324 -12,-4.44432 -19,-1.11108c-8,3.33324 -5,6.66648 6,6.66648c11,1.11108 17,-2.22216 13,-5.5554zm2750,0c-3,-3.33324 -12,-4.44432 -19,-1.11108c-8,3.33324 -5,6.66648 6,6.66648c11,1.11108 17,-2.22216 13,-5.5554zm450,0c-3,-3.33324 -12,-4.44432 -19,-1.11108c-8,3.33324 -5,6.66648 6,6.66648c11,1.11108 17,-2.22216 13,-5.5554zm2750,0c-3,-3.33324 -12,-4.44432 -19,-1.11108c-8,3.33324 -5,6.66648 6,6.66648c11,1.11108 17,-2.22216 13,-5.5554zm450,0c-3,-3.33324 -12,-4.44432 -19,-1.11108c-8,3.33324 -5,6.66648 6,6.66648c11,1.11108 17,-2.22216 13,-5.5554zm-10094,-12.22188c-7,-2.22216 -21,-2.22216 -30,0c-10,3.33324 -4,5.5554 12,5.5554c17,0 24,-2.22216 18,-5.5554zm550,0c-7,-2.22216 -21,-2.22216 -30,0c-10,3.33324 -4,5.5554 12,5.5554c17,0 24,-2.22216 18,-5.5554zm2650,0c-7,-2.22216 -21,-2.22216 -30,0c-10,3.33324 -4,5.5554 12,5.5554c17,0 24,-2.22216 18,-5.5554zm550,0c-7,-2.22216 -21,-2.22216 -30,0c-10,3.33324 -4,5.5554 12,5.5554c17,0 24,-2.22216 18,-5.5554zm2650,0c-7,-2.22216 -21,-2.22216 -30,0c-10,3.33324 -4,5.5554 12,5.5554c17,0 24,-2.22216 18,-5.5554zm550,0c-7,-2.22216 -21,-2.22216 -30,0c-10,3.33324 -4,5.5554 12,5.5554c17,0 24,-2.22216 18,-5.5554zm2650,0c-7,-2.22216 -21,-2.22216 -30,0c-10,3.33324 -4,5.5554 12,5.5554c17,0 24,-2.22216 18,-5.5554zm550,0c-7,-2.22216 -21,-2.22216 -30,0c-10,3.33324 -4,5.5554 12,5.5554c17,0 24,-2.22216 18,-5.5554zm-10218,-14.44404c-11,-5.5554 -29,-8.88864 -40,-8.88864c-16,0 -15,2.22216 5,8.88864c34,12.22188 60,12.22188 35,0zm685,0c20,-6.66648 21,-8.88864 5,-8.88864c-11,0 -29,3.33324 -40,8.88864c-25,12.22188 1,12.22188 35,0zm2515,0c-11,-5.5554 -29,-8.88864 -40,-8.88864c-16,0 -15,2.22216 5,8.88864c34,12.22188 60,12.22188 35,0zm685,0c20,-6.66648 21,-8.88864 5,-8.88864c-11,0 -29,3.33324 -40,8.88864c-25,12.22188 1,12.22188 35,0zm2515,0c-11,-5.5554 -29,-8.88864 -40,-8.88864c-16,0 -15,2.22216 5,8.88864c34,12.22188 60,12.22188 35,0zm685,0c20,-6.66648 21,-8.88864 5,-8.88864c-11,0 -29,3.33324 -40,8.88864c-25,12.22188 1,12.22188 35,0zm2515,0c-11,-5.5554 -29,-8.88864 -40,-8.88864c-16,0 -15,2.22216 5,8.88864c34,12.22188 60,12.22188 35,0zm685,0c20,-6.66648 21,-8.88864 5,-8.88864c-11,0 -29,3.33324 -40,8.88864c-25,12.22188 1,12.22188 35,0zm-10351,-15.55512c-8,-7.77756 -282,-106.66368 -286,-102.21936c-2,2.22216 58,26.66592 134,55.554c127,46.66536 163,57.77616 152,46.66536zm933,-46.66536c76,-28.88808 137,-53.33184 135,-55.554c-4,-4.44432 -278,94.4418 -286,102.21936c-11,11.1108 21,1.11108 151,-46.66536zm2267,46.66536c-8,-7.77756 -282,-106.66368 -286,-102.21936c-2,2.22216 58,26.66592 134,55.554c127,46.66536 163,57.77616 152,46.66536zm933,-46.66536c76,-28.88808 137,-53.33184 135,-55.554c-4,-4.44432 -278,94.4418 -286,102.21936c-11,11.1108 21,1.11108 151,-46.66536zm2267,46.66536c-8,-7.77756 -282,-106.66368 -286,-102.21936c-2,2.22216 58,26.66592 134,55.554c127,46.66536 163,57.77616 152,46.66536zm933,-46.66536c76,-28.88808 137,-53.33184 135,-55.554c-4,-4.44432 -278,94.4418 -286,102.21936c-11,11.1108 21,1.11108 151,-46.66536zm2267,46.66536c-8,-7.77756 -282,-106.66368 -286,-102.21936c-2,2.22216 58,26.66592 134,55.554c127,46.66536 163,57.77616 152,46.66536zm933,-46.66536c76,-28.88808 137,-53.33184 135,-55.554c-4,-4.44432 -278,94.4418 -286,102.21936c-11,11.1108 21,1.11108 151,-46.66536zm-10917,-104.44152c-22,-11.1108 -47,-21.11052 -55,-21.11052c-8,0 5,9.99972 30,21.11052c58,26.66592 77,26.66592 25,0zm1589,-6.66648c17,-7.77756 24,-14.44404 16,-14.44404c-8,0 -33,9.99972 -55,22.2216c-43,22.2216 -11,16.6662 39,-7.77756zm1611,6.66648c-22,-11.1108 -47,-21.11052 -55,-21.11052c-8,0 5,9.99972 30,21.11052c58,26.66592 77,26.66592 25,0zm1589,-6.66648c17,-7.77756 24,-14.44404 16,-14.44404c-8,0 -33,9.99972 -55,22.2216c-43,22.2216 -11,16.6662 39,-7.77756zm1611,6.66648c-22,-11.1108 -47,-21.11052 -55,-21.11052c-8,0 5,9.99972 30,21.11052c58,26.66592 77,26.66592 25,0zm1589,-6.66648c17,-7.77756 24,-14.44404 16,-14.44404c-8,0 -33,9.99972 -55,22.2216c-43,22.2216 -11,16.6662 39,-7.77756zm1611,6.66648c-22,-11.1108 -47,-21.11052 -55,-21.11052c-8,0 5,9.99972 30,21.11052c58,26.66592 77,26.66592 25,0zm1589,-6.66648c17,-7.77756 24,-14.44404 16,-14.44404c-8,0 -33,9.99972 -55,22.2216c-43,22.2216 -11,16.6662 39,-7.77756zm-11349,-59.99832c-22,-11.1108 -47,-21.11052 -55,-21.11052c-8,0 5,9.99972 30,21.11052c58,26.66592 77,26.66592 25,0zm1909,-6.66648c17,-7.77756 24,-14.44404 16,-14.44404c-8,0 -33,9.99972 -55,22.2216c-43,22.2216 -11,16.6662 39,-7.77756zm1291,6.66648c-22,-11.1108 -47,-21.11052 -55,-21.11052c-8,0 5,9.99972 30,21.11052c58,26.66592 77,26.66592 25,0zm1909,-6.66648c17,-7.77756 24,-14.44404 16,-14.44404c-8,0 -33,9.99972 -55,22.2216c-43,22.2216 -11,16.6662 39,-7.77756zm1291,6.66648c-22,-11.1108 -47,-21.11052 -55,-21.11052c-8,0 5,9.99972 30,21.11052c58,26.66592 77,26.66592 25,0zm1909,-6.66648c17,-7.77756 24,-14.44404 16,-14.44404c-8,0 -33,9.99972 -55,22.2216c-43,22.2216 -11,16.6662 39,-7.77756zm1291,6.66648c-22,-11.1108 -47,-21.11052 -55,-21.11052c-8,0 5,9.99972 30,21.11052c58,26.66592 77,26.66592 25,0zm1909,-6.66648c17,-7.77756 24,-14.44404 16,-14.44404c-8,0 -33,9.99972 -55,22.2216c-43,22.2216 -11,16.6662 39,-7.77756zm-11594,-26.66592c-8,-5.5554 -22,-9.99972 -30,-9.99972c-10,0 -8,3.33324 5,9.99972c27,13.33296 43,13.33296 25,0zm2065,0c13,-6.66648 15,-9.99972 5,-9.99972c-8,0 -22,4.44432 -30,9.99972c-18,13.33296 -2,13.33296 25,0zm1135,0c-8,-5.5554 -22,-9.99972 -30,-9.99972c-10,0 -8,3.33324 5,9.99972c27,13.33296 43,13.33296 25,0zm2065,0c13,-6.66648 15,-9.99972 5,-9.99972c-8,0 -22,4.44432 -30,9.99972c-18,13.33296 -2,13.33296 25,0zm1135,0c-8,-5.5554 -22,-9.99972 -30,-9.99972c-10,0 -8,3.33324 5,9.99972c27,13.33296 43,13.33296 25,0zm2065,0c13,-6.66648 15,-9.99972 5,-9.99972c-8,0 -22,4.44432 -30,9.99972c-18,13.33296 -2,13.33296 25,0zm1135,0c-8,-5.5554 -22,-9.99972 -30,-9.99972c-10,0 -8,3.33324 5,9.99972c27,13.33296 43,13.33296 25,0zm2065,0c13,-6.66648 15,-9.99972 5,-9.99972c-8,0 -22,4.44432 -30,9.99972c-18,13.33296 -2,13.33296 25,0zm-11725,-22.2216c-8,-5.5554 -22,-9.99972 -30,-9.99972c-10,0 -8,3.33324 5,9.99972c27,13.33296 43,13.33296 25,0zm2185,0c13,-6.66648 15,-9.99972 5,-9.99972c-8,0 -22,4.44432 -30,9.99972c-18,13.33296 -2,13.33296 25,0zm1015,0c-8,-5.5554 -22,-9.99972 -30,-9.99972c-10,0 -8,3.33324 5,9.99972c27,13.33296 43,13.33296 25,0zm2185,0c13,-6.66648 15,-9.99972 5,-9.99972c-8,0 -22,4.44432 -30,9.99972c-18,13.33296 -2,13.33296 25,0zm1015,0c-8,-5.5554 -22,-9.99972 -30,-9.99972c-10,0 -8,3.33324 5,9.99972c27,13.33296 43,13.33296 25,0zm2185,0c13,-6.66648 15,-9.99972 5,-9.99972c-8,0 -22,4.44432 -30,9.99972c-18,13.33296 -2,13.33296 25,0zm1015,0c-8,-5.5554 -22,-9.99972 -30,-9.99972c-10,0 -8,3.33324 5,9.99972c27,13.33296 43,13.33296 25,0zm2185,0c13,-6.66648 15,-9.99972 5,-9.99972c-8,0 -22,4.44432 -30,9.99972c-18,13.33296 -2,13.33296 25,0zm-11845,-21.11052c-8,-5.5554 -31,-12.22188 -50,-15.55512c-35,-6.66648 -35,-6.66648 5,8.88864c46,16.6662 67,19.99944 45,6.66648zm2345,-14.44404c13,-5.5554 9,-6.66648 -15,-2.22216c-19,4.44432 -42,11.1108 -50,16.6662c-18,12.22188 34,1.11108 65,-14.44404zm855,14.44404c-8,-5.5554 -31,-12.22188 -50,-15.55512c-35,-6.66648 -35,-6.66648 5,8.88864c46,16.6662 67,19.99944 45,6.66648zm2345,-14.44404c13,-5.5554 9,-6.66648 -15,-2.22216c-19,4.44432 -42,11.1108 -50,16.6662c-18,12.22188 34,1.11108 65,-14.44404zm855,14.44404c-8,-5.5554 -31,-12.22188 -50,-15.55512c-35,-6.66648 -35,-6.66648 5,8.88864c46,16.6662 67,19.99944 45,6.66648zm2345,-14.44404c13,-5.5554 9,-6.66648 -15,-2.22216c-19,4.44432 -42,11.1108 -50,16.6662c-18,12.22188 34,1.11108 65,-14.44404zm855,14.44404c-8,-5.5554 -31,-12.22188 -50,-15.55512c-35,-6.66648 -35,-6.66648 5,8.88864c46,16.6662 67,19.99944 45,6.66648zm2345,-14.44404c13,-5.5554 9,-6.66648 -15,-2.22216c-19,4.44432 -42,11.1108 -50,16.6662c-18,12.22188 34,1.11108 65,-14.44404zm-12055,-19.99944c-34,-12.22188 -60,-12.22188 -35,0c11,5.5554 29,8.88864 40,8.88864c16,0 15,-2.22216 -5,-8.88864zm2535,0c25,-12.22188 -1,-12.22188 -35,0c-20,6.66648 -21,8.88864 -5,8.88864c11,0 29,-3.33324 40,-8.88864zm665,0c-34,-12.22188 -60,-12.22188 -35,0c11,5.5554 29,8.88864 40,8.88864c16,0 15,-2.22216 -5,-8.88864zm2535,0c25,-12.22188 -1,-12.22188 -35,0c-20,6.66648 -21,8.88864 -5,8.88864c11,0 29,-3.33324 40,-8.88864zm665,0c-34,-12.22188 -60,-12.22188 -35,0c11,5.5554 29,8.88864 40,8.88864c16,0 15,-2.22216 -5,-8.88864zm2535,0c25,-12.22188 -1,-12.22188 -35,0c-20,6.66648 -21,8.88864 -5,8.88864c11,0 29,-3.33324 40,-8.88864zm665,0c-34,-12.22188 -60,-12.22188 -35,0c11,5.5554 29,8.88864 40,8.88864c16,0 15,-2.22216 -5,-8.88864zm2535,0c25,-12.22188 -1,-12.22188 -35,0c-20,6.66648 -21,8.88864 -5,8.88864c11,0 29,-3.33324 40,-8.88864zm-12220,-22.2216c-16,-4.44432 -39,-8.88864 -50,-8.88864c-16,0 -15,2.22216 5,8.88864c14,4.44432 36,8.88864 50,8.88864c22,0 22,-1.11108 -5,-8.88864zm2715,0c20,-6.66648 21,-8.88864 5,-8.88864c-11,0 -33,4.44432 -50,8.88864c-27,7.77756 -27,8.88864 -5,8.88864c14,0 36,-4.44432 50,-8.88864zm485,0c-16,-4.44432 -39,-8.88864 -50,-8.88864c-16,0 -15,2.22216 5,8.88864c14,4.44432 36,8.88864 50,8.88864c22,0 22,-1.11108 -5,-8.88864zm2715,0c20,-6.66648 21,-8.88864 5,-8.88864c-11,0 -33,4.44432 -50,8.88864c-27,7.77756 -27,8.88864 -5,8.88864c14,0 36,-4.44432 50,-8.88864zm485,0c-16,-4.44432 -39,-8.88864 -50,-8.88864c-16,0 -15,2.22216 5,8.88864c14,4.44432 36,8.88864 50,8.88864c22,0 22,-1.11108 -5,-8.88864zm2715,0c20,-6.66648 21,-8.88864 5,-8.88864c-11,0 -33,4.44432 -50,8.88864c-27,7.77756 -27,8.88864 -5,8.88864c14,0 36,-4.44432 50,-8.88864zm485,0c-16,-4.44432 -39,-8.88864 -50,-8.88864c-16,0 -15,2.22216 5,8.88864c14,4.44432 36,8.88864 50,8.88864c22,0 22,-1.11108 -5,-8.88864zm2715,0c20,-6.66648 21,-8.88864 5,-8.88864c-11,0 -33,4.44432 -50,8.88864c-27,7.77756 -27,8.88864 -5,8.88864c14,0 36,-4.44432 50,-8.88864zm-12407,-18.88836c-13,-2.22216 -33,-2.22216 -45,0c-13,2.22216 -3,4.44432 22,4.44432c25,0 35,-2.22216 23,-4.44432zm2900,0c-13,-2.22216 -33,-2.22216 -45,0c-13,2.22216 -3,4.44432 22,4.44432c25,0 35,-2.22216 23,-4.44432zm300,0c-13,-2.22216 -33,-2.22216 -45,0c-13,2.22216 -3,4.44432 22,4.44432c25,0 35,-2.22216 23,-4.44432zm2900,0c-13,-2.22216 -33,-2.22216 -45,0c-13,2.22216 -3,4.44432 22,4.44432c25,0 35,-2.22216 23,-4.44432zm300,0c-13,-2.22216 -33,-2.22216 -45,0c-13,2.22216 -3,4.44432 22,4.44432c25,0 35,-2.22216 23,-4.44432zm2900,0c-13,-2.22216 -33,-2.22216 -45,0c-13,2.22216 -3,4.44432 22,4.44432c25,0 35,-2.22216 23,-4.44432zm300,0c-13,-2.22216 -33,-2.22216 -45,0c-13,2.22216 -3,4.44432 22,4.44432c25,0 35,-2.22216 23,-4.44432zm2900,0c-13,-2.22216 -33,-2.22216 -45,0c-13,2.22216 -3,4.44432 22,4.44432c25,0 35,-2.22216 23,-4.44432zm-9420,-11.1108c-29,-2.22216 -77,-2.22216 -105,0c-29,2.22216 -6,3.33324 52,3.33324c58,0 81,-1.11108 53,-3.33324zm3200,0c-29,-2.22216 -77,-2.22216 -105,0c-29,2.22216 -6,3.33324 52,3.33324c58,0 81,-1.11108 53,-3.33324zm3200,0c-29,-2.22216 -77,-2.22216 -105,0c-29,2.22216 -6,3.33324 52,3.33324c58,0 81,-1.11108 53,-3.33324zm-8000,-155.5512c-29,-2.22216 -77,-2.22216 -105,0c-29,2.22216 -6,3.33324 52,3.33324c58,0 81,-1.11108 53,-3.33324zm3200,0c-29,-2.22216 -77,-2.22216 -105,0c-29,2.22216 -6,3.33324 52,3.33324c58,0 81,-1.11108 53,-3.33324zm3200,0c-29,-2.22216 -77,-2.22216 -105,0c-29,2.22216 -6,3.33324 52,3.33324c58,0 81,-1.11108 53,-3.33324zm3200,0c-29,-2.22216 -77,-2.22216 -105,0c-29,2.22216 -6,3.33324 52,3.33324c58,0 81,-1.11108 53,-3.33324zm-9780,-11.1108c-13,-2.22216 -33,-2.22216 -45,0c-13,2.22216 -3,4.44432 22,4.44432c25,0 35,-2.22216 23,-4.44432zm300,0c-13,-2.22216 -33,-2.22216 -45,0c-13,2.22216 -3,4.44432 22,4.44432c25,0 35,-2.22216 23,-4.44432zm2900,0c-13,-2.22216 -33,-2.22216 -45,0c-13,2.22216 -3,4.44432 22,4.44432c25,0 35,-2.22216 23,-4.44432zm300,0c-13,-2.22216 -33,-2.22216 -45,0c-13,2.22216 -3,4.44432 22,4.44432c25,0 35,-2.22216 23,-4.44432zm2900,0c-13,-2.22216 -33,-2.22216 -45,0c-13,2.22216 -3,4.44432 22,4.44432c25,0 35,-2.22216 23,-4.44432zm300,0c-13,-2.22216 -33,-2.22216 -45,0c-13,2.22216 -3,4.44432 22,4.44432c25,0 35,-2.22216 23,-4.44432zm2900,0c-13,-2.22216 -33,-2.22216 -45,0c-13,2.22216 -3,4.44432 22,4.44432c25,0 35,-2.22216 23,-4.44432zm300,0c-13,-2.22216 -33,-2.22216 -45,0c-13,2.22216 -3,4.44432 22,4.44432c25,0 35,-2.22216 23,-4.44432zm-9993,-14.44404c-14,-4.44432 -36,-8.88864 -50,-8.88864c-22,0 -22,1.11108 5,8.88864c17,4.44432 39,8.88864 50,8.88864c16,0 15,-2.22216 -5,-8.88864zm485,0c27,-7.77756 27,-8.88864 5,-8.88864c-14,0 -36,4.44432 -50,8.88864c-20,6.66648 -21,8.88864 -5,8.88864c11,0 34,-4.44432 50,-8.88864zm2715,0c-14,-4.44432 -36,-8.88864 -50,-8.88864c-22,0 -22,1.11108 5,8.88864c17,4.44432 39,8.88864 50,8.88864c16,0 15,-2.22216 -5,-8.88864zm485,0c27,-7.77756 27,-8.88864 5,-8.88864c-14,0 -36,4.44432 -50,8.88864c-20,6.66648 -21,8.88864 -5,8.88864c11,0 34,-4.44432 50,-8.88864zm2715,0c-14,-4.44432 -36,-8.88864 -50,-8.88864c-22,0 -22,1.11108 5,8.88864c17,4.44432 39,8.88864 50,8.88864c16,0 15,-2.22216 -5,-8.88864zm485,0c27,-7.77756 27,-8.88864 5,-8.88864c-14,0 -36,4.44432 -50,8.88864c-20,6.66648 -21,8.88864 -5,8.88864c11,0 34,-4.44432 50,-8.88864zm2715,0c-14,-4.44432 -36,-8.88864 -50,-8.88864c-22,0 -22,1.11108 5,8.88864c17,4.44432 39,8.88864 50,8.88864c16,0 15,-2.22216 -5,-8.88864zm485,0c27,-7.77756 27,-8.88864 5,-8.88864c-14,0 -36,4.44432 -50,8.88864c-20,6.66648 -21,8.88864 -5,8.88864c11,0 34,-4.44432 50,-8.88864zm-10180,-22.2216c-11,-5.5554 -29,-8.88864 -40,-8.88864c-16,0 -15,2.22216 5,8.88864c34,12.22188 60,12.22188 35,0zm665,0c20,-6.66648 21,-8.88864 5,-8.88864c-11,0 -29,3.33324 -40,8.88864c-25,12.22188 1,12.22188 35,0zm2535,0c-11,-5.5554 -29,-8.88864 -40,-8.88864c-16,0 -15,2.22216 5,8.88864c34,12.22188 60,12.22188 35,0zm665,0c20,-6.66648 21,-8.88864 5,-8.88864c-11,0 -29,3.33324 -40,8.88864c-25,12.22188 1,12.22188 35,0zm2535,0c-11,-5.5554 -29,-8.88864 -40,-8.88864c-16,0 -15,2.22216 5,8.88864c34,12.22188 60,12.22188 35,0zm665,0c20,-6.66648 21,-8.88864 5,-8.88864c-11,0 -29,3.33324 -40,8.88864c-25,12.22188 1,12.22188 35,0zm2535,0c-11,-5.5554 -29,-8.88864 -40,-8.88864c-16,0 -15,2.22216 5,8.88864c34,12.22188 60,12.22188 35,0zm665,0c20,-6.66648 21,-8.88864 5,-8.88864c-11,0 -29,3.33324 -40,8.88864c-25,12.22188 1,12.22188 35,0zm-10369,-28.88808c-25,-8.88864 -47,-13.33296 -49,-9.99972c-5,5.5554 56,25.55484 78,25.55484c8,0 -5,-6.66648 -29,-15.55512zm879,-5.5554c18,-12.22188 -34,-1.11108 -65,14.44404c-13,5.5554 -9,6.66648 15,2.22216c19,-4.44432 42,-11.1108 50,-16.6662zm2321,5.5554c-25,-8.88864 -47,-13.33296 -49,-9.99972c-5,5.5554 56,25.55484 78,25.55484c8,0 -5,-6.66648 -29,-15.55512zm879,-5.5554c18,-12.22188 -34,-1.11108 -65,14.44404c-13,5.5554 -9,6.66648 15,2.22216c19,-4.44432 42,-11.1108 50,-16.6662zm2321,5.5554c-25,-8.88864 -47,-13.33296 -49,-9.99972c-5,5.5554 56,25.55484 78,25.55484c8,0 -5,-6.66648 -29,-15.55512zm879,-5.5554c18,-12.22188 -34,-1.11108 -65,14.44404c-13,5.5554 -9,6.66648 15,2.22216c19,-4.44432 42,-11.1108 50,-16.6662zm2321,5.5554c-25,-8.88864 -47,-13.33296 -49,-9.99972c-5,5.5554 56,25.55484 78,25.55484c8,0 -5,-6.66648 -29,-15.55512zm879,-5.5554c18,-12.22188 -34,-1.11108 -65,14.44404c-13,5.5554 -9,6.66648 15,2.22216c19,-4.44432 42,-11.1108 50,-16.6662zm-10555,-21.11052c-27,-13.33296 -43,-13.33296 -25,0c8,5.5554 22,9.99972 30,9.99972c10,0 8,-3.33324 -5,-9.99972zm1015,0c18,-13.33296 2,-13.33296 -25,0c-13,6.66648 -15,9.99972 -5,9.99972c8,0 22,-4.44432 30,-9.99972zm2185,0c-27,-13.33296 -43,-13.33296 -25,0c8,5.5554 22,9.99972 30,9.99972c10,0 8,-3.33324 -5,-9.99972zm1015,0c18,-13.33296 2,-13.33296 -25,0c-13,6.66648 -15,9.99972 -5,9.99972c8,0 22,-4.44432 30,-9.99972zm2185,0c-27,-13.33296 -43,-13.33296 -25,0c8,5.5554 22,9.99972 30,9.99972c10,0 8,-3.33324 -5,-9.99972zm1015,0c18,-13.33296 2,-13.33296 -25,0c-13,6.66648 -15,9.99972 -5,9.99972c8,0 22,-4.44432 30,-9.99972zm2185,0c-27,-13.33296 -43,-13.33296 -25,0c8,5.5554 22,9.99972 30,9.99972c10,0 8,-3.33324 -5,-9.99972zm1015,0c18,-13.33296 2,-13.33296 -25,0c-13,6.66648 -15,9.99972 -5,9.99972c8,0 22,-4.44432 30,-9.99972zm-10675,-22.2216c-27,-13.33296 -43,-13.33296 -25,0c8,5.5554 22,9.99972 30,9.99972c10,0 8,-3.33324 -5,-9.99972zm1135,0c18,-13.33296 2,-13.33296 -25,0c-13,6.66648 -15,9.99972 -5,9.99972c8,0 22,-4.44432 30,-9.99972zm2065,0c-27,-13.33296 -43,-13.33296 -25,0c8,5.5554 22,9.99972 30,9.99972c10,0 8,-3.33324 -5,-9.99972zm1135,0c18,-13.33296 2,-13.33296 -25,0c-13,6.66648 -15,9.99972 -5,9.99972c8,0 22,-4.44432 30,-9.99972zm2065,0c-27,-13.33296 -43,-13.33296 -25,0c8,5.5554 22,9.99972 30,9.99972c10,0 8,-3.33324 -5,-9.99972zm1135,0c18,-13.33296 2,-13.33296 -25,0c-13,6.66648 -15,9.99972 -5,9.99972c8,0 22,-4.44432 30,-9.99972zm2065,0c-27,-13.33296 -43,-13.33296 -25,0c8,5.5554 22,9.99972 30,9.99972c10,0 8,-3.33324 -5,-9.99972zm1135,0c18,-13.33296 2,-13.33296 -25,0c-13,6.66648 -15,9.99972 -5,9.99972c8,0 22,-4.44432 30,-9.99972zm-10806,-26.66592c-50,-24.44376 -82,-29.99916 -39,-7.77756c22,12.22188 47,22.2216 55,22.2216c8,0 1,-6.66648 -16,-14.44404zm1291,-7.77756c22,-11.1108 29,-17.77728 16,-14.44404c-37,11.1108 -88,36.66564 -71,36.66564c8,0 33,-9.99972 55,-22.2216zm1909,7.77756c-50,-24.44376 -82,-29.99916 -39,-7.77756c22,12.22188 47,22.2216 55,22.2216c8,0 1,-6.66648 -16,-14.44404zm1291,-7.77756c22,-11.1108 29,-17.77728 16,-14.44404c-37,11.1108 -88,36.66564 -71,36.66564c8,0 33,-9.99972 55,-22.2216zm1909,7.77756c-50,-24.44376 -82,-29.99916 -39,-7.77756c22,12.22188 47,22.2216 55,22.2216c8,0 1,-6.66648 -16,-14.44404zm1291,-7.77756c22,-11.1108 29,-17.77728 16,-14.44404c-37,11.1108 -88,36.66564 -71,36.66564c8,0 33,-9.99972 55,-22.2216zm1909,7.77756c-50,-24.44376 -82,-29.99916 -39,-7.77756c22,12.22188 47,22.2216 55,22.2216c8,0 1,-6.66648 -16,-14.44404zm1291,-7.77756c22,-11.1108 29,-17.77728 16,-14.44404c-37,11.1108 -88,36.66564 -71,36.66564c8,0 33,-9.99972 55,-22.2216zm-11051,-58.88724c-50,-24.44376 -82,-29.99916 -39,-7.77756c22,12.22188 47,22.2216 55,22.2216c8,0 1,-6.66648 -16,-14.44404zm1611,-7.77756c22,-11.1108 29,-17.77728 16,-14.44404c-37,11.1108 -88,36.66564 -71,36.66564c8,0 33,-9.99972 55,-22.2216zm1589,7.77756c-50,-24.44376 -82,-29.99916 -39,-7.77756c22,12.22188 47,22.2216 55,22.2216c8,0 1,-6.66648 -16,-14.44404zm1611,-7.77756c22,-11.1108 29,-17.77728 16,-14.44404c-37,11.1108 -88,36.66564 -71,36.66564c8,0 33,-9.99972 55,-22.2216zm1589,7.77756c-50,-24.44376 -82,-29.99916 -39,-7.77756c22,12.22188 47,22.2216 55,22.2216c8,0 1,-6.66648 -16,-14.44404zm1611,-7.77756c22,-11.1108 29,-17.77728 16,-14.44404c-37,11.1108 -88,36.66564 -71,36.66564c8,0 33,-9.99972 55,-22.2216zm1589,7.77756c-50,-24.44376 -82,-29.99916 -39,-7.77756c22,12.22188 47,22.2216 55,22.2216c8,0 1,-6.66648 -16,-14.44404zm1611,-7.77756c22,-11.1108 29,-17.77728 16,-14.44404c-37,11.1108 -88,36.66564 -71,36.66564c8,0 33,-9.99972 55,-22.2216zm-11372,-59.99832c-48,-23.33268 -255,-95.55288 -259,-91.10856c-2,2.22216 56,26.66592 129,54.44292c131,48.88752 192,66.6648 130,36.66564zm2025,-37.77672c72,-26.66592 130,-51.10968 128,-53.33184c-4,-5.5554 -213,68.88696 -259,92.21964c-49,24.44376 -16,14.44404 131,-38.8878zm1175,37.77672c-48,-23.33268 -255,-95.55288 -259,-91.10856c-2,2.22216 56,26.66592 129,54.44292c131,48.88752 192,66.6648 130,36.66564zm2025,-37.77672c72,-26.66592 130,-51.10968 128,-53.33184c-4,-5.5554 -213,68.88696 -259,92.21964c-49,24.44376 -16,14.44404 131,-38.8878zm1175,37.77672c-48,-23.33268 -255,-95.55288 -259,-91.10856c-2,2.22216 56,26.66592 129,54.44292c131,48.88752 192,66.6648 130,36.66564zm2025,-37.77672c72,-26.66592 130,-51.10968 128,-53.33184c-4,-5.5554 -213,68.88696 -259,92.21964c-49,24.44376 -16,14.44404 131,-38.8878zm1175,37.77672c-48,-23.33268 -255,-95.55288 -259,-91.10856c-2,2.22216 56,26.66592 129,54.44292c131,48.88752 192,66.6648 130,36.66564zm2025,-37.77672c72,-26.66592 130,-51.10968 128,-53.33184c-4,-5.5554 -213,68.88696 -259,92.21964c-49,24.44376 -16,14.44404 131,-38.8878zm-11918,-67.77588c-34,-12.22188 -60,-12.22188 -35,0c11,5.5554 29,8.88864 40,8.88864c16,0 15,-2.22216 -5,-8.88864zm2515,0c25,-12.22188 -1,-12.22188 -35,0c-20,6.66648 -21,8.88864 -5,8.88864c11,0 29,-3.33324 40,-8.88864zm685,0c-34,-12.22188 -60,-12.22188 -35,0c11,5.5554 29,8.88864 40,8.88864c16,0 15,-2.22216 -5,-8.88864zm2515,0c25,-12.22188 -1,-12.22188 -35,0c-20,6.66648 -21,8.88864 -5,8.88864c11,0 29,-3.33324 40,-8.88864zm685,0c-34,-12.22188 -60,-12.22188 -35,0c11,5.5554 29,8.88864 40,8.88864c16,0 15,-2.22216 -5,-8.88864zm2515,0c25,-12.22188 -1,-12.22188 -35,0c-20,6.66648 -21,8.88864 -5,8.88864c11,0 29,-3.33324 40,-8.88864zm685,0c-34,-12.22188 -60,-12.22188 -35,0c11,5.5554 29,8.88864 40,8.88864c16,0 15,-2.22216 -5,-8.88864zm2515,0c25,-12.22188 -1,-12.22188 -35,0c-20,6.66648 -21,8.88864 -5,8.88864c11,0 29,-3.33324 40,-8.88864zm-12182,-18.88836c-7,-2.22216 -21,-2.22216 -30,0c-10,3.33324 -4,5.5554 12,5.5554c17,0 24,-2.22216 18,-5.5554zm2650,0c-7,-2.22216 -21,-2.22216 -30,0c-10,3.33324 -4,5.5554 12,5.5554c17,0 24,-2.22216 18,-5.5554zm550,0c-7,-2.22216 -21,-2.22216 -30,0c-10,3.33324 -4,5.5554 12,5.5554c17,0 24,-2.22216 18,-5.5554zm2650,0c-7,-2.22216 -21,-2.22216 -30,0c-10,3.33324 -4,5.5554 12,5.5554c17,0 24,-2.22216 18,-5.5554zm550,0c-7,-2.22216 -21,-2.22216 -30,0c-10,3.33324 -4,5.5554 12,5.5554c17,0 24,-2.22216 18,-5.5554zm2650,0c-7,-2.22216 -21,-2.22216 -30,0c-10,3.33324 -4,5.5554 12,5.5554c17,0 24,-2.22216 18,-5.5554zm550,0c-7,-2.22216 -21,-2.22216 -30,0c-10,3.33324 -4,5.5554 12,5.5554c17,0 24,-2.22216 18,-5.5554zm2650,0c-7,-2.22216 -21,-2.22216 -30,0c-10,3.33324 -4,5.5554 12,5.5554c17,0 24,-2.22216 18,-5.5554zm-12306,-9.99972c-3,-3.33324 -12,-4.44432 -19,-1.11108c-8,3.33324 -5,6.66648 6,6.66648c11,1.11108 17,-2.22216 13,-5.5554zm2750,0c-3,-3.33324 -12,-4.44432 -19,-1.11108c-8,3.33324 -5,6.66648 6,6.66648c11,1.11108 17,-2.22216 13,-5.5554zm450,0c-3,-3.33324 -12,-4.44432 -19,-1.11108c-8,3.33324 -5,6.66648 6,6.66648c11,1.11108 17,-2.22216 13,-5.5554zm2750,0c-3,-3.33324 -12,-4.44432 -19,-1.11108c-8,3.33324 -5,6.66648 6,6.66648c11,1.11108 17,-2.22216 13,-5.5554zm450,0c-3,-3.33324 -12,-4.44432 -19,-1.11108c-8,3.33324 -5,6.66648 6,6.66648c11,1.11108 17,-2.22216 13,-5.5554zm2750,0c-3,-3.33324 -12,-4.44432 -19,-1.11108c-8,3.33324 -5,6.66648 6,6.66648c11,1.11108 17,-2.22216 13,-5.5554zm450,0c-3,-3.33324 -12,-4.44432 -19,-1.11108c-8,3.33324 -5,6.66648 6,6.66648c11,1.11108 17,-2.22216 13,-5.5554zm2750,0c-3,-3.33324 -12,-4.44432 -19,-1.11108c-8,3.33324 -5,6.66648 6,6.66648c11,1.11108 17,-2.22216 13,-5.5554zm-12399,-12.22188c-10,-2.22216 -28,-2.22216 -40,0c-13,2.22216 -5,4.44432 17,4.44432c22,1.11108 32,-1.11108 23,-4.44432zm2870,0c-10,-2.22216 -28,-2.22216 -40,0c-13,2.22216 -5,4.44432 17,4.44432c22,1.11108 32,-1.11108 23,-4.44432zm330,0c-10,-2.22216 -28,-2.22216 -40,0c-13,2.22216 -5,4.44432 17,4.44432c22,1.11108 32,-1.11108 23,-4.44432zm2870,0c-10,-2.22216 -28,-2.22216 -40,0c-13,2.22216 -5,4.44432 17,4.44432c22,1.11108 32,-1.11108 23,-4.44432zm330,0c-10,-2.22216 -28,-2.22216 -40,0c-13,2.22216 -5,4.44432 17,4.44432c22,1.11108 32,-1.11108 23,-4.44432zm2870,0c-10,-2.22216 -28,-2.22216 -40,0c-13,2.22216 -5,4.44432 17,4.44432c22,1.11108 32,-1.11108 23,-4.44432zm330,0c-10,-2.22216 -28,-2.22216 -40,0c-13,2.22216 -5,4.44432 17,4.44432c22,1.11108 32,-1.11108 23,-4.44432zm2870,0c-10,-2.22216 -28,-2.22216 -40,0c-13,2.22216 -5,4.44432 17,4.44432c22,1.11108 32,-1.11108 23,-4.44432zm-9400,-11.1108c-32,-2.22216 -84,-2.22216 -115,0c-32,2.22216 -6,3.33324 57,3.33324c63,0 89,-1.11108 58,-3.33324zm3200,0c-32,-2.22216 -84,-2.22216 -115,0c-32,2.22216 -6,3.33324 57,3.33324c63,0 89,-1.11108 58,-3.33324zm3200,0c-32,-2.22216 -84,-2.22216 -115,0c-32,2.22216 -6,3.33324 57,3.33324c63,0 89,-1.11108 58,-3.33324z" id="svg_7" fill="#27bcf7"/>
  </g>
  <g stroke="null" transform="translate(0 1139) scale(0.1 -0.1)" fill="#03a9f4" id="svg_14">
   <path stroke="null" d="m1509,12070.80807c-164,-29.99916 -292,-73.33128 -664,-225.54924c-368,-151.10688 -544,-201.10548 -702,-202.21656l-53,0l0,-328.87969l0,-329.99076l77,7.77756c193,19.99944 341,64.44264 728,223.32708c429,175.55064 581,216.6606 795,216.6606c214,0 366,-41.10996 795,-216.6606c448,-183.3282 586,-221.10492 805,-221.10492c219,0 357,37.77672 805,221.10492c429,175.55064 581,216.6606 795,216.6606c214,0 366,-41.10996 795,-216.6606c448,-183.3282 586,-221.10492 805,-221.10492c219,0 357,37.77672 805,221.10492c429,175.55064 581,216.6606 795,216.6606c214,0 366,-41.10996 795,-216.6606c448,-183.3282 586,-221.10492 805,-221.10492c219,0 357,37.77672 805,221.10492c429,175.55064 581,216.6606 795,216.6606c214,0 366,-41.10996 795,-216.6606c387,-158.88444 535,-203.32764 728,-223.32708l77,-7.77756l0,329.99076l0,328.87969l-52,0c-165,1.11108 -327,48.88752 -753,222.216c-462,187.77252 -563,215.54952 -795,215.54952c-232,0 -333,-27.777 -795,-215.54952c-460,-187.77252 -585,-222.216 -805,-222.216c-220,0 -345,34.44348 -805,222.216c-462,187.77252 -563,215.54952 -795,215.54952c-232,0 -333,-27.777 -795,-215.54952c-460,-187.77252 -585,-222.216 -805,-222.216c-220,0 -345,34.44348 -805,222.216c-462,187.77252 -563,215.54952 -795,215.54952c-232,0 -333,-27.777 -795,-215.54952c-460,-187.77252 -585,-222.216 -805,-222.216c-220,0 -345,34.44348 -805,222.216c-298,121.10772 -405,158.88444 -531,188.8836c-130,29.99916 -331,37.77672 -445,16.6662z" id="svg_8" fill="#27bcf7"/>
   <path stroke="null" d="m1575,10925.28458c-212,-34.44348 -314,-66.6648 -705,-226.66032c-387,-157.77336 -569,-211.1052 -721,-211.1052l-59,0l0,-328.87969l0,-328.87968l78,7.77756c192,18.88836 349,66.6648 715,217.77168c432,177.7728 594,222.216 807,222.216c213,0 375,-44.4432 807,-222.216c426,-175.55064 576,-216.6606 793,-216.6606c217,0 367,41.10996 793,216.6606c432,177.7728 594,222.216 807,222.216c213,0 375,-44.4432 807,-222.216c426,-175.55064 576,-216.6606 793,-216.6606c217,0 367,41.10996 793,216.6606c432,177.7728 594,222.216 807,222.216c213,0 375,-44.4432 807,-222.216c426,-175.55064 576,-216.6606 793,-216.6606c217,0 367,41.10996 793,216.6606c432,177.7728 594,222.216 807,222.216c213,0 375,-44.4432 807,-222.216c366,-151.10688 523,-198.88332 716,-217.77168l77,-7.77756l0,328.87968l0,328.87969l-59,0c-152,0 -334,53.33184 -721,211.1052c-480,195.55008 -590,226.66032 -820,226.66032c-230,0 -340,-31.11024 -820,-226.66032c-424,-173.32848 -565,-211.1052 -780,-211.1052c-215,0 -356,37.77672 -780,211.1052c-480,195.55008 -590,226.66032 -820,226.66032c-230,0 -340,-31.11024 -820,-226.66032c-424,-173.32848 -565,-211.1052 -780,-211.1052c-215,0 -356,37.77672 -780,211.1052c-480,195.55008 -590,226.66032 -820,226.66032c-230,0 -340,-31.11024 -820,-226.66032c-424,-173.32848 -565,-211.1052 -780,-211.1052c-215,0 -355,37.77672 -780,211.1052c-335,136.66284 -431,171.10632 -568,201.10548c-93,21.11052 -304,35.55456 -367,25.55484z" id="svg_9" fill="#27bcf7"/>
   <path stroke="null" d="m1545,9764.20597c-169,-24.44376 -301,-68.88696 -770,-259.99272c-247,-101.10828 -441,-157.77336 -580,-168.88416l-100,-8.88864l-3,-326.65753l-2,-325.54644l72,7.77756c194,18.88836 350,65.55372 703,211.1052c307,125.55204 381,153.32904 515,188.8836c261,68.88696 506,51.10968 805,-57.77616c44,-15.55512 193,-74.44236 330,-131.10744c412,-169.99524 560,-209.99412 775,-209.99412c215,0 363,39.99888 775,209.99412c307,125.55204 381,153.32904 515,188.8836c261,68.88696 506,51.10968 805,-57.77616c44,-15.55512 193,-74.44236 330,-131.10744c412,-169.99524 560,-209.99412 775,-209.99412c215,0 363,39.99888 775,209.99412c307,125.55204 381,153.32904 515,188.8836c208,54.44292 412,54.44292 620,0c134,-35.55456 208,-63.33156 515,-188.8836c412,-169.99524 560,-209.99412 775,-209.99412c215,0 363,39.99888 775,209.99412c307,125.55204 381,153.32904 515,188.8836c261,68.88696 506,51.10968 805,-57.77616c44,-15.55512 193,-74.44236 330,-131.10744c353,-145.55148 509,-192.21684 703,-211.1052l72,-7.77756l-2,325.54644l-3,326.65753l-100,8.88864c-139,11.1108 -333,67.77588 -580,168.88416c-380,155.5512 -459,184.43928 -579,217.77168c-175,46.66536 -311,61.1094 -444,45.55428c-199,-24.44376 -311,-61.1094 -807,-263.32596c-567,-231.10464 -803,-231.10464 -1370,0c-380,155.5512 -459,184.43928 -579,217.77168c-175,46.66536 -311,61.1094 -444,45.55428c-199,-24.44376 -311,-61.1094 -807,-263.32596c-567,-231.10464 -803,-231.10464 -1370,0c-380,155.5512 -459,184.43928 -579,217.77168c-175,46.66536 -311,61.1094 -444,45.55428c-199,-24.44376 -311,-61.1094 -807,-263.32596c-115,-46.66536 -271,-102.21936 -345,-123.32988c-332,-92.21964 -567,-63.33156 -1025,123.32988c-383,156.66228 -459,184.43928 -580,216.6606c-198,53.33184 -325,64.44264 -480,43.33212z" id="svg_10" fill="#27bcf7"/>
   <path stroke="null" d="m1590,8614.23816c-161,-16.6662 -335,-71.10912 -673,-208.88304c-399,-163.32876 -508,-198.88332 -667,-218.88276c-52,-6.66648 -110,-14.44404 -127,-16.6662l-33,-5.5554l0,-322.21321l0,-322.2132l63,6.66648c228,24.44376 334,56.66508 732,219.99384c451,184.43928 583,221.10492 805,221.10492c222,0 354,-36.66564 805,-221.10492c440,-181.10604 576,-217.77168 795,-217.77168c219,0 355,36.66564 795,217.77168c451,184.43928 583,221.10492 805,221.10492c222,0 354,-36.66564 805,-221.10492c440,-181.10604 576,-217.77168 795,-217.77168c219,0 355,36.66564 795,217.77168c451,184.43928 583,221.10492 805,221.10492c222,0 354,-36.66564 805,-221.10492c440,-181.10604 576,-217.77168 795,-217.77168c219,0 355,36.66564 795,217.77168c451,184.43928 583,221.10492 805,221.10492c222,0 354,-36.66564 805,-221.10492c398,-163.32876 504,-195.55008 733,-219.99384l62,-6.66648l0,322.2132l0,322.21321l-32,5.5554c-18,2.22216 -76,9.99972 -128,16.6662c-159,19.99944 -268,55.554 -667,218.88276c-415,169.99524 -557,207.77196 -773,207.77196c-211,0 -360,-38.8878 -736,-193.32792c-508,-208.88304 -635,-244.4376 -864,-244.4376c-229,0 -356,35.55456 -864,244.4376c-376,154.44012 -525,193.32792 -736,193.32792c-211,0 -360,-38.8878 -736,-193.32792c-508,-208.88304 -635,-244.4376 -864,-244.4376c-229,0 -356,35.55456 -864,244.4376c-376,154.44012 -525,193.32792 -736,193.32792c-211,0 -360,-38.8878 -736,-193.32792c-508,-208.88304 -635,-244.4376 -864,-244.4376c-229,0 -356,35.55456 -864,244.4376c-235,96.66396 -381,146.66256 -504,172.2174c-84,17.77728 -260,28.88808 -332,22.2216z" id="svg_11" fill="#27bcf7"/>
   <path stroke="null" d="m1580,7453.15955c-172,-17.77728 -303,-57.77616 -680,-212.21628c-306,-124.44096 -370,-147.77364 -495,-181.10604c-81,-21.11052 -256,-49.9986 -305,-49.9986c-7,0 -10,-106.66369 -10,-321.10213l0,-319.99104l73,4.44432c174,12.22188 341,63.33156 712,214.43844c395,162.21768 514,199.9944 708,222.216c126,15.55512 265,2.22216 422,-38.8878c127,-33.3324 203,-61.1094 500,-183.3282c429,-175.55064 568,-213.32736 785,-213.32736c217,0 356,37.77672 785,213.32736c297,122.2188 373,149.9958 500,183.3282c225,58.88724 405,58.88724 630,0c127,-33.3324 203,-61.1094 500,-183.3282c429,-175.55064 568,-213.32736 785,-213.32736c217,0 356,37.77672 785,213.32736c297,122.2188 373,149.9958 500,183.3282c225,58.88724 405,58.88724 630,0c127,-33.3324 203,-61.1094 500,-183.3282c429,-175.55064 568,-213.32736 785,-213.32736c217,0 356,37.77672 785,213.32736c395,162.21768 514,199.9944 708,222.216c126,15.55512 265,2.22216 422,-38.8878c127,-33.3324 203,-61.1094 500,-183.3282c371,-151.10688 538,-202.21656 713,-214.43844l72,-4.44432l0,319.99104c0,214.43844 -3,321.10213 -10,321.10213c-49,0 -224,28.88808 -305,49.9986c-125,33.3324 -189,56.66508 -495,181.10604c-441,179.99496 -570,215.54952 -790,215.54952c-220,0 -349,-35.55456 -790,-215.54952c-306,-124.44096 -370,-147.77364 -495,-181.10604c-225,-58.88725 -405,-58.88725 -630,0c-125,33.3324 -189,56.66508 -495,181.10604c-441,179.99496 -570,215.54952 -790,215.54952c-220,0 -349,-35.55456 -790,-215.54952c-306,-124.44096 -370,-147.77364 -495,-181.10604c-157,-41.10996 -296,-54.44293 -422,-38.8878c-194,22.2216 -303,56.66508 -703,219.99384c-441,179.99496 -570,215.54952 -790,215.54952c-220,0 -349,-35.55456 -790,-215.54952c-306,-124.44096 -370,-147.77364 -495,-181.10604c-225,-58.88725 -405,-58.88725 -630,0c-125,33.3324 -190,56.66508 -497,182.21712c-471,192.21684 -659,236.66004 -898,211.1052z" id="svg_12" fill="#27bcf7"/>
   <path stroke="null" d="m1475,6280.97014c-132,-25.55484 -284,-78.88668 -583,-201.10548c-395,-161.1066 -591,-218.88277 -768,-227.77141c-34,-1.11108 -32,-2.22216 16,-8.88864l55,-7.77756l-52,-1.11108l-53,-2.22216l0,-294.4362l0,-294.4362l58,-2.22216l57,-1.11108l-60,-7.77756l-60,-7.77756l61,-1.11108c146,-4.44432 341,52.22076 742,216.6606c330,134.44068 479,184.43928 624,207.77196c274,45.55428 453,7.77756 980,-207.77196c434,-177.7728 583,-218.88276 798,-218.88276c215,0 364,41.10996 798,218.88276c527,215.54952 706,253.32624 980,207.77196c145,-23.33268 294,-73.33128 624,-207.77196c434,-177.7728 583,-218.88276 798,-218.88276c215,0 364,41.10996 798,218.88276c527,215.54952 706,253.32624 980,207.77196c145,-23.33268 294,-73.33128 624,-207.77196c434,-177.7728 583,-218.88276 798,-218.88276c215,0 364,41.10996 798,218.88276c330,134.44068 479,184.43928 624,207.77196c274,45.55428 453,7.77756 980,-207.77196c401,-164.43984 596,-221.10492 742,-216.6606l61,1.11108l-60,7.77756l-60,7.77756l58,1.11108l57,2.22216l0,294.4362l0,294.4362l-52,2.22216l-53,1.11108l55,7.77756c48,6.66648 50,7.77756 16,8.88864c-177,8.88864 -373,66.66481 -768,227.77141c-434,177.7728 -583,218.88276 -798,218.88276c-215,0 -364,-41.10996 -798,-218.88276c-330,-134.44068 -479,-184.43928 -624,-207.77197c-274,-45.55428 -453,-7.77756 -980,207.77197c-434,177.7728 -583,218.88276 -798,218.88276c-215,0 -364,-41.10996 -798,-218.88276c-330,-134.44068 -479,-184.43928 -624,-207.77197c-274,-45.55428 -453,-7.77756 -980,207.77197c-434,177.7728 -583,218.88276 -798,218.88276c-215,0 -364,-41.10996 -798,-218.88276c-330,-134.44068 -479,-184.43928 -624,-207.77197c-274,-45.55428 -453,-7.77756 -980,207.77197c-441,181.10604 -585,219.99384 -807,217.77168c-69,0 -162,-7.77756 -206,-16.6662zm273,-1.11108c-32,-2.22216 -84,-2.22216 -115,0c-32,2.22216 -6,3.33324 57,3.33324c63,0 89,-1.11108 58,-3.33324zm3200,0c-32,-2.22216 -84,-2.22216 -115,0c-32,2.22216 -6,3.33324 57,3.33324c63,0 89,-1.11108 58,-3.33324zm3200,0c-32,-2.22216 -84,-2.22216 -115,0c-32,2.22216 -6,3.33324 57,3.33324c63,0 89,-1.11108 58,-3.33324zm3200,0c-32,-2.22216 -84,-2.22216 -115,0c-32,2.22216 -6,3.33324 57,3.33324c63,0 89,-1.11108 58,-3.33324zm-9795,-11.1108c-13,-2.22216 -33,-2.22216 -45,0c-13,2.22216 -3,4.44432 22,4.44432c25,0 35,-2.22216 23,-4.44432zm320,0c-13,-2.22216 -33,-2.22216 -45,0c-13,2.22216 -3,4.44432 22,4.44432c25,0 35,-2.22216 23,-4.44432zm2880,0c-13,-2.22216 -33,-2.22216 -45,0c-13,2.22216 -3,4.44432 22,4.44432c25,0 35,-2.22216 23,-4.44432zm320,0c-13,-2.22216 -33,-2.22216 -45,0c-13,2.22216 -3,4.44432 22,4.44432c25,0 35,-2.22216 23,-4.44432zm2880,0c-13,-2.22216 -33,-2.22216 -45,0c-13,2.22216 -3,4.44432 22,4.44432c25,0 35,-2.22216 23,-4.44432zm320,0c-13,-2.22216 -33,-2.22216 -45,0c-13,2.22216 -3,4.44432 22,4.44432c25,0 35,-2.22216 23,-4.44432zm2880,0c-13,-2.22216 -33,-2.22216 -45,0c-13,2.22216 -3,4.44432 22,4.44432c25,0 35,-2.22216 23,-4.44432zm320,0c-13,-2.22216 -33,-2.22216 -45,0c-13,2.22216 -3,4.44432 22,4.44432c25,0 35,-2.22216 23,-4.44432zm-9996,-9.99972c-3,-3.33324 -12,-4.44432 -19,-1.11108c-8,3.33324 -5,6.66648 6,6.66648c11,1.11108 17,-2.22216 13,-5.5554zm450,0c-3,-3.33324 -12,-4.44432 -19,-1.11108c-8,3.33324 -5,6.66648 6,6.66648c11,1.11108 17,-2.22216 13,-5.5554zm2750,0c-3,-3.33324 -12,-4.44432 -19,-1.11108c-8,3.33324 -5,6.66648 6,6.66648c11,1.11108 17,-2.22216 13,-5.5554zm450,0c-3,-3.33324 -12,-4.44432 -19,-1.11108c-8,3.33324 -5,6.66648 6,6.66648c11,1.11108 17,-2.22216 13,-5.5554zm2750,0c-3,-3.33324 -12,-4.44432 -19,-1.11108c-8,3.33324 -5,6.66648 6,6.66648c11,1.11108 17,-2.22216 13,-5.5554zm450,0c-3,-3.33324 -12,-4.44432 -19,-1.11108c-8,3.33324 -5,6.66648 6,6.66648c11,1.11108 17,-2.22216 13,-5.5554zm2750,0c-3,-3.33324 -12,-4.44432 -19,-1.11108c-8,3.33324 -5,6.66648 6,6.66648c11,1.11108 17,-2.22216 13,-5.5554zm450,0c-3,-3.33324 -12,-4.44432 -19,-1.11108c-8,3.33324 -5,6.66648 6,6.66648c11,1.11108 17,-2.22216 13,-5.5554zm-10094,-12.22188c-7,-2.22216 -21,-2.22216 -30,0c-10,3.33324 -4,5.5554 12,5.5554c17,0 24,-2.22216 18,-5.5554zm550,0c-7,-2.22216 -21,-2.22216 -30,0c-10,3.33324 -4,5.5554 12,5.5554c17,0 24,-2.22216 18,-5.5554zm2650,0c-7,-2.22216 -21,-2.22216 -30,0c-10,3.33324 -4,5.5554 12,5.5554c17,0 24,-2.22216 18,-5.5554zm550,0c-7,-2.22216 -21,-2.22216 -30,0c-10,3.33324 -4,5.5554 12,5.5554c17,0 24,-2.22216 18,-5.5554zm2650,0c-7,-2.22216 -21,-2.22216 -30,0c-10,3.33324 -4,5.5554 12,5.5554c17,0 24,-2.22216 18,-5.5554zm550,0c-7,-2.22216 -21,-2.22216 -30,0c-10,3.33324 -4,5.5554 12,5.5554c17,0 24,-2.22216 18,-5.5554zm2650,0c-7,-2.22216 -21,-2.22216 -30,0c-10,3.33324 -4,5.5554 12,5.5554c17,0 24,-2.22216 18,-5.5554zm550,0c-7,-2.22216 -21,-2.22216 -30,0c-10,3.33324 -4,5.5554 12,5.5554c17,0 24,-2.22216 18,-5.5554zm-10218,-14.44404c-11,-5.5554 -29,-8.88864 -40,-8.88864c-16,0 -15,2.22216 5,8.88864c34,12.22188 60,12.22188 35,0zm685,0c20,-6.66648 21,-8.88864 5,-8.88864c-11,0 -29,3.33324 -40,8.88864c-25,12.22188 1,12.22188 35,0zm2515,0c-11,-5.5554 -29,-8.88864 -40,-8.88864c-16,0 -15,2.22216 5,8.88864c34,12.22188 60,12.22188 35,0zm685,0c20,-6.66648 21,-8.88864 5,-8.88864c-11,0 -29,3.33324 -40,8.88864c-25,12.22188 1,12.22188 35,0zm2515,0c-11,-5.5554 -29,-8.88864 -40,-8.88864c-16,0 -15,2.22216 5,8.88864c34,12.22188 60,12.22188 35,0zm685,0c20,-6.66648 21,-8.88864 5,-8.88864c-11,0 -29,3.33324 -40,8.88864c-25,12.22188 1,12.22188 35,0zm2515,0c-11,-5.5554 -29,-8.88864 -40,-8.88864c-16,0 -15,2.22216 5,8.88864c34,12.22188 60,12.22188 35,0zm685,0c20,-6.66648 21,-8.88864 5,-8.88864c-11,0 -29,3.33324 -40,8.88864c-25,12.22188 1,12.22188 35,0zm-10351,-15.55512c-8,-7.77756 -282,-106.66368 -286,-102.21936c-2,2.22216 58,26.66592 134,55.554c127,46.66536 163,57.77616 152,46.66536zm933,-46.66536c76,-28.88808 137,-53.33184 135,-55.554c-4,-4.44432 -278,94.4418 -286,102.21936c-11,11.1108 21,1.11108 151,-46.66536zm2267,46.66536c-8,-7.77756 -282,-106.66368 -286,-102.21936c-2,2.22216 58,26.66592 134,55.554c127,46.66536 163,57.77616 152,46.66536zm933,-46.66536c76,-28.88808 137,-53.33184 135,-55.554c-4,-4.44432 -278,94.4418 -286,102.21936c-11,11.1108 21,1.11108 151,-46.66536zm2267,46.66536c-8,-7.77756 -282,-106.66368 -286,-102.21936c-2,2.22216 58,26.66592 134,55.554c127,46.66536 163,57.77616 152,46.66536zm933,-46.66536c76,-28.88808 137,-53.33184 135,-55.554c-4,-4.44432 -278,94.4418 -286,102.21936c-11,11.1108 21,1.11108 151,-46.66536zm2267,46.66536c-8,-7.77756 -282,-106.66368 -286,-102.21936c-2,2.22216 58,26.66592 134,55.554c127,46.66536 163,57.77616 152,46.66536zm933,-46.66536c76,-28.88808 137,-53.33184 135,-55.554c-4,-4.44432 -278,94.4418 -286,102.21936c-11,11.1108 21,1.11108 151,-46.66536zm-10917,-104.44152c-22,-11.1108 -47,-21.11052 -55,-21.11052c-8,0 5,9.99972 30,21.11052c58,26.66592 77,26.66592 25,0zm1589,-6.66648c17,-7.77756 24,-14.44404 16,-14.44404c-8,0 -33,9.99972 -55,22.2216c-43,22.2216 -11,16.6662 39,-7.77756zm1611,6.66648c-22,-11.1108 -47,-21.11052 -55,-21.11052c-8,0 5,9.99972 30,21.11052c58,26.66592 77,26.66592 25,0zm1589,-6.66648c17,-7.77756 24,-14.44404 16,-14.44404c-8,0 -33,9.99972 -55,22.2216c-43,22.2216 -11,16.6662 39,-7.77756zm1611,6.66648c-22,-11.1108 -47,-21.11052 -55,-21.11052c-8,0 5,9.99972 30,21.11052c58,26.66592 77,26.66592 25,0zm1589,-6.66648c17,-7.77756 24,-14.44404 16,-14.44404c-8,0 -33,9.99972 -55,22.2216c-43,22.2216 -11,16.6662 39,-7.77756zm1611,6.66648c-22,-11.1108 -47,-21.11052 -55,-21.11052c-8,0 5,9.99972 30,21.11052c58,26.66592 77,26.66592 25,0zm1589,-6.66648c17,-7.77756 24,-14.44404 16,-14.44404c-8,0 -33,9.99972 -55,22.2216c-43,22.2216 -11,16.6662 39,-7.77756zm-11349,-59.99832c-22,-11.1108 -47,-21.11052 -55,-21.11052c-8,0 5,9.99972 30,21.11052c58,26.66592 77,26.66592 25,0zm1909,-6.66648c17,-7.77756 24,-14.44404 16,-14.44404c-8,0 -33,9.99972 -55,22.2216c-43,22.2216 -11,16.6662 39,-7.77756zm1291,6.66648c-22,-11.1108 -47,-21.11052 -55,-21.11052c-8,0 5,9.99972 30,21.11052c58,26.66592 77,26.66592 25,0zm1909,-6.66648c17,-7.77756 24,-14.44404 16,-14.44404c-8,0 -33,9.99972 -55,22.2216c-43,22.2216 -11,16.6662 39,-7.77756zm1291,6.66648c-22,-11.1108 -47,-21.11052 -55,-21.11052c-8,0 5,9.99972 30,21.11052c58,26.66592 77,26.66592 25,0zm1909,-6.66648c17,-7.77756 24,-14.44404 16,-14.44404c-8,0 -33,9.99972 -55,22.2216c-43,22.2216 -11,16.6662 39,-7.77756zm1291,6.66648c-22,-11.1108 -47,-21.11052 -55,-21.11052c-8,0 5,9.99972 30,21.11052c58,26.66592 77,26.66592 25,0zm1909,-6.66648c17,-7.77756 24,-14.44404 16,-14.44404c-8,0 -33,9.99972 -55,22.2216c-43,22.2216 -11,16.6662 39,-7.77756zm-11594,-26.66592c-8,-5.5554 -22,-9.99972 -30,-9.99972c-10,0 -8,3.33324 5,9.99972c27,13.33296 43,13.33296 25,0zm2065,0c13,-6.66648 15,-9.99972 5,-9.99972c-8,0 -22,4.44432 -30,9.99972c-18,13.33296 -2,13.33296 25,0zm1135,0c-8,-5.5554 -22,-9.99972 -30,-9.99972c-10,0 -8,3.33324 5,9.99972c27,13.33296 43,13.33296 25,0zm2065,0c13,-6.66648 15,-9.99972 5,-9.99972c-8,0 -22,4.44432 -30,9.99972c-18,13.33296 -2,13.33296 25,0zm1135,0c-8,-5.5554 -22,-9.99972 -30,-9.99972c-10,0 -8,3.33324 5,9.99972c27,13.33296 43,13.33296 25,0zm2065,0c13,-6.66648 15,-9.99972 5,-9.99972c-8,0 -22,4.44432 -30,9.99972c-18,13.33296 -2,13.33296 25,0zm1135,0c-8,-5.5554 -22,-9.99972 -30,-9.99972c-10,0 -8,3.33324 5,9.99972c27,13.33296 43,13.33296 25,0zm2065,0c13,-6.66648 15,-9.99972 5,-9.99972c-8,0 -22,4.44432 -30,9.99972c-18,13.33296 -2,13.33296 25,0zm-11725,-22.2216c-8,-5.5554 -22,-9.99972 -30,-9.99972c-10,0 -8,3.33324 5,9.99972c27,13.33296 43,13.33296 25,0zm2185,0c13,-6.66648 15,-9.99972 5,-9.99972c-8,0 -22,4.44432 -30,9.99972c-18,13.33296 -2,13.33296 25,0zm1015,0c-8,-5.5554 -22,-9.99972 -30,-9.99972c-10,0 -8,3.33324 5,9.99972c27,13.33296 43,13.33296 25,0zm2185,0c13,-6.66648 15,-9.99972 5,-9.99972c-8,0 -22,4.44432 -30,9.99972c-18,13.33296 -2,13.33296 25,0zm1015,0c-8,-5.5554 -22,-9.99972 -30,-9.99972c-10,0 -8,3.33324 5,9.99972c27,13.33296 43,13.33296 25,0zm2185,0c13,-6.66648 15,-9.99972 5,-9.99972c-8,0 -22,4.44432 -30,9.99972c-18,13.33296 -2,13.33296 25,0zm1015,0c-8,-5.5554 -22,-9.99972 -30,-9.99972c-10,0 -8,3.33324 5,9.99972c27,13.33296 43,13.33296 25,0zm2185,0c13,-6.66648 15,-9.99972 5,-9.99972c-8,0 -22,4.44432 -30,9.99972c-18,13.33296 -2,13.33296 25,0zm-11845,-21.11052c-8,-5.5554 -31,-12.22188 -50,-15.55512c-35,-6.66648 -35,-6.66648 5,8.88864c46,16.6662 67,19.99944 45,6.66648zm2345,-14.44404c13,-5.5554 9,-6.66648 -15,-2.22216c-19,4.44432 -42,11.1108 -50,16.6662c-18,12.22188 34,1.11108 65,-14.44404zm855,14.44404c-8,-5.5554 -31,-12.22188 -50,-15.55512c-35,-6.66648 -35,-6.66648 5,8.88864c46,16.6662 67,19.99944 45,6.66648zm2345,-14.44404c13,-5.5554 9,-6.66648 -15,-2.22216c-19,4.44432 -42,11.1108 -50,16.6662c-18,12.22188 34,1.11108 65,-14.44404zm855,14.44404c-8,-5.5554 -31,-12.22188 -50,-15.55512c-35,-6.66648 -35,-6.66648 5,8.88864c46,16.6662 67,19.99944 45,6.66648zm2345,-14.44404c13,-5.5554 9,-6.66648 -15,-2.22216c-19,4.44432 -42,11.1108 -50,16.6662c-18,12.22188 34,1.11108 65,-14.44404zm855,14.44404c-8,-5.5554 -31,-12.22188 -50,-15.55512c-35,-6.66648 -35,-6.66648 5,8.88864c46,16.6662 67,19.99944 45,6.66648zm2345,-14.44404c13,-5.5554 9,-6.66648 -15,-2.22216c-19,4.44432 -42,11.1108 -50,16.6662c-18,12.22188 34,1.11108 65,-14.44404zm-12055,-19.99944c-34,-12.22188 -60,-12.22188 -35,0c11,5.5554 29,8.88864 40,8.88864c16,0 15,-2.22216 -5,-8.88864zm2535,0c25,-12.22188 -1,-12.22188 -35,0c-20,6.66648 -21,8.88864 -5,8.88864c11,0 29,-3.33324 40,-8.88864zm665,0c-34,-12.22188 -60,-12.22188 -35,0c11,5.5554 29,8.88864 40,8.88864c16,0 15,-2.22216 -5,-8.88864zm2535,0c25,-12.22188 -1,-12.22188 -35,0c-20,6.66648 -21,8.88864 -5,8.88864c11,0 29,-3.33324 40,-8.88864zm665,0c-34,-12.22188 -60,-12.22188 -35,0c11,5.5554 29,8.88864 40,8.88864c16,0 15,-2.22216 -5,-8.88864zm2535,0c25,-12.22188 -1,-12.22188 -35,0c-20,6.66648 -21,8.88864 -5,8.88864c11,0 29,-3.33324 40,-8.88864zm665,0c-34,-12.22188 -60,-12.22188 -35,0c11,5.5554 29,8.88864 40,8.88864c16,0 15,-2.22216 -5,-8.88864zm2535,0c25,-12.22188 -1,-12.22188 -35,0c-20,6.66648 -21,8.88864 -5,8.88864c11,0 29,-3.33324 40,-8.88864zm-12220,-22.22161c-16,-4.44432 -39,-8.88864 -50,-8.88864c-16,0 -15,2.22216 5,8.88864c14,4.44432 36,8.88865 50,8.88865c22,0 22,-1.11108 -5,-8.88865zm2715,0c20,-6.66648 21,-8.88864 5,-8.88864c-11,0 -33,4.44432 -50,8.88864c-27,7.77757 -27,8.88865 -5,8.88865c14,0 36,-4.44433 50,-8.88865zm485,0c-16,-4.44432 -39,-8.88864 -50,-8.88864c-16,0 -15,2.22216 5,8.88864c14,4.44432 36,8.88865 50,8.88865c22,0 22,-1.11108 -5,-8.88865zm2715,0c20,-6.66648 21,-8.88864 5,-8.88864c-11,0 -33,4.44432 -50,8.88864c-27,7.77757 -27,8.88865 -5,8.88865c14,0 36,-4.44433 50,-8.88865zm485,0c-16,-4.44432 -39,-8.88864 -50,-8.88864c-16,0 -15,2.22216 5,8.88864c14,4.44432 36,8.88865 50,8.88865c22,0 22,-1.11108 -5,-8.88865zm2715,0c20,-6.66648 21,-8.88864 5,-8.88864c-11,0 -33,4.44432 -50,8.88864c-27,7.77757 -27,8.88865 -5,8.88865c14,0 36,-4.44433 50,-8.88865zm485,0c-16,-4.44432 -39,-8.88864 -50,-8.88864c-16,0 -15,2.22216 5,8.88864c14,4.44432 36,8.88865 50,8.88865c22,0 22,-1.11108 -5,-8.88865zm2715,0c20,-6.66648 21,-8.88864 5,-8.88864c-11,0 -33,4.44432 -50,8.88864c-27,7.77757 -27,8.88865 -5,8.88865c14,0 36,-4.44433 50,-8.88865zm-12407,-18.88836c-13,-2.22216 -33,-2.22216 -45,0c-13,2.22216 -3,4.44432 22,4.44432c25,0 35,-2.22216 23,-4.44432zm2900,0c-13,-2.22216 -33,-2.22216 -45,0c-13,2.22216 -3,4.44432 22,4.44432c25,0 35,-2.22216 23,-4.44432zm300,0c-13,-2.22216 -33,-2.22216 -45,0c-13,2.22216 -3,4.44432 22,4.44432c25,0 35,-2.22216 23,-4.44432zm2900,0c-13,-2.22216 -33,-2.22216 -45,0c-13,2.22216 -3,4.44432 22,4.44432c25,0 35,-2.22216 23,-4.44432zm300,0c-13,-2.22216 -33,-2.22216 -45,0c-13,2.22216 -3,4.44432 22,4.44432c25,0 35,-2.22216 23,-4.44432zm2900,0c-13,-2.22216 -33,-2.22216 -45,0c-13,2.22216 -3,4.44432 22,4.44432c25,0 35,-2.22216 23,-4.44432zm300,0c-13,-2.22216 -33,-2.22216 -45,0c-13,2.22216 -3,4.44432 22,4.44432c25,0 35,-2.22216 23,-4.44432zm2900,0c-13,-2.22216 -33,-2.22216 -45,0c-13,2.22216 -3,4.44432 22,4.44432c25,0 35,-2.22216 23,-4.44432zm-9420,-11.1108c-29,-2.22216 -77,-2.22216 -105,0c-29,2.22216 -6,3.33324 52,3.33324c58,0 81,-1.11108 53,-3.33324zm3200,0c-29,-2.22216 -77,-2.22216 -105,0c-29,2.22216 -6,3.33324 52,3.33324c58,0 81,-1.11108 53,-3.33324zm3200,0c-29,-2.22216 -77,-2.22216 -105,0c-29,2.22216 -6,3.33324 52,3.33324c58,0 81,-1.11108 53,-3.33324zm-8000,-155.5512c-29,-2.22216 -77,-2.22216 -105,0c-29,2.22216 -6,3.33324 52,3.33324c58,0 81,-1.11108 53,-3.33324zm3200,0c-29,-2.22216 -77,-2.22216 -105,0c-29,2.22216 -6,3.33324 52,3.33324c58,0 81,-1.11108 53,-3.33324zm3200,0c-29,-2.22216 -77,-2.22216 -105,0c-29,2.22216 -6,3.33324 52,3.33324c58,0 81,-1.11108 53,-3.33324zm3200,0c-29,-2.22216 -77,-2.22216 -105,0c-29,2.22216 -6,3.33324 52,3.33324c58,0 81,-1.11108 53,-3.33324zm-9780,-11.1108c-13,-2.22216 -33,-2.22216 -45,0c-13,2.22216 -3,4.44432 22,4.44432c25,0 35,-2.22216 23,-4.44432zm300,0c-13,-2.22216 -33,-2.22216 -45,0c-13,2.22216 -3,4.44432 22,4.44432c25,0 35,-2.22216 23,-4.44432zm2900,0c-13,-2.22216 -33,-2.22216 -45,0c-13,2.22216 -3,4.44432 22,4.44432c25,0 35,-2.22216 23,-4.44432zm300,0c-13,-2.22216 -33,-2.22216 -45,0c-13,2.22216 -3,4.44432 22,4.44432c25,0 35,-2.22216 23,-4.44432zm2900,0c-13,-2.22216 -33,-2.22216 -45,0c-13,2.22216 -3,4.44432 22,4.44432c25,0 35,-2.22216 23,-4.44432zm300,0c-13,-2.22216 -33,-2.22216 -45,0c-13,2.22216 -3,4.44432 22,4.44432c25,0 35,-2.22216 23,-4.44432zm2900,0c-13,-2.22216 -33,-2.22216 -45,0c-13,2.22216 -3,4.44432 22,4.44432c25,0 35,-2.22216 23,-4.44432zm300,0c-13,-2.22216 -33,-2.22216 -45,0c-13,2.22216 -3,4.44432 22,4.44432c25,0 35,-2.22216 23,-4.44432zm-9993,-14.44404c-14,-4.44432 -36,-8.88864 -50,-8.88864c-22,0 -22,1.11108 5,8.88864c17,4.44432 39,8.88864 50,8.88864c16,0 15,-2.22216 -5,-8.88864zm485,0c27,-7.77756 27,-8.88864 5,-8.88864c-14,0 -36,4.44432 -50,8.88864c-20,6.66648 -21,8.88864 -5,8.88864c11,0 34,-4.44432 50,-8.88864zm2715,0c-14,-4.44432 -36,-8.88864 -50,-8.88864c-22,0 -22,1.11108 5,8.88864c17,4.44432 39,8.88864 50,8.88864c16,0 15,-2.22216 -5,-8.88864zm485,0c27,-7.77756 27,-8.88864 5,-8.88864c-14,0 -36,4.44432 -50,8.88864c-20,6.66648 -21,8.88864 -5,8.88864c11,0 34,-4.44432 50,-8.88864zm2715,0c-14,-4.44432 -36,-8.88864 -50,-8.88864c-22,0 -22,1.11108 5,8.88864c17,4.44432 39,8.88864 50,8.88864c16,0 15,-2.22216 -5,-8.88864zm485,0c27,-7.77756 27,-8.88864 5,-8.88864c-14,0 -36,4.44432 -50,8.88864c-20,6.66648 -21,8.88864 -5,8.88864c11,0 34,-4.44432 50,-8.88864zm2715,0c-14,-4.44432 -36,-8.88864 -50,-8.88864c-22,0 -22,1.11108 5,8.88864c17,4.44432 39,8.88864 50,8.88864c16,0 15,-2.22216 -5,-8.88864zm485,0c27,-7.77756 27,-8.88864 5,-8.88864c-14,0 -36,4.44432 -50,8.88864c-20,6.66648 -21,8.88864 -5,8.88864c11,0 34,-4.44432 50,-8.88864zm-10180,-22.2216c-11,-5.5554 -29,-8.88864 -40,-8.88864c-16,0 -15,2.22216 5,8.88864c34,12.22188 60,12.22188 35,0zm665,0c20,-6.66648 21,-8.88864 5,-8.88864c-11,0 -29,3.33324 -40,8.88864c-25,12.22188 1,12.22188 35,0zm2535,0c-11,-5.5554 -29,-8.88864 -40,-8.88864c-16,0 -15,2.22216 5,8.88864c34,12.22188 60,12.22188 35,0zm665,0c20,-6.66648 21,-8.88864 5,-8.88864c-11,0 -29,3.33324 -40,8.88864c-25,12.22188 1,12.22188 35,0zm2535,0c-11,-5.5554 -29,-8.88864 -40,-8.88864c-16,0 -15,2.22216 5,8.88864c34,12.22188 60,12.22188 35,0zm665,0c20,-6.66648 21,-8.88864 5,-8.88864c-11,0 -29,3.33324 -40,8.88864c-25,12.22188 1,12.22188 35,0zm2535,0c-11,-5.5554 -29,-8.88864 -40,-8.88864c-16,0 -15,2.22216 5,8.88864c34,12.22188 60,12.22188 35,0zm665,0c20,-6.66648 21,-8.88864 5,-8.88864c-11,0 -29,3.33324 -40,8.88864c-25,12.22188 1,12.22188 35,0zm-10369,-28.88808c-25,-8.88864 -47,-13.33296 -49,-9.99972c-5,5.5554 56,25.55484 78,25.55484c8,0 -5,-6.66648 -29,-15.55512zm879,-5.5554c18,-12.22188 -34,-1.11108 -65,14.44404c-13,5.5554 -9,6.66648 15,2.22216c19,-4.44432 42,-11.1108 50,-16.6662zm2321,5.5554c-25,-8.88864 -47,-13.33296 -49,-9.99972c-5,5.5554 56,25.55484 78,25.55484c8,0 -5,-6.66648 -29,-15.55512zm879,-5.5554c18,-12.22188 -34,-1.11108 -65,14.44404c-13,5.5554 -9,6.66648 15,2.22216c19,-4.44432 42,-11.1108 50,-16.6662zm2321,5.5554c-25,-8.88864 -47,-13.33296 -49,-9.99972c-5,5.5554 56,25.55484 78,25.55484c8,0 -5,-6.66648 -29,-15.55512zm879,-5.5554c18,-12.22188 -34,-1.11108 -65,14.44404c-13,5.5554 -9,6.66648 15,2.22216c19,-4.44432 42,-11.1108 50,-16.6662zm2321,5.5554c-25,-8.88864 -47,-13.33296 -49,-9.99972c-5,5.5554 56,25.55484 78,25.55484c8,0 -5,-6.66648 -29,-15.55512zm879,-5.5554c18,-12.22188 -34,-1.11108 -65,14.44404c-13,5.5554 -9,6.66648 15,2.22216c19,-4.44432 42,-11.1108 50,-16.6662zm-10555,-21.11052c-27,-13.33296 -43,-13.33296 -25,0c8,5.5554 22,9.99972 30,9.99972c10,0 8,-3.33324 -5,-9.99972zm1015,0c18,-13.33296 2,-13.33296 -25,0c-13,6.66648 -15,9.99972 -5,9.99972c8,0 22,-4.44432 30,-9.99972zm2185,0c-27,-13.33296 -43,-13.33296 -25,0c8,5.5554 22,9.99972 30,9.99972c10,0 8,-3.33324 -5,-9.99972zm1015,0c18,-13.33296 2,-13.33296 -25,0c-13,6.66648 -15,9.99972 -5,9.99972c8,0 22,-4.44432 30,-9.99972zm2185,0c-27,-13.33296 -43,-13.33296 -25,0c8,5.5554 22,9.99972 30,9.99972c10,0 8,-3.33324 -5,-9.99972zm1015,0c18,-13.33296 2,-13.33296 -25,0c-13,6.66648 -15,9.99972 -5,9.99972c8,0 22,-4.44432 30,-9.99972zm2185,0c-27,-13.33296 -43,-13.33296 -25,0c8,5.5554 22,9.99972 30,9.99972c10,0 8,-3.33324 -5,-9.99972zm1015,0c18,-13.33296 2,-13.33296 -25,0c-13,6.66648 -15,9.99972 -5,9.99972c8,0 22,-4.44432 30,-9.99972zm-10675,-22.2216c-27,-13.33296 -43,-13.33296 -25,0c8,5.5554 22,9.99972 30,9.99972c10,0 8,-3.33324 -5,-9.99972zm1135,0c18,-13.33296 2,-13.33296 -25,0c-13,6.66648 -15,9.99972 -5,9.99972c8,0 22,-4.44432 30,-9.99972zm2065,0c-27,-13.33296 -43,-13.33296 -25,0c8,5.5554 22,9.99972 30,9.99972c10,0 8,-3.33324 -5,-9.99972zm1135,0c18,-13.33296 2,-13.33296 -25,0c-13,6.66648 -15,9.99972 -5,9.99972c8,0 22,-4.44432 30,-9.99972zm2065,0c-27,-13.33296 -43,-13.33296 -25,0c8,5.5554 22,9.99972 30,9.99972c10,0 8,-3.33324 -5,-9.99972zm1135,0c18,-13.33296 2,-13.33296 -25,0c-13,6.66648 -15,9.99972 -5,9.99972c8,0 22,-4.44432 30,-9.99972zm2065,0c-27,-13.33296 -43,-13.33296 -25,0c8,5.5554 22,9.99972 30,9.99972c10,0 8,-3.33324 -5,-9.99972zm1135,0c18,-13.33296 2,-13.33296 -25,0c-13,6.66648 -15,9.99972 -5,9.99972c8,0 22,-4.44432 30,-9.99972zm-10806,-26.66592c-50,-24.44376 -82,-29.99916 -39,-7.77756c22,12.22188 47,22.2216 55,22.2216c8,0 1,-6.66648 -16,-14.44404zm1291,-7.77756c22,-11.1108 29,-17.77728 16,-14.44404c-37,11.1108 -88,36.66564 -71,36.66564c8,0 33,-9.99972 55,-22.2216zm1909,7.77756c-50,-24.44376 -82,-29.99916 -39,-7.77756c22,12.22188 47,22.2216 55,22.2216c8,0 1,-6.66648 -16,-14.44404zm1291,-7.77756c22,-11.1108 29,-17.77728 16,-14.44404c-37,11.1108 -88,36.66564 -71,36.66564c8,0 33,-9.99972 55,-22.2216zm1909,7.77756c-50,-24.44376 -82,-29.99916 -39,-7.77756c22,12.22188 47,22.2216 55,22.2216c8,0 1,-6.66648 -16,-14.44404zm1291,-7.77756c22,-11.1108 29,-17.77728 16,-14.44404c-37,11.1108 -88,36.66564 -71,36.66564c8,0 33,-9.99972 55,-22.2216zm1909,7.77756c-50,-24.44376 -82,-29.99916 -39,-7.77756c22,12.22188 47,22.2216 55,22.2216c8,0 1,-6.66648 -16,-14.44404zm1291,-7.77756c22,-11.1108 29,-17.77728 16,-14.44404c-37,11.1108 -88,36.66564 -71,36.66564c8,0 33,-9.99972 55,-22.2216zm-11051,-58.88724c-50,-24.44376 -82,-29.99916 -39,-7.77756c22,12.22188 47,22.2216 55,22.2216c8,0 1,-6.66648 -16,-14.44404zm1611,-7.77756c22,-11.1108 29,-17.77728 16,-14.44404c-37,11.1108 -88,36.66564 -71,36.66564c8,0 33,-9.99972 55,-22.2216zm1589,7.77756c-50,-24.44376 -82,-29.99916 -39,-7.77756c22,12.22188 47,22.2216 55,22.2216c8,0 1,-6.66648 -16,-14.44404zm1611,-7.77756c22,-11.1108 29,-17.77728 16,-14.44404c-37,11.1108 -88,36.66564 -71,36.66564c8,0 33,-9.99972 55,-22.2216zm1589,7.77756c-50,-24.44376 -82,-29.99916 -39,-7.77756c22,12.22188 47,22.2216 55,22.2216c8,0 1,-6.66648 -16,-14.44404zm1611,-7.77756c22,-11.1108 29,-17.77728 16,-14.44404c-37,11.1108 -88,36.66564 -71,36.66564c8,0 33,-9.99972 55,-22.2216zm1589,7.77756c-50,-24.44376 -82,-29.99916 -39,-7.77756c22,12.22188 47,22.2216 55,22.2216c8,0 1,-6.66648 -16,-14.44404zm1611,-7.77756c22,-11.1108 29,-17.77728 16,-14.44404c-37,11.1108 -88,36.66564 -71,36.66564c8,0 33,-9.99972 55,-22.2216zm-11372,-59.99832c-48,-23.33268 -255,-95.55288 -259,-91.10856c-2,2.22216 56,26.66592 129,54.44292c131,48.88752 192,66.6648 130,36.66564zm2025,-37.77672c72,-26.66592 130,-51.10968 128,-53.33184c-4,-5.5554 -213,68.88696 -259,92.21964c-49,24.44376 -16,14.44404 131,-38.8878zm1175,37.77672c-48,-23.33268 -255,-95.55288 -259,-91.10856c-2,2.22216 56,26.66592 129,54.44292c131,48.88752 192,66.6648 130,36.66564zm2025,-37.77672c72,-26.66592 130,-51.10968 128,-53.33184c-4,-5.5554 -213,68.88696 -259,92.21964c-49,24.44376 -16,14.44404 131,-38.8878zm1175,37.77672c-48,-23.33268 -255,-95.55288 -259,-91.10856c-2,2.22216 56,26.66592 129,54.44292c131,48.88752 192,66.6648 130,36.66564zm2025,-37.77672c72,-26.66592 130,-51.10968 128,-53.33184c-4,-5.5554 -213,68.88696 -259,92.21964c-49,24.44376 -16,14.44404 131,-38.8878zm1175,37.77672c-48,-23.33268 -255,-95.55288 -259,-91.10856c-2,2.22216 56,26.66592 129,54.44292c131,48.88752 192,66.6648 130,36.66564zm2025,-37.77672c72,-26.66592 130,-51.10968 128,-53.33184c-4,-5.5554 -213,68.88696 -259,92.21964c-49,24.44376 -16,14.44404 131,-38.8878zm-11918,-67.77588c-34,-12.22188 -60,-12.22188 -35,0c11,5.5554 29,8.88864 40,8.88864c16,0 15,-2.22216 -5,-8.88864zm2515,0c25,-12.22188 -1,-12.22188 -35,0c-20,6.66648 -21,8.88864 -5,8.88864c11,0 29,-3.33324 40,-8.88864zm685,0c-34,-12.22188 -60,-12.22188 -35,0c11,5.5554 29,8.88864 40,8.88864c16,0 15,-2.22216 -5,-8.88864zm2515,0c25,-12.22188 -1,-12.22188 -35,0c-20,6.66648 -21,8.88864 -5,8.88864c11,0 29,-3.33324 40,-8.88864zm685,0c-34,-12.22188 -60,-12.22188 -35,0c11,5.5554 29,8.88864 40,8.88864c16,0 15,-2.22216 -5,-8.88864zm2515,0c25,-12.22188 -1,-12.22188 -35,0c-20,6.66648 -21,8.88864 -5,8.88864c11,0 29,-3.33324 40,-8.88864zm685,0c-34,-12.22188 -60,-12.22188 -35,0c11,5.5554 29,8.88864 40,8.88864c16,0 15,-2.22216 -5,-8.88864zm2515,0c25,-12.22188 -1,-12.22188 -35,0c-20,6.66648 -21,8.88864 -5,8.88864c11,0 29,-3.33324 40,-8.88864zm-12182,-18.88836c-7,-2.22216 -21,-2.22216 -30,0c-10,3.33324 -4,5.5554 12,5.5554c17,0 24,-2.22216 18,-5.5554zm2650,0c-7,-2.22216 -21,-2.22216 -30,0c-10,3.33324 -4,5.5554 12,5.5554c17,0 24,-2.22216 18,-5.5554zm550,0c-7,-2.22216 -21,-2.22216 -30,0c-10,3.33324 -4,5.5554 12,5.5554c17,0 24,-2.22216 18,-5.5554zm2650,0c-7,-2.22216 -21,-2.22216 -30,0c-10,3.33324 -4,5.5554 12,5.5554c17,0 24,-2.22216 18,-5.5554zm550,0c-7,-2.22216 -21,-2.22216 -30,0c-10,3.33324 -4,5.5554 12,5.5554c17,0 24,-2.22216 18,-5.5554zm2650,0c-7,-2.22216 -21,-2.22216 -30,0c-10,3.33324 -4,5.5554 12,5.5554c17,0 24,-2.22216 18,-5.5554zm550,0c-7,-2.22216 -21,-2.22216 -30,0c-10,3.33324 -4,5.5554 12,5.5554c17,0 24,-2.22216 18,-5.5554zm2650,0c-7,-2.22216 -21,-2.22216 -30,0c-10,3.33324 -4,5.5554 12,5.5554c17,0 24,-2.22216 18,-5.5554zm-12306,-9.99972c-3,-3.33324 -12,-4.44432 -19,-1.11108c-8,3.33324 -5,6.66648 6,6.66648c11,1.11108 17,-2.22216 13,-5.5554zm2750,0c-3,-3.33324 -12,-4.44432 -19,-1.11108c-8,3.33324 -5,6.66648 6,6.66648c11,1.11108 17,-2.22216 13,-5.5554zm450,0c-3,-3.33324 -12,-4.44432 -19,-1.11108c-8,3.33324 -5,6.66648 6,6.66648c11,1.11108 17,-2.22216 13,-5.5554zm2750,0c-3,-3.33324 -12,-4.44432 -19,-1.11108c-8,3.33324 -5,6.66648 6,6.66648c11,1.11108 17,-2.22216 13,-5.5554zm450,0c-3,-3.33324 -12,-4.44432 -19,-1.11108c-8,3.33324 -5,6.66648 6,6.66648c11,1.11108 17,-2.22216 13,-5.5554zm2750,0c-3,-3.33324 -12,-4.44432 -19,-1.11108c-8,3.33324 -5,6.66648 6,6.66648c11,1.11108 17,-2.22216 13,-5.5554zm450,0c-3,-3.33324 -12,-4.44432 -19,-1.11108c-8,3.33324 -5,6.66648 6,6.66648c11,1.11108 17,-2.22216 13,-5.5554zm2750,0c-3,-3.33324 -12,-4.44432 -19,-1.11108c-8,3.33324 -5,6.66648 6,6.66648c11,1.11108 17,-2.22216 13,-5.5554zm-12399,-12.22188c-10,-2.22216 -28,-2.22216 -40,0c-13,2.22216 -5,4.44432 17,4.44432c22,1.11108 32,-1.11108 23,-4.44432zm2870,0c-10,-2.22216 -28,-2.22216 -40,0c-13,2.22216 -5,4.44432 17,4.44432c22,1.11108 32,-1.11108 23,-4.44432zm330,0c-10,-2.22216 -28,-2.22216 -40,0c-13,2.22216 -5,4.44432 17,4.44432c22,1.11108 32,-1.11108 23,-4.44432zm2870,0c-10,-2.22216 -28,-2.22216 -40,0c-13,2.22216 -5,4.44432 17,4.44432c22,1.11108 32,-1.11108 23,-4.44432zm330,0c-10,-2.22216 -28,-2.22216 -40,0c-13,2.22216 -5,4.44432 17,4.44432c22,1.11108 32,-1.11108 23,-4.44432zm2870,0c-10,-2.22216 -28,-2.22216 -40,0c-13,2.22216 -5,4.44432 17,4.44432c22,1.11108 32,-1.11108 23,-4.44432zm330,0c-10,-2.22216 -28,-2.22216 -40,0c-13,2.22216 -5,4.44432 17,4.44432c22,1.11108 32,-1.11108 23,-4.44432zm2870,0c-10,-2.22216 -28,-2.22216 -40,0c-13,2.22216 -5,4.44432 17,4.44432c22,1.11108 32,-1.11108 23,-4.44432zm-9400,-11.1108c-32,-2.22216 -84,-2.22216 -115,0c-32,2.22216 -6,3.33324 57,3.33324c63,0 89,-1.11108 58,-3.33324zm3200,0c-32,-2.22216 -84,-2.22216 -115,0c-32,2.22216 -6,3.33324 57,3.33324c63,0 89,-1.11108 58,-3.33324zm3200,0c-32,-2.22216 -84,-2.22216 -115,0c-32,2.22216 -6,3.33324 57,3.33324c63,0 89,-1.11108 58,-3.33324z" id="svg_13" fill="#27bcf7"/>
  </g>
 </g>
</svg>