<svg width="1280" height="1139" xmlns="http://www.w3.org/2000/svg" preserveAspectRatio="xMidYMid meet" version="1.0">
 <metadata>Created by potrace 1.15, written by Peter Selinger 2001-2017</metadata>

 <g>
  <title>Layer 1</title>
  <g id="svg_1" fill="#03a9f4" transform="translate(0 1139) scale(0.1 -0.1)">
   <path fill="#0a3270" id="svg_2" d="m1419,11375c-164,-27 -292,-66 -664,-203c-368,-136 -544,-181 -702,-182l-53,0l0,-296l0,-297l77,7c193,18 341,58 728,201c429,158 581,195 795,195c214,0 366,-37 795,-195c448,-165 586,-199 805,-199c219,0 357,34 805,199c429,158 581,195 795,195c214,0 366,-37 795,-195c448,-165 586,-199 805,-199c219,0 357,34 805,199c429,158 581,195 795,195c214,0 366,-37 795,-195c448,-165 586,-199 805,-199c219,0 357,34 805,199c429,158 581,195 795,195c214,0 366,-37 795,-195c387,-143 535,-183 728,-201l77,-7l0,297l0,296l-52,0c-165,1 -327,44 -753,200c-462,169 -563,194 -795,194c-232,0 -333,-25 -795,-194c-460,-169 -585,-200 -805,-200c-220,0 -345,31 -805,200c-462,169 -563,194 -795,194c-232,0 -333,-25 -795,-194c-460,-169 -585,-200 -805,-200c-220,0 -345,31 -805,200c-462,169 -563,194 -795,194c-232,0 -333,-25 -795,-194c-460,-169 -585,-200 -805,-200c-220,0 -345,31 -805,200c-298,109 -405,143 -531,170c-130,27 -331,34 -445,15z"/>
   <path fill="#0a3270" id="svg_3" d="m1485,10344c-212,-31 -314,-60 -705,-204c-387,-142 -569,-190 -721,-190l-59,0l0,-296l0,-296l78,7c192,17 349,60 715,196c432,160 594,200 807,200c213,0 375,-40 807,-200c426,-158 576,-195 793,-195c217,0 367,37 793,195c432,160 594,200 807,200c213,0 375,-40 807,-200c426,-158 576,-195 793,-195c217,0 367,37 793,195c432,160 594,200 807,200c213,0 375,-40 807,-200c426,-158 576,-195 793,-195c217,0 367,37 793,195c432,160 594,200 807,200c213,0 375,-40 807,-200c366,-136 523,-179 716,-196l77,-7l0,296l0,296l-59,0c-152,0 -334,48 -721,190c-480,176 -590,204 -820,204c-230,0 -340,-28 -820,-204c-424,-156 -565,-190 -780,-190c-215,0 -356,34 -780,190c-480,176 -590,204 -820,204c-230,0 -340,-28 -820,-204c-424,-156 -565,-190 -780,-190c-215,0 -356,34 -780,190c-480,176 -590,204 -820,204c-230,0 -340,-28 -820,-204c-424,-156 -565,-190 -780,-190c-215,0 -355,34 -780,190c-335,123 -431,154 -568,181c-93,19 -304,32 -367,23z"/>
   <path fill="#0a3270" id="svg_4" d="m1455,9299c-169,-22 -301,-62 -770,-234c-247,-91 -441,-142 -580,-152l-100,-8l-3,-294l-2,-293l72,7c194,17 350,59 703,190c307,113 381,138 515,170c261,62 506,46 805,-52c44,-14 193,-67 330,-118c412,-153 560,-189 775,-189c215,0 363,36 775,189c307,113 381,138 515,170c261,62 506,46 805,-52c44,-14 193,-67 330,-118c412,-153 560,-189 775,-189c215,0 363,36 775,189c307,113 381,138 515,170c208,49 412,49 620,0c134,-32 208,-57 515,-170c412,-153 560,-189 775,-189c215,0 363,36 775,189c307,113 381,138 515,170c261,62 506,46 805,-52c44,-14 193,-67 330,-118c353,-131 509,-173 703,-190l72,-7l-2,293l-3,294l-100,8c-139,10 -333,61 -580,152c-380,140 -459,166 -579,196c-175,42 -311,55 -444,41c-199,-22 -311,-55 -807,-237c-567,-208 -803,-208 -1370,0c-380,140 -459,166 -579,196c-175,42 -311,55 -444,41c-199,-22 -311,-55 -807,-237c-567,-208 -803,-208 -1370,0c-380,140 -459,166 -579,196c-175,42 -311,55 -444,41c-199,-22 -311,-55 -807,-237c-115,-42 -271,-92 -345,-111c-332,-83 -567,-57 -1025,111c-383,141 -459,166 -580,195c-198,48 -325,58 -480,39z"/>
   <path fill="#0a3270" id="svg_5" d="m1500,8264c-161,-15 -335,-64 -673,-188c-399,-147 -508,-179 -667,-197c-52,-6 -110,-13 -127,-15l-33,-5l0,-290l0,-290l63,6c228,22 334,51 732,198c451,166 583,199 805,199c222,0 354,-33 805,-199c440,-163 576,-196 795,-196c219,0 355,33 795,196c451,166 583,199 805,199c222,0 354,-33 805,-199c440,-163 576,-196 795,-196c219,0 355,33 795,196c451,166 583,199 805,199c222,0 354,-33 805,-199c440,-163 576,-196 795,-196c219,0 355,33 795,196c451,166 583,199 805,199c222,0 354,-33 805,-199c398,-147 504,-176 733,-198l62,-6l0,290l0,290l-32,5c-18,2 -76,9 -128,15c-159,18 -268,50 -667,197c-415,153 -557,187 -773,187c-211,0 -360,-35 -736,-174c-508,-188 -635,-220 -864,-220c-229,0 -356,32 -864,220c-376,139 -525,174 -736,174c-211,0 -360,-35 -736,-174c-508,-188 -635,-220 -864,-220c-229,0 -356,32 -864,220c-376,139 -525,174 -736,174c-211,0 -360,-35 -736,-174c-508,-188 -635,-220 -864,-220c-229,0 -356,32 -864,220c-235,87 -381,132 -504,155c-84,16 -260,26 -332,20z"/>
   <path fill="#0a3270" id="svg_6" d="m1490,7219c-172,-16 -303,-52 -680,-191c-306,-112 -370,-133 -495,-163c-81,-19 -256,-45 -305,-45c-7,0 -10,-96 -10,-289l0,-288l73,4c174,11 341,57 712,193c395,146 514,180 708,200c126,14 265,2 422,-35c127,-30 203,-55 500,-165c429,-158 568,-192 785,-192c217,0 356,34 785,192c297,110 373,135 500,165c225,53 405,53 630,0c127,-30 203,-55 500,-165c429,-158 568,-192 785,-192c217,0 356,34 785,192c297,110 373,135 500,165c225,53 405,53 630,0c127,-30 203,-55 500,-165c429,-158 568,-192 785,-192c217,0 356,34 785,192c395,146 514,180 708,200c126,14 265,2 422,-35c127,-30 203,-55 500,-165c371,-136 538,-182 713,-193l72,-4l0,288c0,193 -3,289 -10,289c-49,0 -224,26 -305,45c-125,30 -189,51 -495,163c-441,162 -570,194 -790,194c-220,0 -349,-32 -790,-194c-306,-112 -370,-133 -495,-163c-225,-53 -405,-53 -630,0c-125,30 -189,51 -495,163c-441,162 -570,194 -790,194c-220,0 -349,-32 -790,-194c-306,-112 -370,-133 -495,-163c-157,-37 -296,-49 -422,-35c-194,20 -303,51 -703,198c-441,162 -570,194 -790,194c-220,0 -349,-32 -790,-194c-306,-112 -370,-133 -495,-163c-225,-53 -405,-53 -630,0c-125,30 -190,51 -497,164c-471,173 -659,213 -898,190z"/>
   <path fill="#0a3270" id="svg_7" d="m1385,6164c-132,-23 -284,-71 -583,-181c-395,-145 -591,-197 -768,-205c-34,-1 -32,-2 16,-8l55,-7l-52,-1l-53,-2l0,-265l0,-265l58,-2l57,-1l-60,-7l-60,-7l61,-1c146,-4 341,47 742,195c330,121 479,166 624,187c274,41 453,7 980,-187c434,-160 583,-197 798,-197c215,0 364,37 798,197c527,194 706,228 980,187c145,-21 294,-66 624,-187c434,-160 583,-197 798,-197c215,0 364,37 798,197c527,194 706,228 980,187c145,-21 294,-66 624,-187c434,-160 583,-197 798,-197c215,0 364,37 798,197c330,121 479,166 624,187c274,41 453,7 980,-187c401,-148 596,-199 742,-195l61,1l-60,7l-60,7l58,1l57,2l0,265l0,265l-52,2l-53,1l55,7c48,6 50,7 16,8c-177,8 -373,60 -768,205c-434,160 -583,197 -798,197c-215,0 -364,-37 -798,-197c-330,-121 -479,-166 -624,-187c-274,-41 -453,-7 -980,187c-434,160 -583,197 -798,197c-215,0 -364,-37 -798,-197c-330,-121 -479,-166 -624,-187c-274,-41 -453,-7 -980,187c-434,160 -583,197 -798,197c-215,0 -364,-37 -798,-197c-330,-121 -479,-166 -624,-187c-274,-41 -453,-7 -980,187c-441,163 -585,198 -807,196c-69,0 -162,-7 -206,-15zm273,-1c-32,-2 -84,-2 -115,0c-32,2 -6,3 57,3c63,0 89,-1 58,-3zm3200,0c-32,-2 -84,-2 -115,0c-32,2 -6,3 57,3c63,0 89,-1 58,-3zm3200,0c-32,-2 -84,-2 -115,0c-32,2 -6,3 57,3c63,0 89,-1 58,-3zm3200,0c-32,-2 -84,-2 -115,0c-32,2 -6,3 57,3c63,0 89,-1 58,-3zm-9795,-10c-13,-2 -33,-2 -45,0c-13,2 -3,4 22,4c25,0 35,-2 23,-4zm320,0c-13,-2 -33,-2 -45,0c-13,2 -3,4 22,4c25,0 35,-2 23,-4zm2880,0c-13,-2 -33,-2 -45,0c-13,2 -3,4 22,4c25,0 35,-2 23,-4zm320,0c-13,-2 -33,-2 -45,0c-13,2 -3,4 22,4c25,0 35,-2 23,-4zm2880,0c-13,-2 -33,-2 -45,0c-13,2 -3,4 22,4c25,0 35,-2 23,-4zm320,0c-13,-2 -33,-2 -45,0c-13,2 -3,4 22,4c25,0 35,-2 23,-4zm2880,0c-13,-2 -33,-2 -45,0c-13,2 -3,4 22,4c25,0 35,-2 23,-4zm320,0c-13,-2 -33,-2 -45,0c-13,2 -3,4 22,4c25,0 35,-2 23,-4zm-9996,-9c-3,-3 -12,-4 -19,-1c-8,3 -5,6 6,6c11,1 17,-2 13,-5zm450,0c-3,-3 -12,-4 -19,-1c-8,3 -5,6 6,6c11,1 17,-2 13,-5zm2750,0c-3,-3 -12,-4 -19,-1c-8,3 -5,6 6,6c11,1 17,-2 13,-5zm450,0c-3,-3 -12,-4 -19,-1c-8,3 -5,6 6,6c11,1 17,-2 13,-5zm2750,0c-3,-3 -12,-4 -19,-1c-8,3 -5,6 6,6c11,1 17,-2 13,-5zm450,0c-3,-3 -12,-4 -19,-1c-8,3 -5,6 6,6c11,1 17,-2 13,-5zm2750,0c-3,-3 -12,-4 -19,-1c-8,3 -5,6 6,6c11,1 17,-2 13,-5zm450,0c-3,-3 -12,-4 -19,-1c-8,3 -5,6 6,6c11,1 17,-2 13,-5zm-10094,-11c-7,-2 -21,-2 -30,0c-10,3 -4,5 12,5c17,0 24,-2 18,-5zm550,0c-7,-2 -21,-2 -30,0c-10,3 -4,5 12,5c17,0 24,-2 18,-5zm2650,0c-7,-2 -21,-2 -30,0c-10,3 -4,5 12,5c17,0 24,-2 18,-5zm550,0c-7,-2 -21,-2 -30,0c-10,3 -4,5 12,5c17,0 24,-2 18,-5zm2650,0c-7,-2 -21,-2 -30,0c-10,3 -4,5 12,5c17,0 24,-2 18,-5zm550,0c-7,-2 -21,-2 -30,0c-10,3 -4,5 12,5c17,0 24,-2 18,-5zm2650,0c-7,-2 -21,-2 -30,0c-10,3 -4,5 12,5c17,0 24,-2 18,-5zm550,0c-7,-2 -21,-2 -30,0c-10,3 -4,5 12,5c17,0 24,-2 18,-5zm-10218,-13c-11,-5 -29,-8 -40,-8c-16,0 -15,2 5,8c34,11 60,11 35,0zm685,0c20,-6 21,-8 5,-8c-11,0 -29,3 -40,8c-25,11 1,11 35,0zm2515,0c-11,-5 -29,-8 -40,-8c-16,0 -15,2 5,8c34,11 60,11 35,0zm685,0c20,-6 21,-8 5,-8c-11,0 -29,3 -40,8c-25,11 1,11 35,0zm2515,0c-11,-5 -29,-8 -40,-8c-16,0 -15,2 5,8c34,11 60,11 35,0zm685,0c20,-6 21,-8 5,-8c-11,0 -29,3 -40,8c-25,11 1,11 35,0zm2515,0c-11,-5 -29,-8 -40,-8c-16,0 -15,2 5,8c34,11 60,11 35,0zm685,0c20,-6 21,-8 5,-8c-11,0 -29,3 -40,8c-25,11 1,11 35,0zm-10351,-14c-8,-7 -282,-96 -286,-92c-2,2 58,24 134,50c127,42 163,52 152,42zm933,-42c76,-26 137,-48 135,-50c-4,-4 -278,85 -286,92c-11,10 21,1 151,-42zm2267,42c-8,-7 -282,-96 -286,-92c-2,2 58,24 134,50c127,42 163,52 152,42zm933,-42c76,-26 137,-48 135,-50c-4,-4 -278,85 -286,92c-11,10 21,1 151,-42zm2267,42c-8,-7 -282,-96 -286,-92c-2,2 58,24 134,50c127,42 163,52 152,42zm933,-42c76,-26 137,-48 135,-50c-4,-4 -278,85 -286,92c-11,10 21,1 151,-42zm2267,42c-8,-7 -282,-96 -286,-92c-2,2 58,24 134,50c127,42 163,52 152,42zm933,-42c76,-26 137,-48 135,-50c-4,-4 -278,85 -286,92c-11,10 21,1 151,-42zm-10917,-94c-22,-10 -47,-19 -55,-19c-8,0 5,9 30,19c58,24 77,24 25,0zm1589,-6c17,-7 24,-13 16,-13c-8,0 -33,9 -55,20c-43,20 -11,15 39,-7zm1611,6c-22,-10 -47,-19 -55,-19c-8,0 5,9 30,19c58,24 77,24 25,0zm1589,-6c17,-7 24,-13 16,-13c-8,0 -33,9 -55,20c-43,20 -11,15 39,-7zm1611,6c-22,-10 -47,-19 -55,-19c-8,0 5,9 30,19c58,24 77,24 25,0zm1589,-6c17,-7 24,-13 16,-13c-8,0 -33,9 -55,20c-43,20 -11,15 39,-7zm1611,6c-22,-10 -47,-19 -55,-19c-8,0 5,9 30,19c58,24 77,24 25,0zm1589,-6c17,-7 24,-13 16,-13c-8,0 -33,9 -55,20c-43,20 -11,15 39,-7zm-11349,-54c-22,-10 -47,-19 -55,-19c-8,0 5,9 30,19c58,24 77,24 25,0zm1909,-6c17,-7 24,-13 16,-13c-8,0 -33,9 -55,20c-43,20 -11,15 39,-7zm1291,6c-22,-10 -47,-19 -55,-19c-8,0 5,9 30,19c58,24 77,24 25,0zm1909,-6c17,-7 24,-13 16,-13c-8,0 -33,9 -55,20c-43,20 -11,15 39,-7zm1291,6c-22,-10 -47,-19 -55,-19c-8,0 5,9 30,19c58,24 77,24 25,0zm1909,-6c17,-7 24,-13 16,-13c-8,0 -33,9 -55,20c-43,20 -11,15 39,-7zm1291,6c-22,-10 -47,-19 -55,-19c-8,0 5,9 30,19c58,24 77,24 25,0zm1909,-6c17,-7 24,-13 16,-13c-8,0 -33,9 -55,20c-43,20 -11,15 39,-7zm-11594,-24c-8,-5 -22,-9 -30,-9c-10,0 -8,3 5,9c27,12 43,12 25,0zm2065,0c13,-6 15,-9 5,-9c-8,0 -22,4 -30,9c-18,12 -2,12 25,0zm1135,0c-8,-5 -22,-9 -30,-9c-10,0 -8,3 5,9c27,12 43,12 25,0zm2065,0c13,-6 15,-9 5,-9c-8,0 -22,4 -30,9c-18,12 -2,12 25,0zm1135,0c-8,-5 -22,-9 -30,-9c-10,0 -8,3 5,9c27,12 43,12 25,0zm2065,0c13,-6 15,-9 5,-9c-8,0 -22,4 -30,9c-18,12 -2,12 25,0zm1135,0c-8,-5 -22,-9 -30,-9c-10,0 -8,3 5,9c27,12 43,12 25,0zm2065,0c13,-6 15,-9 5,-9c-8,0 -22,4 -30,9c-18,12 -2,12 25,0zm-11725,-20c-8,-5 -22,-9 -30,-9c-10,0 -8,3 5,9c27,12 43,12 25,0zm2185,0c13,-6 15,-9 5,-9c-8,0 -22,4 -30,9c-18,12 -2,12 25,0zm1015,0c-8,-5 -22,-9 -30,-9c-10,0 -8,3 5,9c27,12 43,12 25,0zm2185,0c13,-6 15,-9 5,-9c-8,0 -22,4 -30,9c-18,12 -2,12 25,0zm1015,0c-8,-5 -22,-9 -30,-9c-10,0 -8,3 5,9c27,12 43,12 25,0zm2185,0c13,-6 15,-9 5,-9c-8,0 -22,4 -30,9c-18,12 -2,12 25,0zm1015,0c-8,-5 -22,-9 -30,-9c-10,0 -8,3 5,9c27,12 43,12 25,0zm2185,0c13,-6 15,-9 5,-9c-8,0 -22,4 -30,9c-18,12 -2,12 25,0zm-11845,-19c-8,-5 -31,-11 -50,-14c-35,-6 -35,-6 5,8c46,15 67,18 45,6zm2345,-13c13,-5 9,-6 -15,-2c-19,4 -42,10 -50,15c-18,11 34,1 65,-13zm855,13c-8,-5 -31,-11 -50,-14c-35,-6 -35,-6 5,8c46,15 67,18 45,6zm2345,-13c13,-5 9,-6 -15,-2c-19,4 -42,10 -50,15c-18,11 34,1 65,-13zm855,13c-8,-5 -31,-11 -50,-14c-35,-6 -35,-6 5,8c46,15 67,18 45,6zm2345,-13c13,-5 9,-6 -15,-2c-19,4 -42,10 -50,15c-18,11 34,1 65,-13zm855,13c-8,-5 -31,-11 -50,-14c-35,-6 -35,-6 5,8c46,15 67,18 45,6zm2345,-13c13,-5 9,-6 -15,-2c-19,4 -42,10 -50,15c-18,11 34,1 65,-13zm-12055,-18c-34,-11 -60,-11 -35,0c11,5 29,8 40,8c16,0 15,-2 -5,-8zm2535,0c25,-11 -1,-11 -35,0c-20,6 -21,8 -5,8c11,0 29,-3 40,-8zm665,0c-34,-11 -60,-11 -35,0c11,5 29,8 40,8c16,0 15,-2 -5,-8zm2535,0c25,-11 -1,-11 -35,0c-20,6 -21,8 -5,8c11,0 29,-3 40,-8zm665,0c-34,-11 -60,-11 -35,0c11,5 29,8 40,8c16,0 15,-2 -5,-8zm2535,0c25,-11 -1,-11 -35,0c-20,6 -21,8 -5,8c11,0 29,-3 40,-8zm665,0c-34,-11 -60,-11 -35,0c11,5 29,8 40,8c16,0 15,-2 -5,-8zm2535,0c25,-11 -1,-11 -35,0c-20,6 -21,8 -5,8c11,0 29,-3 40,-8zm-12220,-20c-16,-4 -39,-8 -50,-8c-16,0 -15,2 5,8c14,4 36,8 50,8c22,0 22,-1 -5,-8zm2715,0c20,-6 21,-8 5,-8c-11,0 -33,4 -50,8c-27,7 -27,8 -5,8c14,0 36,-4 50,-8zm485,0c-16,-4 -39,-8 -50,-8c-16,0 -15,2 5,8c14,4 36,8 50,8c22,0 22,-1 -5,-8zm2715,0c20,-6 21,-8 5,-8c-11,0 -33,4 -50,8c-27,7 -27,8 -5,8c14,0 36,-4 50,-8zm485,0c-16,-4 -39,-8 -50,-8c-16,0 -15,2 5,8c14,4 36,8 50,8c22,0 22,-1 -5,-8zm2715,0c20,-6 21,-8 5,-8c-11,0 -33,4 -50,8c-27,7 -27,8 -5,8c14,0 36,-4 50,-8zm485,0c-16,-4 -39,-8 -50,-8c-16,0 -15,2 5,8c14,4 36,8 50,8c22,0 22,-1 -5,-8zm2715,0c20,-6 21,-8 5,-8c-11,0 -33,4 -50,8c-27,7 -27,8 -5,8c14,0 36,-4 50,-8zm-12407,-17c-13,-2 -33,-2 -45,0c-13,2 -3,4 22,4c25,0 35,-2 23,-4zm2900,0c-13,-2 -33,-2 -45,0c-13,2 -3,4 22,4c25,0 35,-2 23,-4zm300,0c-13,-2 -33,-2 -45,0c-13,2 -3,4 22,4c25,0 35,-2 23,-4zm2900,0c-13,-2 -33,-2 -45,0c-13,2 -3,4 22,4c25,0 35,-2 23,-4zm300,0c-13,-2 -33,-2 -45,0c-13,2 -3,4 22,4c25,0 35,-2 23,-4zm2900,0c-13,-2 -33,-2 -45,0c-13,2 -3,4 22,4c25,0 35,-2 23,-4zm300,0c-13,-2 -33,-2 -45,0c-13,2 -3,4 22,4c25,0 35,-2 23,-4zm2900,0c-13,-2 -33,-2 -45,0c-13,2 -3,4 22,4c25,0 35,-2 23,-4zm-9420,-10c-29,-2 -77,-2 -105,0c-29,2 -6,3 52,3c58,0 81,-1 53,-3zm3200,0c-29,-2 -77,-2 -105,0c-29,2 -6,3 52,3c58,0 81,-1 53,-3zm3200,0c-29,-2 -77,-2 -105,0c-29,2 -6,3 52,3c58,0 81,-1 53,-3zm-8000,-140c-29,-2 -77,-2 -105,0c-29,2 -6,3 52,3c58,0 81,-1 53,-3zm3200,0c-29,-2 -77,-2 -105,0c-29,2 -6,3 52,3c58,0 81,-1 53,-3zm3200,0c-29,-2 -77,-2 -105,0c-29,2 -6,3 52,3c58,0 81,-1 53,-3zm3200,0c-29,-2 -77,-2 -105,0c-29,2 -6,3 52,3c58,0 81,-1 53,-3zm-9780,-10c-13,-2 -33,-2 -45,0c-13,2 -3,4 22,4c25,0 35,-2 23,-4zm300,0c-13,-2 -33,-2 -45,0c-13,2 -3,4 22,4c25,0 35,-2 23,-4zm2900,0c-13,-2 -33,-2 -45,0c-13,2 -3,4 22,4c25,0 35,-2 23,-4zm300,0c-13,-2 -33,-2 -45,0c-13,2 -3,4 22,4c25,0 35,-2 23,-4zm2900,0c-13,-2 -33,-2 -45,0c-13,2 -3,4 22,4c25,0 35,-2 23,-4zm300,0c-13,-2 -33,-2 -45,0c-13,2 -3,4 22,4c25,0 35,-2 23,-4zm2900,0c-13,-2 -33,-2 -45,0c-13,2 -3,4 22,4c25,0 35,-2 23,-4zm300,0c-13,-2 -33,-2 -45,0c-13,2 -3,4 22,4c25,0 35,-2 23,-4zm-9993,-13c-14,-4 -36,-8 -50,-8c-22,0 -22,1 5,8c17,4 39,8 50,8c16,0 15,-2 -5,-8zm485,0c27,-7 27,-8 5,-8c-14,0 -36,4 -50,8c-20,6 -21,8 -5,8c11,0 34,-4 50,-8zm2715,0c-14,-4 -36,-8 -50,-8c-22,0 -22,1 5,8c17,4 39,8 50,8c16,0 15,-2 -5,-8zm485,0c27,-7 27,-8 5,-8c-14,0 -36,4 -50,8c-20,6 -21,8 -5,8c11,0 34,-4 50,-8zm2715,0c-14,-4 -36,-8 -50,-8c-22,0 -22,1 5,8c17,4 39,8 50,8c16,0 15,-2 -5,-8zm485,0c27,-7 27,-8 5,-8c-14,0 -36,4 -50,8c-20,6 -21,8 -5,8c11,0 34,-4 50,-8zm2715,0c-14,-4 -36,-8 -50,-8c-22,0 -22,1 5,8c17,4 39,8 50,8c16,0 15,-2 -5,-8zm485,0c27,-7 27,-8 5,-8c-14,0 -36,4 -50,8c-20,6 -21,8 -5,8c11,0 34,-4 50,-8zm-10180,-20c-11,-5 -29,-8 -40,-8c-16,0 -15,2 5,8c34,11 60,11 35,0zm665,0c20,-6 21,-8 5,-8c-11,0 -29,3 -40,8c-25,11 1,11 35,0zm2535,0c-11,-5 -29,-8 -40,-8c-16,0 -15,2 5,8c34,11 60,11 35,0zm665,0c20,-6 21,-8 5,-8c-11,0 -29,3 -40,8c-25,11 1,11 35,0zm2535,0c-11,-5 -29,-8 -40,-8c-16,0 -15,2 5,8c34,11 60,11 35,0zm665,0c20,-6 21,-8 5,-8c-11,0 -29,3 -40,8c-25,11 1,11 35,0zm2535,0c-11,-5 -29,-8 -40,-8c-16,0 -15,2 5,8c34,11 60,11 35,0zm665,0c20,-6 21,-8 5,-8c-11,0 -29,3 -40,8c-25,11 1,11 35,0zm-10369,-26c-25,-8 -47,-12 -49,-9c-5,5 56,23 78,23c8,0 -5,-6 -29,-14zm879,-5c18,-11 -34,-1 -65,13c-13,5 -9,6 15,2c19,-4 42,-10 50,-15zm2321,5c-25,-8 -47,-12 -49,-9c-5,5 56,23 78,23c8,0 -5,-6 -29,-14zm879,-5c18,-11 -34,-1 -65,13c-13,5 -9,6 15,2c19,-4 42,-10 50,-15zm2321,5c-25,-8 -47,-12 -49,-9c-5,5 56,23 78,23c8,0 -5,-6 -29,-14zm879,-5c18,-11 -34,-1 -65,13c-13,5 -9,6 15,2c19,-4 42,-10 50,-15zm2321,5c-25,-8 -47,-12 -49,-9c-5,5 56,23 78,23c8,0 -5,-6 -29,-14zm879,-5c18,-11 -34,-1 -65,13c-13,5 -9,6 15,2c19,-4 42,-10 50,-15zm-10555,-19c-27,-12 -43,-12 -25,0c8,5 22,9 30,9c10,0 8,-3 -5,-9zm1015,0c18,-12 2,-12 -25,0c-13,6 -15,9 -5,9c8,0 22,-4 30,-9zm2185,0c-27,-12 -43,-12 -25,0c8,5 22,9 30,9c10,0 8,-3 -5,-9zm1015,0c18,-12 2,-12 -25,0c-13,6 -15,9 -5,9c8,0 22,-4 30,-9zm2185,0c-27,-12 -43,-12 -25,0c8,5 22,9 30,9c10,0 8,-3 -5,-9zm1015,0c18,-12 2,-12 -25,0c-13,6 -15,9 -5,9c8,0 22,-4 30,-9zm2185,0c-27,-12 -43,-12 -25,0c8,5 22,9 30,9c10,0 8,-3 -5,-9zm1015,0c18,-12 2,-12 -25,0c-13,6 -15,9 -5,9c8,0 22,-4 30,-9zm-10675,-20c-27,-12 -43,-12 -25,0c8,5 22,9 30,9c10,0 8,-3 -5,-9zm1135,0c18,-12 2,-12 -25,0c-13,6 -15,9 -5,9c8,0 22,-4 30,-9zm2065,0c-27,-12 -43,-12 -25,0c8,5 22,9 30,9c10,0 8,-3 -5,-9zm1135,0c18,-12 2,-12 -25,0c-13,6 -15,9 -5,9c8,0 22,-4 30,-9zm2065,0c-27,-12 -43,-12 -25,0c8,5 22,9 30,9c10,0 8,-3 -5,-9zm1135,0c18,-12 2,-12 -25,0c-13,6 -15,9 -5,9c8,0 22,-4 30,-9zm2065,0c-27,-12 -43,-12 -25,0c8,5 22,9 30,9c10,0 8,-3 -5,-9zm1135,0c18,-12 2,-12 -25,0c-13,6 -15,9 -5,9c8,0 22,-4 30,-9zm-10806,-24c-50,-22 -82,-27 -39,-7c22,11 47,20 55,20c8,0 1,-6 -16,-13zm1291,-7c22,-10 29,-16 16,-13c-37,10 -88,33 -71,33c8,0 33,-9 55,-20zm1909,7c-50,-22 -82,-27 -39,-7c22,11 47,20 55,20c8,0 1,-6 -16,-13zm1291,-7c22,-10 29,-16 16,-13c-37,10 -88,33 -71,33c8,0 33,-9 55,-20zm1909,7c-50,-22 -82,-27 -39,-7c22,11 47,20 55,20c8,0 1,-6 -16,-13zm1291,-7c22,-10 29,-16 16,-13c-37,10 -88,33 -71,33c8,0 33,-9 55,-20zm1909,7c-50,-22 -82,-27 -39,-7c22,11 47,20 55,20c8,0 1,-6 -16,-13zm1291,-7c22,-10 29,-16 16,-13c-37,10 -88,33 -71,33c8,0 33,-9 55,-20zm-11051,-53c-50,-22 -82,-27 -39,-7c22,11 47,20 55,20c8,0 1,-6 -16,-13zm1611,-7c22,-10 29,-16 16,-13c-37,10 -88,33 -71,33c8,0 33,-9 55,-20zm1589,7c-50,-22 -82,-27 -39,-7c22,11 47,20 55,20c8,0 1,-6 -16,-13zm1611,-7c22,-10 29,-16 16,-13c-37,10 -88,33 -71,33c8,0 33,-9 55,-20zm1589,7c-50,-22 -82,-27 -39,-7c22,11 47,20 55,20c8,0 1,-6 -16,-13zm1611,-7c22,-10 29,-16 16,-13c-37,10 -88,33 -71,33c8,0 33,-9 55,-20zm1589,7c-50,-22 -82,-27 -39,-7c22,11 47,20 55,20c8,0 1,-6 -16,-13zm1611,-7c22,-10 29,-16 16,-13c-37,10 -88,33 -71,33c8,0 33,-9 55,-20zm-11372,-54c-48,-21 -255,-86 -259,-82c-2,2 56,24 129,49c131,44 192,60 130,33zm2025,-34c72,-24 130,-46 128,-48c-4,-5 -213,62 -259,83c-49,22 -16,13 131,-35zm1175,34c-48,-21 -255,-86 -259,-82c-2,2 56,24 129,49c131,44 192,60 130,33zm2025,-34c72,-24 130,-46 128,-48c-4,-5 -213,62 -259,83c-49,22 -16,13 131,-35zm1175,34c-48,-21 -255,-86 -259,-82c-2,2 56,24 129,49c131,44 192,60 130,33zm2025,-34c72,-24 130,-46 128,-48c-4,-5 -213,62 -259,83c-49,22 -16,13 131,-35zm1175,34c-48,-21 -255,-86 -259,-82c-2,2 56,24 129,49c131,44 192,60 130,33zm2025,-34c72,-24 130,-46 128,-48c-4,-5 -213,62 -259,83c-49,22 -16,13 131,-35zm-11918,-61c-34,-11 -60,-11 -35,0c11,5 29,8 40,8c16,0 15,-2 -5,-8zm2515,0c25,-11 -1,-11 -35,0c-20,6 -21,8 -5,8c11,0 29,-3 40,-8zm685,0c-34,-11 -60,-11 -35,0c11,5 29,8 40,8c16,0 15,-2 -5,-8zm2515,0c25,-11 -1,-11 -35,0c-20,6 -21,8 -5,8c11,0 29,-3 40,-8zm685,0c-34,-11 -60,-11 -35,0c11,5 29,8 40,8c16,0 15,-2 -5,-8zm2515,0c25,-11 -1,-11 -35,0c-20,6 -21,8 -5,8c11,0 29,-3 40,-8zm685,0c-34,-11 -60,-11 -35,0c11,5 29,8 40,8c16,0 15,-2 -5,-8zm2515,0c25,-11 -1,-11 -35,0c-20,6 -21,8 -5,8c11,0 29,-3 40,-8zm-12182,-17c-7,-2 -21,-2 -30,0c-10,3 -4,5 12,5c17,0 24,-2 18,-5zm2650,0c-7,-2 -21,-2 -30,0c-10,3 -4,5 12,5c17,0 24,-2 18,-5zm550,0c-7,-2 -21,-2 -30,0c-10,3 -4,5 12,5c17,0 24,-2 18,-5zm2650,0c-7,-2 -21,-2 -30,0c-10,3 -4,5 12,5c17,0 24,-2 18,-5zm550,0c-7,-2 -21,-2 -30,0c-10,3 -4,5 12,5c17,0 24,-2 18,-5zm2650,0c-7,-2 -21,-2 -30,0c-10,3 -4,5 12,5c17,0 24,-2 18,-5zm550,0c-7,-2 -21,-2 -30,0c-10,3 -4,5 12,5c17,0 24,-2 18,-5zm2650,0c-7,-2 -21,-2 -30,0c-10,3 -4,5 12,5c17,0 24,-2 18,-5zm-12306,-9c-3,-3 -12,-4 -19,-1c-8,3 -5,6 6,6c11,1 17,-2 13,-5zm2750,0c-3,-3 -12,-4 -19,-1c-8,3 -5,6 6,6c11,1 17,-2 13,-5zm450,0c-3,-3 -12,-4 -19,-1c-8,3 -5,6 6,6c11,1 17,-2 13,-5zm2750,0c-3,-3 -12,-4 -19,-1c-8,3 -5,6 6,6c11,1 17,-2 13,-5zm450,0c-3,-3 -12,-4 -19,-1c-8,3 -5,6 6,6c11,1 17,-2 13,-5zm2750,0c-3,-3 -12,-4 -19,-1c-8,3 -5,6 6,6c11,1 17,-2 13,-5zm450,0c-3,-3 -12,-4 -19,-1c-8,3 -5,6 6,6c11,1 17,-2 13,-5zm2750,0c-3,-3 -12,-4 -19,-1c-8,3 -5,6 6,6c11,1 17,-2 13,-5zm-12399,-11c-10,-2 -28,-2 -40,0c-13,2 -5,4 17,4c22,1 32,-1 23,-4zm2870,0c-10,-2 -28,-2 -40,0c-13,2 -5,4 17,4c22,1 32,-1 23,-4zm330,0c-10,-2 -28,-2 -40,0c-13,2 -5,4 17,4c22,1 32,-1 23,-4zm2870,0c-10,-2 -28,-2 -40,0c-13,2 -5,4 17,4c22,1 32,-1 23,-4zm330,0c-10,-2 -28,-2 -40,0c-13,2 -5,4 17,4c22,1 32,-1 23,-4zm2870,0c-10,-2 -28,-2 -40,0c-13,2 -5,4 17,4c22,1 32,-1 23,-4zm330,0c-10,-2 -28,-2 -40,0c-13,2 -5,4 17,4c22,1 32,-1 23,-4zm2870,0c-10,-2 -28,-2 -40,0c-13,2 -5,4 17,4c22,1 32,-1 23,-4zm-9400,-10c-32,-2 -84,-2 -115,0c-32,2 -6,3 57,3c63,0 89,-1 58,-3zm3200,0c-32,-2 -84,-2 -115,0c-32,2 -6,3 57,3c63,0 89,-1 58,-3zm3200,0c-32,-2 -84,-2 -115,0c-32,2 -6,3 57,3c63,0 89,-1 58,-3z"/>
  </g>
 </g>
</svg>